<svg width="16" height="16" viewBox="0 0 16 16" fill="none" xmlns="http://www.w3.org/2000/svg">
<path opacity="0.4" d="M7.82183 14.5917C4.35695 14.5917 1.53917 11.7733 1.53917 8.30903C1.53917 4.84477 4.35695 2.02637 7.82183 2.02637C11.2861 2.02637 14.1045 4.84477 14.1045 8.30903C14.1045 11.7733 11.2861 14.5917 7.82183 14.5917Z" fill="white"/>
<path d="M8.72792 10.9605C8.60792 10.9605 8.4873 10.9147 8.39557 10.823L6.20481 8.64287C6.11622 8.55428 6.06659 8.43429 6.06659 8.30863C6.06659 8.18361 6.11622 8.06361 6.20481 7.97502L8.39557 5.79368C8.57965 5.61023 8.87745 5.61023 9.06153 5.79494C9.24499 5.97965 9.24436 6.27808 9.06028 6.46153L7.20501 8.30863L9.06028 10.1557C9.24436 10.3392 9.24499 10.637 9.06153 10.8217C8.96981 10.9147 8.84855 10.9605 8.72792 10.9605Z" fill="white"/>
</svg>
