<svg width="20" height="21" viewBox="0 0 20 21" fill="none" xmlns="http://www.w3.org/2000/svg">
<g id="Check">
<path id="Vector" d="M10.0729 12.4805L18.2745 3.47833L19.3572 4.46481L10.148 14.5729L5.12764 9.80039L6.13701 8.73872L10.0729 12.4805ZM18.7885 7.24023L17.6462 8.49793C17.812 9.13468 17.9004 9.80233 17.9004 10.4902C17.9004 14.8518 14.3518 18.4004 9.99024 18.4004C5.62866 18.4004 2.08008 14.8518 2.08008 10.4902C2.08008 6.12866 5.62866 2.58008 9.99024 2.58008C12.0108 2.58008 13.8565 3.34203 15.2562 4.59309L16.2437 3.50579C14.5222 1.96072 12.3213 1.11523 9.99024 1.11523C7.48615 1.11523 5.13176 2.09039 3.36113 3.86113C1.59039 5.63176 0.615234 7.98615 0.615234 10.4902C0.615234 12.9943 1.59039 15.3487 3.36113 17.1193C5.13176 18.8901 7.48615 19.8652 9.99024 19.8652C12.4943 19.8652 14.8487 18.8901 16.6193 17.1193C18.3901 15.3487 19.3652 12.9943 19.3652 10.4902C19.3652 9.36322 19.1671 8.26688 18.7885 7.24023Z" fill="#60BB46"/>
</g>
</svg>
