<svg width="89" height="91" viewBox="0 0 89 91" fill="none" xmlns="http://www.w3.org/2000/svg">
<path d="M45.4149 67.576C45.1416 67.3408 44.7931 67.2114 44.4325 67.2114C44.0719 67.2114 43.723 67.3408 43.4497 67.576L33.3855 76.3361C33.2249 76.4771 33.0963 76.6507 33.0079 76.8453C32.9195 77.0399 32.8735 77.2511 32.873 77.4648V88.5903C32.873 88.9875 33.0309 89.3684 33.3118 89.6492C33.5926 89.9301 33.9734 90.0878 34.3706 90.0878H54.4945C54.6909 90.0878 54.8852 90.0491 55.0667 89.9738C55.2481 89.8985 55.4128 89.788 55.5515 89.6489C55.6902 89.5098 55.8004 89.3447 55.8752 89.1631C55.9499 88.9814 55.9882 88.7868 55.9876 88.5903V77.4513C55.9883 77.2374 55.9426 77.0258 55.8541 76.831C55.7656 76.6362 55.6362 76.4628 55.4747 76.3226L45.4149 67.576ZM53.0013 87.1108H35.8637V78.1439L44.4303 70.6879L53.0013 78.1439V87.1108Z" fill="white"/>
<path d="M73.849 57.9572C73.5765 57.7202 73.2273 57.5898 72.8662 57.5898C72.5051 57.5898 72.1563 57.7202 71.8838 57.9572L64.0682 64.7567C63.9075 64.8977 63.7789 65.0712 63.6905 65.2659C63.6021 65.4605 63.5562 65.6716 63.5557 65.8854V74.5375C63.5557 74.9339 63.7128 75.3141 63.9926 75.5948C64.2725 75.8755 64.652 76.0339 65.0484 76.0351H80.6845C81.0809 76.0339 81.4604 75.8755 81.7402 75.5948C82.0201 75.3141 82.1772 74.9339 82.1772 74.5375V65.8854C82.1767 65.6716 82.1308 65.4605 82.0424 65.2659C81.954 65.0712 81.8253 64.8977 81.6647 64.7567L73.849 57.9572ZM79.187 73.049H66.5459V66.5554L72.8688 61.0512L79.1646 66.5554L79.187 73.049Z" fill="white"/>
<path d="M88.4652 45.2398L82.1695 39.7489C81.897 39.512 81.5478 39.3816 81.1866 39.3816C80.8255 39.3816 80.4767 39.512 80.2042 39.7489L73.9085 45.2398C73.747 45.3801 73.6175 45.5535 73.5291 45.7483C73.4406 45.943 73.3953 46.1546 73.396 46.3686V53.3522C73.396 53.7482 73.553 54.128 73.833 54.408C74.113 54.688 74.4927 54.8453 74.8887 54.8453H87.503C87.8994 54.8453 88.2794 54.6882 88.5601 54.4083C88.8408 54.1284 88.9989 53.7486 89.0001 53.3522V46.3686C88.9968 46.1531 88.9475 45.9408 88.8552 45.7461C88.7629 45.5513 88.6299 45.3787 88.4652 45.2398ZM85.9875 51.8593H76.3818V47.0476L81.1981 42.8609L86.0099 47.0476L85.9875 51.8593Z" fill="white"/>
<path d="M15.5773 53.3523V46.3686C15.578 46.1547 15.5327 45.9431 15.4442 45.7483C15.3558 45.5535 15.2264 45.3801 15.0648 45.2399L8.76907 39.749C8.49728 39.5124 8.14879 39.3821 7.78843 39.3821C7.42808 39.3821 7.08002 39.5124 6.80824 39.749L0.512495 45.2399C0.351861 45.3809 0.22321 45.5545 0.134821 45.7491C0.0464319 45.9437 0.000486539 46.1549 0 46.3686V53.3523C0.00119033 53.7487 0.15933 54.1285 0.440034 54.4084C0.720739 54.6882 1.10114 54.8453 1.49752 54.8453H14.089C14.4842 54.8441 14.8626 54.6863 15.1417 54.4065C15.4207 54.1266 15.5773 53.7475 15.5773 53.3523ZM12.5915 51.8594H2.96342V47.0477L7.77526 42.861L12.5915 47.0477V51.8594Z" fill="white"/>
<path d="M16.6615 57.9572C16.389 57.7202 16.0398 57.5898 15.6787 57.5898C15.3175 57.5898 14.9688 57.7202 14.6963 57.9572L6.88062 64.7567C6.71907 64.8969 6.58965 65.0703 6.50119 65.2651C6.41272 65.4599 6.367 65.6715 6.36768 65.8854V74.5375C6.36768 74.9339 6.52522 75.3141 6.80508 75.5948C7.08494 75.8755 7.46444 76.0339 7.86081 76.0351H23.497C23.8933 76.0339 24.2728 75.8755 24.5527 75.5948C24.8326 75.3141 24.9897 74.9339 24.9897 74.5375V65.8854C24.9892 65.6716 24.9432 65.4605 24.8548 65.2659C24.7664 65.0712 24.6378 64.8977 24.4772 64.7567L16.6615 57.9572ZM21.9994 73.049H9.37634V66.5554L15.6989 61.0512L22.0218 66.5554L21.9994 73.049Z" fill="white"/>
<path d="M28.4757 38.9574H22.6569V35.3374L26.4209 32.0636L27.5223 32.963C27.6732 33.0882 27.8475 33.1824 28.0348 33.2403C28.2221 33.2983 28.4188 33.3188 28.6141 33.3006C28.8093 33.2824 28.9993 33.226 29.1727 33.1345C29.3461 33.043 29.4998 32.9182 29.625 32.7674C29.7502 32.6165 29.8442 32.4424 29.9021 32.2551C29.96 32.0678 29.9804 31.8709 29.9623 31.6757C29.9441 31.4805 29.8878 31.2907 29.7963 31.1173C29.7048 30.9439 29.58 30.7902 29.4291 30.665L27.3515 28.9382C27.0805 28.7094 26.7375 28.5837 26.3827 28.5837C26.028 28.5837 25.6845 28.7094 25.4135 28.9382L20.17 33.5296C20.0084 33.6699 19.879 33.8433 19.7905 34.0381C19.7021 34.2328 19.6568 34.4444 19.6575 34.6584V40.4729C19.6575 40.8693 19.8146 41.2495 20.0944 41.5302C20.3743 41.8109 20.7538 41.9692 21.1502 41.9704H28.4626C28.6658 41.9816 28.8691 41.9512 29.0602 41.8811C29.2514 41.811 29.4262 41.7026 29.5741 41.5627C29.7219 41.4227 29.8396 41.2541 29.9201 41.0671C30.0006 40.8801 30.0418 40.6787 30.0418 40.4751C30.0418 40.2715 30.0006 40.0702 29.9201 39.8832C29.8396 39.6962 29.7219 39.5276 29.5741 39.3876C29.4262 39.2477 29.2514 39.1394 29.0602 39.0692C28.8691 38.9991 28.6658 38.9687 28.4626 38.9799L28.4757 38.9574Z" fill="white"/>
<path d="M69.1328 40.4728V34.6808C69.1323 34.467 69.0863 34.2557 68.9979 34.0611C68.9096 33.8665 68.7809 33.693 68.6203 33.552L63.3855 28.9965C63.1152 28.768 62.7729 28.6426 62.4189 28.6426C62.065 28.6426 61.7222 28.768 61.4519 28.9965L59.3699 30.7234C59.219 30.8486 59.0942 31.0022 59.0028 31.1756C58.9113 31.349 58.8549 31.5388 58.8368 31.734C58.8186 31.9292 58.839 32.1262 58.8969 32.3135C58.9548 32.5008 59.0493 32.6749 59.1745 32.8258C59.2997 32.9766 59.4534 33.1013 59.6268 33.1928C59.8002 33.2843 59.9897 33.3407 60.185 33.3589C60.3802 33.3771 60.5769 33.3567 60.7642 33.2987C60.9515 33.2408 61.1258 33.1465 61.2767 33.0213L62.3829 32.1219L66.1426 35.3957V39.0158H60.3233C59.9409 39.0368 59.5809 39.2034 59.3176 39.4815C59.0544 39.7596 58.9079 40.128 58.9079 40.511C58.9079 40.8939 59.0544 41.2624 59.3176 41.5405C59.5809 41.8186 59.9409 41.9852 60.3233 42.0062H67.6352C67.835 42.0063 68.0326 41.9664 68.2167 41.889C68.4008 41.8115 68.5677 41.6979 68.7072 41.555C68.8468 41.4121 68.956 41.2427 69.0291 41.0569C69.1022 40.871 69.1376 40.6724 69.1328 40.4728Z" fill="white"/>
<path d="M55.6955 5.39635H54.9985V1.49302C54.9974 1.09664 54.8388 0.716822 54.5581 0.43696C54.2774 0.157099 53.8974 -1.78727e-06 53.501 0H35.3691C34.9732 0 34.5934 0.1573 34.3134 0.43729C34.0334 0.71728 33.8765 1.09706 33.8765 1.49302V5.39635H33.2107C32.8135 5.39635 32.4327 5.55412 32.1519 5.83496C31.8711 6.11579 31.7132 6.49671 31.7132 6.89387V57.3272C31.702 57.5305 31.7327 57.7339 31.8028 57.925C31.8729 58.1161 31.9812 58.2909 32.1212 58.4387C32.2611 58.5865 32.4295 58.7043 32.6165 58.7848C32.8035 58.8652 33.0049 58.9067 33.2085 58.9067C33.4121 58.9067 33.6135 58.8652 33.8005 58.7848C33.9875 58.7043 34.1559 58.5865 34.2959 58.4387C34.4358 58.2909 34.5441 58.1161 34.6142 57.925C34.6843 57.7339 34.715 57.5305 34.7038 57.3272V8.38228H54.2072V14.3453H50.0203C49.8242 14.3453 49.6301 14.384 49.4489 14.459C49.2678 14.534 49.1032 14.6439 48.9645 14.7825C48.8259 14.9212 48.7159 15.0858 48.6409 15.2669C48.5659 15.4481 48.5271 15.6422 48.5271 15.8383C48.5271 16.0343 48.5659 16.2285 48.6409 16.4096C48.7159 16.5908 48.8259 16.7554 48.9645 16.894C49.1032 17.0326 49.2678 17.1426 49.4489 17.2177C49.6301 17.2927 49.8242 17.3313 50.0203 17.3313H54.2072V23.1098H50.0203C49.6379 23.1308 49.2783 23.2975 49.015 23.5757C48.7518 23.8538 48.6049 24.2222 48.6049 24.6051C48.6049 24.9881 48.7518 25.3564 49.015 25.6345C49.2783 25.9126 49.6379 26.0794 50.0203 26.1004H54.2072V31.681H50.0203C49.6243 31.681 49.2445 31.8383 48.9645 32.1183C48.6846 32.3983 48.5271 32.7781 48.5271 33.1741C48.5271 33.57 48.6846 33.9498 48.9645 34.2298C49.2445 34.5098 49.6243 34.6671 50.0203 34.6671H54.2072V40.2478H50.0203C49.6379 40.2688 49.2783 40.4354 49.015 40.7135C48.7518 40.9916 48.6049 41.36 48.6049 41.743C48.6049 42.1259 48.7518 42.4944 49.015 42.7725C49.2783 43.0506 49.6379 43.2172 50.0203 43.2382H54.2072V57.3227C54.2072 57.5188 54.2455 57.7129 54.3205 57.8941C54.3955 58.0752 54.5055 58.2398 54.6441 58.3784C54.7828 58.5171 54.9474 58.6271 55.1285 58.7021C55.3097 58.7771 55.5038 58.8157 55.6999 58.8157C55.8959 58.8157 56.0901 58.7771 56.2712 58.7021C56.4524 58.6271 56.617 58.5171 56.7556 58.3784C56.8942 58.2398 57.0042 58.0752 57.0793 57.8941C57.1543 57.7129 57.193 57.5188 57.193 57.3227V6.88937C57.1918 6.49299 57.0337 6.11317 56.753 5.83331C56.4723 5.55345 56.0919 5.39635 55.6955 5.39635ZM36.8667 2.99043H52.0079V5.39635H36.8667V2.99043Z" fill="white"/>
<path d="M40.2137 49.7773V57.3232C40.2136 57.5193 40.2519 57.7134 40.327 57.8946C40.402 58.0757 40.512 58.2403 40.6506 58.3789C40.7892 58.5176 40.9539 58.6276 41.135 58.7026C41.3161 58.7776 41.5103 58.8162 41.7063 58.8162C41.9024 58.8162 42.0965 58.7776 42.2777 58.7026C42.4588 58.6276 42.6234 58.5176 42.7621 58.3789C42.9007 58.2403 43.0107 58.0757 43.0857 57.8946C43.1608 57.7134 43.1995 57.5193 43.1995 57.3232V51.2658H45.664V57.3142C45.6529 57.5175 45.6831 57.7209 45.7532 57.912C45.8233 58.1031 45.9316 58.2779 46.0716 58.4257C46.2115 58.5735 46.3799 58.6913 46.5669 58.7718C46.7539 58.8522 46.9553 58.8937 47.1589 58.8937C47.3625 58.8937 47.5639 58.8522 47.7509 58.7718C47.9379 58.6913 48.1068 58.5735 48.2467 58.4257C48.3866 58.2779 48.495 58.1031 48.5651 57.912C48.6352 57.7209 48.6654 57.5175 48.6542 57.3142V49.7683C48.6542 49.3723 48.4968 48.9927 48.2168 48.7127C47.9368 48.4327 47.5571 48.2754 47.1611 48.2754H41.7063C41.5095 48.2754 41.315 48.3143 41.1332 48.3899C40.9515 48.4655 40.7863 48.5762 40.6475 48.7158C40.5088 48.8553 40.3993 49.021 40.3248 49.2032C40.2503 49.3854 40.2125 49.5805 40.2137 49.7773Z" fill="white"/>
<path d="M44.219 17.3315H45.0147C45.2108 17.3315 45.4049 17.2929 45.5861 17.2179C45.7672 17.1428 45.9318 17.0328 46.0704 16.8942C46.2091 16.7556 46.3191 16.591 46.3941 16.4098C46.4691 16.2287 46.5078 16.0345 46.5078 15.8385C46.5078 15.6424 46.4691 15.4483 46.3941 15.2671C46.3191 15.086 46.2091 14.9214 46.0704 14.7827C45.9318 14.6441 45.7672 14.5342 45.5861 14.4592C45.4049 14.3842 45.2108 14.3455 45.0147 14.3455H44.219C44.0229 14.3455 43.8288 14.3842 43.6476 14.4592C43.4665 14.5342 43.3019 14.6441 43.1632 14.7827C43.0246 14.9214 42.9146 15.086 42.8396 15.2671C42.7645 15.4483 42.7258 15.6424 42.7258 15.8385C42.7258 16.0345 42.7645 16.2287 42.8396 16.4098C42.9146 16.591 43.0246 16.7556 43.1632 16.8942C43.3019 17.0328 43.4665 17.1428 43.6476 17.2179C43.8288 17.2929 44.0229 17.3315 44.219 17.3315Z" fill="white"/>
<path d="M38.0405 17.3315H38.8406C39.2366 17.3315 39.6164 17.1742 39.8964 16.8942C40.1764 16.6142 40.3338 16.2344 40.3338 15.8385C40.3338 15.4425 40.1764 15.0627 39.8964 14.7827C39.6164 14.5028 39.2366 14.3455 38.8406 14.3455H38.0405C37.8444 14.3455 37.6503 14.3842 37.4692 14.4592C37.288 14.5342 37.1234 14.6441 36.9848 14.7827C36.8461 14.9214 36.7361 15.086 36.6611 15.2671C36.5861 15.4483 36.5474 15.6424 36.5474 15.8385C36.5474 16.0345 36.5861 16.2287 36.6611 16.4098C36.7361 16.591 36.8461 16.7556 36.9848 16.8942C37.1234 17.0328 37.288 17.1428 37.4692 17.2179C37.6503 17.2929 37.8444 17.3315 38.0405 17.3315Z" fill="white"/>
<path d="M44.2198 26.0825H45.0155C45.2188 26.0937 45.4221 26.0633 45.6132 25.9932C45.8043 25.9231 45.9792 25.8147 46.127 25.6748C46.2749 25.5348 46.3926 25.3663 46.4731 25.1793C46.5536 24.9923 46.5952 24.7909 46.5952 24.5873C46.5952 24.3837 46.5536 24.1823 46.4731 23.9953C46.3926 23.8083 46.2749 23.6397 46.127 23.4997C45.9792 23.3598 45.8043 23.2516 45.6132 23.1815C45.4221 23.1114 45.2188 23.0809 45.0155 23.0921H44.2198C43.8374 23.1131 43.4774 23.2797 43.2141 23.5578C42.9509 23.8359 42.804 24.2044 42.804 24.5873C42.804 24.9703 42.9509 25.3387 43.2141 25.6168C43.4774 25.8949 43.8374 26.0615 44.2198 26.0825Z" fill="white"/>
<path d="M38.0414 26.0827H38.8415C39.2239 26.0617 39.5839 25.8951 39.8472 25.617C40.1105 25.3389 40.2574 24.9705 40.2574 24.5875C40.2574 24.2045 40.1105 23.8361 39.8472 23.558C39.5839 23.2799 39.2239 23.1133 38.8415 23.0923H38.0414C37.659 23.1133 37.299 23.2799 37.0357 23.558C36.7724 23.8361 36.626 24.2045 36.626 24.5875C36.626 24.9705 36.7724 25.3389 37.0357 25.617C37.299 25.8951 37.659 26.0617 38.0414 26.0827Z" fill="white"/>
<path d="M44.219 34.6672H45.0147C45.4107 34.6672 45.7905 34.5099 46.0704 34.2299C46.3504 33.9499 46.5078 33.5701 46.5078 33.1742C46.5078 32.7782 46.3504 32.3984 46.0704 32.1184C45.7905 31.8385 45.4107 31.6812 45.0147 31.6812H44.219C43.823 31.6812 43.4432 31.8385 43.1632 32.1184C42.8832 32.3984 42.7258 32.7782 42.7258 33.1742C42.7258 33.5701 42.8832 33.9499 43.1632 34.2299C43.4432 34.5099 43.823 34.6672 44.219 34.6672Z" fill="white"/>
<path d="M38.0405 34.6672H38.8406C39.2366 34.6672 39.6164 34.5099 39.8964 34.2299C40.1764 33.9499 40.3338 33.5701 40.3338 33.1742C40.3338 32.7782 40.1764 32.3984 39.8964 32.1184C39.6164 31.8385 39.2366 31.6812 38.8406 31.6812H38.0405C37.6445 31.6812 37.2648 31.8385 36.9848 32.1184C36.7048 32.3984 36.5474 32.7782 36.5474 33.1742C36.5474 33.5701 36.7048 33.9499 36.9848 34.2299C37.2648 34.5099 37.6445 34.6672 38.0405 34.6672Z" fill="white"/>
<path d="M44.2198 43.2383H45.0155C45.2188 43.2494 45.4221 43.219 45.6132 43.1489C45.8043 43.0788 45.9792 42.9706 46.127 42.8306C46.2749 42.6907 46.3926 42.522 46.4731 42.3351C46.5536 42.1481 46.5952 41.9466 46.5952 41.7431C46.5952 41.5395 46.5536 41.3381 46.4731 41.1511C46.3926 40.9641 46.2749 40.7956 46.127 40.6556C45.9792 40.5157 45.8043 40.4073 45.6132 40.3372C45.4221 40.2671 45.2188 40.2367 45.0155 40.2479H44.2198C43.8374 40.2688 43.4774 40.4355 43.2141 40.7136C42.9509 40.9917 42.804 41.3601 42.804 41.7431C42.804 42.126 42.9509 42.4945 43.2141 42.7726C43.4774 43.0507 43.8374 43.2173 44.2198 43.2383Z" fill="white"/>
<path d="M38.0414 43.2385H38.8415C39.2239 43.2175 39.5839 43.0509 39.8472 42.7728C40.1105 42.4946 40.2574 42.1262 40.2574 41.7433C40.2574 41.3603 40.1105 40.9919 39.8472 40.7138C39.5839 40.4357 39.2239 40.269 38.8415 40.248H38.0414C37.659 40.269 37.299 40.4357 37.0357 40.7138C36.7724 40.9919 36.626 41.3603 36.626 41.7433C36.626 42.1262 36.7724 42.4946 37.0357 42.7728C37.299 43.0509 37.659 43.2175 38.0414 43.2385Z" fill="white"/>
</svg>
