<svg width="79" height="85" viewBox="0 0 79 85" fill="none" xmlns="http://www.w3.org/2000/svg">
<path d="M78.0145 82.1823L63.6063 67.7782C65.7294 65.3388 67.2206 62.4149 67.9484 59.2639C68.6762 56.113 68.6185 52.8314 67.7804 49.708C67.7414 49.5262 67.6659 49.3543 67.5583 49.2027C67.4507 49.0511 67.3131 48.923 67.1544 48.8262C66.9957 48.7293 66.8191 48.6658 66.6351 48.6395C66.4511 48.6131 66.2636 48.6245 66.0841 48.6729C65.9046 48.7213 65.7369 48.8058 65.591 48.9211C65.4452 49.0364 65.3244 49.1802 65.236 49.3437C65.1475 49.5072 65.0931 49.6871 65.0763 49.8722C65.0596 50.0574 65.0807 50.244 65.1384 50.4207C66.0635 53.8475 65.8915 57.4781 64.6466 60.8022C63.4018 64.1262 61.1466 66.9767 58.1981 68.9529C55.2496 70.9291 51.756 71.9318 48.2082 71.82C44.6605 71.7081 41.237 70.4874 38.4188 68.3294C35.6007 66.1714 33.5297 63.1846 32.4967 59.7888C31.4637 56.3929 31.5206 52.7586 32.6597 49.3969C33.7988 46.0351 35.9628 43.1148 38.8473 41.0463C41.7318 38.9778 45.1918 37.8651 48.7413 37.8646C51.3856 37.8606 53.9941 38.4762 56.3576 39.662C58.7211 40.8479 60.7739 42.571 62.3514 44.6932L59.4068 46.5582C58.949 46.2858 58.427 46.1397 57.8943 46.1347C57.3616 46.1297 56.8371 46.2661 56.3743 46.5298C55.9114 46.7935 55.5266 47.1753 55.2594 47.6362C54.9921 48.097 54.8521 48.6204 54.853 49.1531C54.8528 49.3877 54.8815 49.6214 54.9385 49.8489L46.0097 57.4158C45.6175 57.2355 45.191 57.1422 44.7593 57.1426C44.0657 57.1429 43.3934 57.3827 42.8559 57.8212L36.3987 55.0983C36.2315 55.0185 36.0498 54.9736 35.8648 54.966C35.6797 54.9585 35.4948 54.9885 35.3217 55.0544C35.1485 55.1203 34.9907 55.2205 34.8574 55.3492C34.7241 55.4778 34.6184 55.6322 34.5465 55.8029C34.4745 55.9737 34.4379 56.1571 34.4389 56.3424C34.44 56.5276 34.4785 56.7107 34.5523 56.8806C34.6261 57.0505 34.7335 57.2038 34.8682 57.331C35.0029 57.4582 35.162 57.5567 35.3359 57.6206L41.7377 60.3221C41.7592 61.1224 42.0977 61.8813 42.6788 62.432C43.2598 62.9827 44.0358 63.28 44.836 63.2585C45.6363 63.237 46.3956 62.8985 46.9462 62.3174C47.4969 61.7363 47.7942 60.9603 47.7727 60.16C47.7732 59.9577 47.7516 59.756 47.7085 59.5583L56.6965 51.9401C57.1556 52.132 57.6553 52.2075 58.1506 52.1599C58.646 52.1124 59.1218 51.9431 59.536 51.6674C59.9503 51.3917 60.29 51.0179 60.525 50.5793C60.7601 50.1407 60.8833 49.6508 60.8835 49.1531C60.8835 49.0593 60.8835 48.9611 60.8835 48.8672L72.603 41.4284C73.176 41.7673 73.8449 41.9073 74.5056 41.8265C75.1664 41.7457 75.7818 41.4486 76.2561 40.9816C76.7305 40.5145 77.0374 39.9038 77.1285 39.2444C77.2196 38.585 77.09 37.9139 76.76 37.3357C76.4301 36.7576 75.9183 36.3047 75.3042 36.0478C74.6901 35.7908 74.0083 35.7442 73.3649 35.9151C72.7215 36.086 72.1526 36.4649 71.747 36.9927C71.3413 37.5206 71.1217 38.1678 71.1222 38.8335C71.1222 38.9316 71.1222 39.0255 71.1222 39.1194L64.6562 43.2251C62.2693 39.9494 58.9306 37.4891 55.0948 36.1797C51.259 34.8702 47.1127 34.7752 43.221 35.9076C39.3293 37.04 35.8814 39.3447 33.347 42.5077C30.8125 45.6707 29.3146 49.5382 29.0578 53.5833L19.3743 59.2723C18.8097 58.9111 18.1408 58.7482 17.4733 58.8092C16.8059 58.8702 16.178 59.1517 15.6882 59.6092C15.1985 60.0668 14.875 60.6744 14.7688 61.3362C14.6627 61.9979 14.7798 62.6761 15.1018 63.2639C15.4239 63.8517 15.9324 64.3155 16.5472 64.5822C17.1621 64.8489 17.8482 64.9034 18.4974 64.7369C19.1466 64.5705 19.7222 64.1925 20.1328 63.6629C20.5435 63.1332 20.766 62.4818 20.7655 61.8116C20.7655 61.7519 20.7655 61.6922 20.7655 61.6324L29.1133 56.7286C29.4561 60.3351 30.7873 63.7772 32.9598 66.6762C35.1323 69.5753 38.062 71.819 41.4272 73.1606C44.7923 74.5021 48.4623 74.8896 52.0335 74.2803C55.6046 73.6711 58.9387 72.0886 61.6687 69.7072L76.0769 84.1155C76.3347 84.3713 76.6829 84.5154 77.0459 84.5168C77.3166 84.516 77.5807 84.435 77.8053 84.2841C78.03 84.1333 78.2052 83.9192 78.3084 83.669C78.4116 83.4189 78.4381 83.1438 78.3851 82.8784C78.3321 82.613 78.2018 82.3693 78.0104 82.178L78.0145 82.1823Z" fill="white"/>
<path d="M63.7192 77.9783C63.357 77.9783 63.0096 78.1222 62.7535 78.3783C62.4974 78.6344 62.3534 78.9818 62.3534 79.344V81.6785H9.4064V8.46312H62.3663V35.7221C62.3559 35.9081 62.3835 36.0943 62.4476 36.2693C62.5116 36.4443 62.6109 36.6045 62.7389 36.7399C62.867 36.8752 63.0212 36.983 63.1924 37.0567C63.3635 37.1304 63.5479 37.1685 63.7342 37.1685C63.9205 37.1685 64.1049 37.1304 64.276 37.0567C64.4472 36.983 64.6014 36.8752 64.7295 36.7399C64.8575 36.6045 64.9568 36.4443 65.0208 36.2693C65.0849 36.0943 65.1125 35.9081 65.1021 35.7221V7.09315C65.101 6.73055 64.9563 6.38325 64.6995 6.12725C64.4427 5.87125 64.0947 5.72745 63.7321 5.72745H56.353V1.3657C56.353 1.00349 56.209 0.656131 55.9528 0.400009C55.6967 0.143887 55.3494 0 54.9871 0H1.36997C1.00736 -1.75951e-06 0.659413 0.143696 0.402613 0.399696C0.145814 0.655696 0.00112961 1.0031 0 1.3657V78.1532C0.00112961 78.5158 0.145814 78.8632 0.402613 79.1192C0.659413 79.3752 1.00736 79.519 1.36997 79.519H6.65771V83.0613C6.65771 83.4239 6.80182 83.7717 7.05782 84.0285C7.31382 84.2853 7.66091 84.4301 8.02351 84.4312H63.7192C64.0825 84.4312 64.4313 84.2869 64.6882 84.03C64.9451 83.7731 65.0892 83.4246 65.0892 83.0613V79.3611C65.0909 79.1801 65.0568 79.0006 64.9887 78.8329C64.9206 78.6652 64.8198 78.5126 64.6924 78.384C64.565 78.2554 64.4135 78.1534 64.2464 78.0837C64.0794 78.0141 63.9002 77.9783 63.7192 77.9783ZM2.73577 76.7662V2.71858H53.6213V5.70609H8.02351C7.6613 5.70609 7.31394 5.84998 7.05782 6.1061C6.8017 6.36222 6.65771 6.70968 6.65771 7.07189V76.7449L2.73577 76.7662Z" fill="white"/>
<path d="M55.5362 17.7629C55.5362 17.4007 55.3922 17.0533 55.1361 16.7972C54.88 16.5411 54.5326 16.3972 54.1704 16.3972H18.7942C18.4446 16.4168 18.1157 16.5694 17.8752 16.8238C17.6346 17.0782 17.5005 17.415 17.5005 17.7651C17.5005 18.1152 17.6346 18.452 17.8752 18.7064C18.1157 18.9608 18.4446 19.1134 18.7942 19.1329H54.1792C54.5403 19.1295 54.8853 18.9837 55.1394 18.7271C55.3936 18.4706 55.5362 18.1241 55.5362 17.7629Z" fill="white"/>
<path d="M37.2998 24.3312C37.2998 23.9678 37.1554 23.6194 36.8985 23.3624C36.6415 23.1055 36.2932 22.9612 35.9298 22.9612H18.7942C18.4446 22.9807 18.1157 23.1333 17.8752 23.3877C17.6346 23.642 17.5005 23.9789 17.5005 24.329C17.5005 24.6791 17.6346 25.0159 17.8752 25.2703C18.1157 25.5246 18.4446 25.6773 18.7942 25.6969H35.9382C36.2993 25.6946 36.6452 25.5499 36.9001 25.2941C37.1551 25.0384 37.2987 24.6923 37.2998 24.3312Z" fill="white"/>
<path d="M18.7942 29.8926C18.4446 29.9121 18.1157 30.0647 17.8752 30.3191C17.6346 30.5734 17.5005 30.9102 17.5005 31.2604C17.5005 31.6105 17.6346 31.9473 17.8752 32.2017C18.1157 32.456 18.4446 32.6087 18.7942 32.6282H28.0981C28.4476 32.6087 28.7765 32.456 29.0171 32.2017C29.2576 31.9473 29.3918 31.6105 29.3918 31.2604C29.3918 30.9102 29.2576 30.5734 29.0171 30.3191C28.7765 30.0647 28.4476 29.9121 28.0981 29.8926H18.7942Z" fill="white"/>
</svg>
