<svg width="89" height="90" viewBox="0 0 89 90" fill="none" xmlns="http://www.w3.org/2000/svg">
<path d="M48.3528 70.3991H6.23545V9.43523H78.9285V53.6461C78.9285 54.0699 79.0806 54.4762 79.3511 54.7759C79.6217 55.0755 79.9884 55.2439 80.3711 55.2439C80.7537 55.2439 81.1209 55.0755 81.3914 54.7759C81.662 54.4762 81.8137 54.0699 81.8137 53.6461V9.43523H83.7213C83.9108 9.43523 84.0982 9.39395 84.2732 9.31365C84.4482 9.23335 84.6073 9.1156 84.7412 8.96723C84.8752 8.81885 84.9816 8.6427 85.0541 8.44884C85.1266 8.25498 85.1639 8.0472 85.1639 7.83736V1.59787C85.1639 1.17409 85.0118 0.767661 84.7412 0.468004C84.4707 0.168347 84.1039 0 83.7213 0H1.44261C1.25315 0 1.06532 0.0413977 0.890284 0.121698C0.715247 0.201998 0.556205 0.319629 0.422237 0.468004C0.288269 0.616379 0.182276 0.792525 0.109773 0.986386C0.03727 1.18025 0 1.38803 0 1.59787V7.83736C0 8.0472 0.03727 8.25498 0.109773 8.44884C0.182276 8.6427 0.288269 8.81885 0.422237 8.96723C0.556205 9.1156 0.715247 9.23335 0.890284 9.31365C1.06532 9.39395 1.25315 9.43523 1.44261 9.43523H3.3498V71.997C3.34922 72.2072 3.38604 72.4155 3.45828 72.6099C3.53052 72.8043 3.63672 72.9811 3.77074 73.13C3.90477 73.2789 4.06433 73.397 4.23966 73.4776C4.41498 73.5582 4.60301 73.5998 4.79284 73.5998H48.3528C48.7222 73.5771 49.0697 73.3986 49.3239 73.101C49.5782 72.8034 49.7198 72.4091 49.7198 71.9994C49.7198 71.5896 49.5782 71.1955 49.3239 70.8979C49.0697 70.6003 48.7222 70.4218 48.3528 70.3991ZM2.88521 3.19573H82.274V6.23459H2.88521V3.19573Z" fill="white"/>
<path d="M64.1517 47.5098C65.8762 47.5108 67.5621 46.9453 68.9964 45.8849C70.4307 44.8245 71.5487 43.3168 72.2092 41.5525C72.8698 39.7882 73.043 37.8466 72.7071 35.9732C72.3712 34.0998 71.5414 32.379 70.3223 31.0281C69.1033 29.6772 67.5497 28.7571 65.8584 28.3841C64.1671 28.0112 62.4138 28.2021 60.8205 28.9328C59.2272 29.6635 57.8657 30.9011 56.9076 32.4891C55.9494 34.0771 55.4377 35.944 55.4377 37.8539C55.4413 40.4128 56.3604 42.8658 57.9936 44.6756C59.6269 46.4854 61.8414 47.5046 64.1517 47.5098ZM64.1517 31.3988C65.3057 31.3978 66.434 31.776 67.3939 32.4855C68.3538 33.1949 69.102 34.2038 69.544 35.3844C69.986 36.5651 70.1017 37.8644 69.8768 39.1179C69.6519 40.3715 69.0963 41.5231 68.2803 42.4269C67.4643 43.3306 66.4245 43.9459 65.2927 44.195C64.1608 44.4441 62.9877 44.3158 61.9217 43.8262C60.8557 43.3367 59.945 42.5079 59.3044 41.4448C58.6639 40.3817 58.3225 39.132 58.3234 37.8539C58.3257 36.1427 58.9406 34.5024 60.0331 33.2924C61.1256 32.0824 62.6067 31.4014 64.1517 31.3988Z" fill="white"/>
<path d="M87.044 65.4677L72.3206 52.2682C72.0232 52.0041 71.7013 51.7756 71.3603 51.5868C70.9239 51.3011 70.4661 51.0568 69.9925 50.8565C66.2279 49.3016 62.081 49.3191 58.3272 50.9056L57.2471 51.3614L45.1968 55.2825L34.4075 51.4203C33.0752 50.9562 31.6311 51.092 30.3886 51.7984C29.1462 52.5048 28.2053 53.7249 27.7692 55.1943C27.3433 56.6724 27.462 58.2771 28.0994 59.6587C28.7368 61.0404 29.8411 62.0872 31.1722 62.571L43.5152 66.9823C44.0415 67.1696 44.5907 67.2654 45.1436 67.2665C45.6282 67.2656 46.1098 67.1847 46.5728 67.0263L52.826 64.9726V87.3966C52.826 87.8204 52.9781 88.2268 53.2486 88.5265C53.5192 88.8261 53.8864 88.9945 54.269 88.9945C54.6516 88.9945 55.0184 88.8261 55.289 88.5265C55.5595 88.2268 55.7116 87.8204 55.7116 87.3966V62.8601C55.7113 62.6115 55.6586 62.3664 55.5578 62.1443C55.4569 61.9222 55.3104 61.7292 55.1303 61.5808C54.9503 61.4323 54.7416 61.3324 54.5205 61.289C54.2995 61.2456 54.0723 61.26 53.8572 61.3309L45.7543 63.9923C45.5569 64.063 45.351 64.0993 45.1436 64.1002C44.8924 64.1005 44.6429 64.0558 44.4046 63.9678L32.0616 59.5565C31.7611 59.449 31.4831 59.2771 31.2426 59.0505C31.0022 58.8238 30.8043 58.5469 30.6605 58.2356C30.5167 57.9243 30.4295 57.5846 30.4042 57.236C30.3789 56.8874 30.4156 56.5368 30.5127 56.204C30.6097 55.8713 30.7653 55.5628 30.9699 55.2965C31.1746 55.0302 31.4244 54.8112 31.7055 54.6519C31.9866 54.4926 32.2931 54.3962 32.6079 54.3682C32.9226 54.3401 33.2396 54.3811 33.5401 54.4885L44.7542 58.5028C45.0308 58.5985 45.3272 58.5985 45.6039 58.5028L58.1366 54.4199L58.2472 54.3806L59.3804 53.8905C62.4778 52.5814 65.8998 52.5675 69.0058 53.8513C69.3331 53.9819 69.6486 54.146 69.9484 54.3415L70.0634 54.41C70.2219 54.498 70.3705 54.6067 70.5059 54.7336L85.2297 67.9331C85.6954 68.349 86.0036 68.9428 86.0937 69.5977C86.1838 70.2527 86.049 70.9213 85.7164 71.4719L78.41 83.7254C78.1881 84.0941 77.8873 84.3962 77.5344 84.6049C77.1815 84.8135 76.7874 84.9222 76.3874 84.9214C75.9171 84.9229 75.4563 84.775 75.0598 84.495C74.5359 84.0667 74.1795 83.4332 74.0627 82.7237C73.946 82.0143 74.0777 81.2823 74.4314 80.6768L77.6489 75.1725L79.6758 71.7757C79.8733 71.4444 79.9519 71.0436 79.8971 70.6513C79.8423 70.2589 79.6576 69.9032 79.3789 69.6535L74.9534 65.6931C74.7418 65.5035 74.4861 65.3841 74.2157 65.3487C73.9454 65.3133 73.6715 65.3634 73.4257 65.493C73.1799 65.6227 72.9726 65.8268 72.8271 66.0817C72.6816 66.3365 72.6041 66.6317 72.6037 66.9332V77.9172L72.0064 78.9417C71.3438 80.0714 71.0424 81.4147 71.1507 82.7565C71.259 84.0984 71.7706 85.3612 72.6037 86.3428V87.3966C72.6022 87.7656 72.7162 88.1237 72.9261 88.4103C73.136 88.6968 73.4287 88.8942 73.755 88.9686C74.0813 89.0431 74.4211 88.9902 74.7162 88.8189C75.0113 88.6476 75.2436 88.3685 75.3739 88.0289C75.7036 88.0992 76.0387 88.1353 76.3744 88.1367C77.2509 88.1366 78.1136 87.8961 78.8858 87.4368C79.658 86.9776 80.3157 86.3137 80.7999 85.5046L88.1063 73.2511C88.8399 72.0415 89.1374 70.5716 88.9408 69.1308C88.7442 67.6901 88.0676 66.3831 87.044 65.4677ZM75.5023 70.2858L76.5555 71.2317L75.5023 72.9914V70.2858Z" fill="white"/>
<path d="M64.0595 53.739C63.8699 53.7384 63.682 53.7792 63.5067 53.8593C63.3314 53.9394 63.1719 54.0571 63.0378 54.2056C62.9037 54.3541 62.7977 54.5304 62.7254 54.7246C62.6531 54.9187 62.6159 55.1269 62.6165 55.3369V56.4054C62.6165 56.8291 62.7686 57.2356 63.0391 57.5352C63.3097 57.8349 63.6769 58.0032 64.0595 58.0032C64.4421 58.0032 64.8089 57.8349 65.0794 57.5352C65.35 57.2356 65.5021 56.8291 65.5021 56.4054V55.3369C65.5021 55.1271 65.4648 54.9193 65.3923 54.7254C65.3198 54.5315 65.2134 54.3554 65.0794 54.207C64.9455 54.0586 64.7864 53.9409 64.6114 53.8606C64.4364 53.7803 64.249 53.739 64.0595 53.739Z" fill="white"/>
<path d="M64.0595 58.8511C63.8697 58.8511 63.6816 58.8925 63.5063 58.9731C63.331 59.0537 63.1714 59.172 63.0374 59.3209C62.9034 59.4698 62.7976 59.6464 62.7254 59.8408C62.6531 60.0352 62.6159 60.2436 62.6165 60.4538V77.4961C62.6165 77.9199 62.7686 78.3263 63.0391 78.6259C63.3097 78.9256 63.6769 79.094 64.0595 79.094C64.4421 79.094 64.8089 78.9256 65.0794 78.6259C65.35 78.3263 65.5021 77.9199 65.5021 77.4961V60.4538C65.5027 60.2436 65.4659 60.0352 65.3936 59.8408C65.3214 59.6464 65.2152 59.4698 65.0812 59.3209C64.9471 59.172 64.7876 59.0537 64.6123 58.9731C64.4369 58.8925 64.2493 58.8511 64.0595 58.8511Z" fill="white"/>
<path d="M58.4988 15.047C58.1988 14.7829 57.8165 14.6614 57.4357 14.7092C57.0548 14.7569 56.7067 14.97 56.4676 15.3017L42.6379 34.4909L35.9111 24.1586C35.7674 23.9397 35.5762 23.7647 35.3549 23.6498C35.1336 23.535 34.8896 23.4841 34.6457 23.5019C34.4006 23.5186 34.1634 23.605 33.9572 23.7526C33.751 23.9003 33.5827 24.1043 33.4684 24.345L24.6706 42.6125L19.8332 33.1086C19.7148 32.8772 19.5463 32.6821 19.3427 32.5408C19.1391 32.3996 18.907 32.3167 18.6672 32.2997C18.4275 32.2827 18.1875 32.332 17.9693 32.4433C17.751 32.5546 17.5612 32.7243 17.4169 32.9371L11.7036 41.4263C11.4747 41.7663 11.3774 42.1929 11.4326 42.6125C11.4878 43.0322 11.691 43.4103 11.9979 43.6638C12.3048 43.9173 12.6904 44.0254 13.0692 43.9643C13.4481 43.9031 13.7894 43.6779 14.0183 43.3379L18.4084 36.8141L23.4488 46.715C23.5744 46.9618 23.757 47.1673 23.9778 47.3103C24.1987 47.4533 24.4502 47.5285 24.706 47.5286C24.9646 47.5261 25.2174 47.4466 25.4386 47.2982C25.6598 47.1498 25.8411 46.9382 25.9628 46.6855L34.9067 28.1092L41.3898 38.0689C41.5196 38.2687 41.6898 38.4323 41.8864 38.5471C42.0829 38.6619 42.3008 38.7247 42.523 38.7305C42.7452 38.7348 42.9653 38.6833 43.1669 38.5798C43.3685 38.4762 43.5463 38.3233 43.6868 38.1326L58.7067 17.2917C58.9463 16.9628 59.059 16.5423 59.02 16.1219C58.9811 15.7015 58.7937 15.3152 58.4988 15.047Z" fill="white"/>
</svg>
