<svg width="25" height="24" viewBox="0 0 25 24" fill="none" xmlns="http://www.w3.org/2000/svg">
<g id="fi-sr-info" clip-path="url(#clip0_5016_101341)">
<path id="Vector" d="M12.5 24C14.8734 24 17.1935 23.2962 19.1668 21.9776C21.1402 20.6591 22.6783 18.7849 23.5866 16.5922C24.4948 14.3995 24.7324 11.9867 24.2694 9.65892C23.8064 7.33115 22.6635 5.19295 20.9853 3.51472C19.3071 1.83649 17.1689 0.693605 14.8411 0.230582C12.5133 -0.232441 10.1005 0.00519943 7.9078 0.913451C5.71509 1.8217 3.84094 3.35977 2.52236 5.33316C1.20379 7.30655 0.5 9.62663 0.5 12C0.503441 15.1815 1.76883 18.2318 4.01852 20.4815C6.26821 22.7312 9.31846 23.9966 12.5 24ZM12.5 5.00001C12.7967 5.00001 13.0867 5.08798 13.3334 5.2528C13.58 5.41762 13.7723 5.65189 13.8858 5.92598C13.9994 6.20007 14.0291 6.50167 13.9712 6.79264C13.9133 7.08361 13.7704 7.35089 13.5607 7.56067C13.3509 7.77044 13.0836 7.91331 12.7926 7.97118C12.5017 8.02906 12.2001 7.99936 11.926 7.88582C11.6519 7.77229 11.4176 7.58003 11.2528 7.33336C11.088 7.08669 11 6.79668 11 6.50001C11 6.10218 11.158 5.72065 11.4393 5.43934C11.7206 5.15804 12.1022 5.00001 12.5 5.00001ZM11.5 10H12.5C13.0304 10 13.5391 10.2107 13.9142 10.5858C14.2893 10.9609 14.5 11.4696 14.5 12V18C14.5 18.2652 14.3946 18.5196 14.2071 18.7071C14.0196 18.8946 13.7652 19 13.5 19C13.2348 19 12.9804 18.8946 12.7929 18.7071C12.6054 18.5196 12.5 18.2652 12.5 18V12H11.5C11.2348 12 10.9804 11.8946 10.7929 11.7071C10.6054 11.5196 10.5 11.2652 10.5 11C10.5 10.7348 10.6054 10.4804 10.7929 10.2929C10.9804 10.1054 11.2348 10 11.5 10Z" fill="#374957"/>
</g>
<defs>
<clipPath id="clip0_5016_101341">
<rect width="24" height="24" fill="white" transform="translate(0.5)"/>
</clipPath>
</defs>
</svg>
