<svg width="131" height="220" viewBox="0 0 131 220" fill="none" xmlns="http://www.w3.org/2000/svg">
<path d="M65.1801 44.7044C77.5187 44.7044 87.5323 34.6908 87.5323 22.3522C87.5323 10.0136 77.5391 0 65.1801 0C52.8212 0 42.8279 10.0136 42.8279 22.3522C42.8279 34.6908 52.8416 44.7044 65.1801 44.7044ZM129.422 110.843L99.5242 52.3115C97.8927 49.1096 94.6092 47.1109 91.0198 47.1109H39.3609C35.7715 47.1109 32.488 49.13 30.8565 52.3115L1.14192 110.456C-0.999489 114.637 -0.122532 119.98 3.63003 122.794C5.40433 124.14 7.44377 124.752 9.42202 124.752C12.8891 124.752 16.2541 122.855 17.9265 119.552L34.2215 87.6549C35.1393 85.8602 37.8517 86.5128 37.8517 88.5318V126.73C37.8517 126.73 37.8313 126.894 37.8313 126.996V209.817C37.8313 214.569 41.074 218.994 45.7851 219.749C51.7607 220.728 56.9408 216.139 56.9408 210.327V144.779C56.9408 140.231 60.6322 136.54 65.1801 136.54C69.7281 136.54 73.4195 140.231 73.4195 144.779V209.817C73.4195 214.569 76.6622 218.994 81.3733 219.749C87.3488 220.728 92.529 216.139 92.529 210.327V126.996C92.529 126.996 92.5086 126.812 92.5086 126.73V88.5318C92.5086 86.5128 95.221 85.8602 96.1388 87.6549L112.209 119.083C114.371 123.325 119.266 125.772 123.793 124.304C129.565 122.448 132.074 116.003 129.443 110.843H129.422Z" fill="black"/>
</svg>
