<svg width="272" height="252" viewBox="0 0 272 252" fill="none" xmlns="http://www.w3.org/2000/svg">
<g clip-path="url(#clip0_1385_30658)">
<path d="M65.1801 44.7044C77.5187 44.7044 87.5323 34.6908 87.5323 22.3522C87.5323 10.0136 77.539 0 65.1801 0C52.8211 0 42.8279 10.0136 42.8279 22.3522C42.8279 34.6908 52.8415 44.7044 65.1801 44.7044ZM129.422 110.843L99.5242 52.3115C97.8926 49.1096 94.6091 47.1109 91.0197 47.1109H39.3608C35.7714 47.1109 32.488 49.13 30.8564 52.3115L1.14186 110.456C-0.99955 114.637 -0.122593 119.98 3.62997 122.794C5.40427 124.14 7.44371 124.752 9.42196 124.752C12.889 124.752 16.2541 122.855 17.9264 119.552L34.2215 87.6549C35.1392 85.8602 37.8517 86.5128 37.8517 88.5318V126.73C37.8517 126.73 37.8313 126.894 37.8313 126.996V209.817C37.8313 214.569 41.074 218.994 45.7851 219.749C51.7606 220.728 56.9408 216.139 56.9408 210.327V144.779C56.9408 140.231 60.6321 136.54 65.1801 136.54C69.728 136.54 73.4194 140.231 73.4194 144.779V209.817C73.4194 214.569 76.6621 218.994 81.3732 219.749C87.3487 220.728 92.5289 216.139 92.5289 210.327V126.996C92.5289 126.996 92.5085 126.812 92.5085 126.73V88.5318C92.5085 86.5128 95.2209 85.8602 96.1387 87.6549L112.209 119.083C114.371 123.325 119.266 125.772 123.793 124.304C129.565 122.448 132.074 116.003 129.443 110.843H129.422Z" fill="#E7E7E7"/>
<mask id="mask0_1385_30658" style="mask-type:luminance" maskUnits="userSpaceOnUse" x="-1" y="0" width="132" height="220">
<path d="M65.1801 44.7044C77.5187 44.7044 87.5323 34.6908 87.5323 22.3522C87.5323 10.0136 77.5391 0 65.1801 0C52.8212 0 42.8279 10.0136 42.8279 22.3522C42.8279 34.6908 52.8416 44.7044 65.1801 44.7044ZM129.422 110.843L99.5242 52.3115C97.8927 49.1096 94.6092 47.1109 91.0198 47.1109H39.3609C35.7715 47.1109 32.488 49.13 30.8565 52.3115L1.14192 110.456C-0.999489 114.637 -0.122532 119.98 3.63003 122.794C5.40433 124.14 7.44377 124.752 9.42202 124.752C12.8891 124.752 16.2541 122.855 17.9265 119.552L34.2215 87.6549C35.1393 85.8602 37.8517 86.5128 37.8517 88.5318V126.73C37.8517 126.73 37.8313 126.894 37.8313 126.996V209.817C37.8313 214.569 41.074 218.994 45.7851 219.749C51.7607 220.728 56.9408 216.139 56.9408 210.327V144.779C56.9408 140.231 60.6322 136.54 65.1801 136.54C69.7281 136.54 73.4195 140.231 73.4195 144.779V209.817C73.4195 214.569 76.6622 218.994 81.3733 219.749C87.3488 220.728 92.529 216.139 92.529 210.327V126.996C92.529 126.996 92.5086 126.812 92.5086 126.73V88.5318C92.5086 86.5128 95.221 85.8602 96.1388 87.6549L112.209 119.083C114.371 123.325 119.266 125.772 123.793 124.304C129.565 122.448 132.074 116.003 129.443 110.843H129.422Z" fill="white"/>
</mask>
<g mask="url(#mask0_1385_30658)">
<path d="M130.462 116.125H1.14166V219.851H130.462V116.125Z" fill="url(#paint0_linear_1385_30658)"/>
</g>
<path d="M56.48 93.068V92.24L60.692 86.408H62V92.12H63.2V93.068H62V95H60.92V93.068H56.48ZM60.968 87.548L57.74 92.12H60.968V87.548ZM64.2909 90.572C64.2909 89.196 64.5149 88.124 64.9629 87.356C65.4109 86.58 66.1949 86.192 67.3149 86.192C68.4269 86.192 69.2069 86.58 69.6549 87.356C70.1029 88.124 70.3269 89.196 70.3269 90.572C70.3269 91.972 70.1029 93.06 69.6549 93.836C69.2069 94.612 68.4269 95 67.3149 95C66.1949 95 65.4109 94.612 64.9629 93.836C64.5149 93.06 64.2909 91.972 64.2909 90.572ZM69.2469 90.572C69.2469 89.876 69.1989 89.288 69.1029 88.808C69.0149 88.32 68.8269 87.928 68.5389 87.632C68.2589 87.336 67.8509 87.188 67.3149 87.188C66.7709 87.188 66.3549 87.336 66.0669 87.632C65.7869 87.928 65.5989 88.32 65.5029 88.808C65.4149 89.288 65.3709 89.876 65.3709 90.572C65.3709 91.292 65.4149 91.896 65.5029 92.384C65.5989 92.872 65.7869 93.264 66.0669 93.56C66.3549 93.856 66.7709 94.004 67.3149 94.004C67.8509 94.004 68.2589 93.856 68.5389 93.56C68.8269 93.264 69.0149 92.872 69.1029 92.384C69.1989 91.896 69.2469 91.292 69.2469 90.572ZM71.586 88.28C71.586 87.736 71.75 87.304 72.078 86.984C72.406 86.656 72.826 86.492 73.338 86.492C73.85 86.492 74.27 86.656 74.598 86.984C74.926 87.304 75.09 87.736 75.09 88.28C75.09 88.832 74.926 89.272 74.598 89.6C74.27 89.92 73.85 90.08 73.338 90.08C72.826 90.08 72.406 89.92 72.078 89.6C71.75 89.272 71.586 88.832 71.586 88.28ZM78.594 86.624L73.734 95H72.654L77.514 86.624H78.594ZM73.338 87.164C73.066 87.164 72.85 87.26 72.69 87.452C72.538 87.636 72.462 87.912 72.462 88.28C72.462 88.648 72.538 88.928 72.69 89.12C72.85 89.312 73.066 89.408 73.338 89.408C73.61 89.408 73.826 89.312 73.986 89.12C74.146 88.92 74.226 88.64 74.226 88.28C74.226 87.912 74.146 87.636 73.986 87.452C73.826 87.26 73.61 87.164 73.338 87.164ZM76.182 93.344C76.182 92.792 76.346 92.356 76.674 92.036C77.002 91.708 77.422 91.544 77.934 91.544C78.446 91.544 78.862 91.708 79.182 92.036C79.51 92.356 79.674 92.792 79.674 93.344C79.674 93.888 79.51 94.324 79.182 94.652C78.862 94.98 78.446 95.144 77.934 95.144C77.422 95.144 77.002 94.984 76.674 94.664C76.346 94.336 76.182 93.896 76.182 93.344ZM77.922 92.228C77.65 92.228 77.434 92.324 77.274 92.516C77.114 92.7 77.034 92.976 77.034 93.344C77.034 93.704 77.114 93.98 77.274 94.172C77.434 94.356 77.65 94.448 77.922 94.448C78.194 94.448 78.41 94.356 78.57 94.172C78.73 93.98 78.81 93.704 78.81 93.344C78.81 92.976 78.73 92.7 78.57 92.516C78.41 92.324 78.194 92.228 77.922 92.228Z" fill="black"/>
</g>
<path d="M60.408 238.696V247H59.316V240.808L56.556 247H55.788L53.016 240.796V247H51.924V238.696H53.1L56.172 245.56L59.244 238.696H60.408ZM61.8519 243.688C61.8519 243.016 61.9879 242.428 62.2599 241.924C62.5319 241.412 62.9039 241.016 63.3759 240.736C63.8559 240.456 64.3879 240.316 64.9719 240.316C65.5479 240.316 66.0479 240.44 66.4719 240.688C66.8959 240.936 67.2119 241.248 67.4199 241.624V240.424H68.5239V247H67.4199V245.776C67.2039 246.16 66.8799 246.48 66.4479 246.736C66.0239 246.984 65.5279 247.108 64.9599 247.108C64.3759 247.108 63.8479 246.964 63.3759 246.676C62.9039 246.388 62.5319 245.984 62.2599 245.464C61.9879 244.944 61.8519 244.352 61.8519 243.688ZM67.4199 243.7C67.4199 243.204 67.3199 242.772 67.1199 242.404C66.9199 242.036 66.6479 241.756 66.3039 241.564C65.9679 241.364 65.5959 241.264 65.1879 241.264C64.7799 241.264 64.4079 241.36 64.0719 241.552C63.7359 241.744 63.4679 242.024 63.2679 242.392C63.0679 242.76 62.9679 243.192 62.9679 243.688C62.9679 244.192 63.0679 244.632 63.2679 245.008C63.4679 245.376 63.7359 245.66 64.0719 245.86C64.4079 246.052 64.7799 246.148 65.1879 246.148C65.5959 246.148 65.9679 246.052 66.3039 245.86C66.6479 245.66 66.9199 245.376 67.1199 245.008C67.3199 244.632 67.4199 244.196 67.4199 243.7ZM71.4613 238.12V247H70.3693V238.12H71.4613ZM79.3224 243.46C79.3224 243.668 79.3104 243.888 79.2864 244.12H74.0304C74.0704 244.768 74.2904 245.276 74.6904 245.644C75.0984 246.004 75.5904 246.184 76.1664 246.184C76.6384 246.184 77.0304 246.076 77.3424 245.86C77.6624 245.636 77.8864 245.34 78.0144 244.972H79.1904C79.0144 245.604 78.6624 246.12 78.1344 246.52C77.6064 246.912 76.9504 247.108 76.1664 247.108C75.5424 247.108 74.9824 246.968 74.4864 246.688C73.9984 246.408 73.6144 246.012 73.3344 245.5C73.0544 244.98 72.9144 244.38 72.9144 243.7C72.9144 243.02 73.0504 242.424 73.3224 241.912C73.5944 241.4 73.9744 241.008 74.4624 240.736C74.9584 240.456 75.5264 240.316 76.1664 240.316C76.7904 240.316 77.3424 240.452 77.8224 240.724C78.3024 240.996 78.6704 241.372 78.9264 241.852C79.1904 242.324 79.3224 242.86 79.3224 243.46ZM78.1944 243.232C78.1944 242.816 78.1024 242.46 77.9184 242.164C77.7344 241.86 77.4824 241.632 77.1624 241.48C76.8504 241.32 76.5024 241.24 76.1184 241.24C75.5664 241.24 75.0944 241.416 74.7024 241.768C74.3184 242.12 74.0984 242.608 74.0424 243.232H78.1944Z" fill="black"/>
<g clip-path="url(#clip1_1385_30658)">
<path d="M215.265 44.7044C227.604 44.7044 237.617 34.6908 237.617 22.3522C237.617 10.0136 227.604 0 215.265 0C202.926 0 192.913 10.0136 192.913 22.3522C192.913 34.6908 202.926 44.7044 215.265 44.7044ZM270.228 111.435L245.102 52.9029C243.593 49.3951 240.146 47.1109 236.332 47.1109H194.218C190.404 47.1109 186.937 49.3951 185.448 52.9029L160.302 111.435C158.222 116.289 160.465 121.897 165.319 123.977C166.543 124.507 167.828 124.752 169.092 124.752C172.804 124.752 176.312 122.59 177.882 118.96L189.119 92.7942C189.935 90.8976 192.75 91.489 192.75 93.5488V110.313L177.352 167.193C176.679 169.661 178.555 172.108 181.104 172.108H186.407C189.099 172.108 191.281 174.29 191.281 176.982V209.899C191.281 214.895 194.932 219.341 199.888 219.81C205.578 220.361 210.37 215.894 210.37 210.306V176.982C210.37 174.29 212.553 172.108 215.245 172.108C217.937 172.108 220.119 174.29 220.119 176.982V209.899C220.119 214.895 223.769 219.341 228.725 219.81C234.415 220.361 239.208 215.894 239.208 210.306V176.982C239.208 174.29 241.39 172.108 244.082 172.108H249.385C251.954 172.108 253.81 169.681 253.137 167.193L237.74 110.313V93.5284C237.74 91.4686 240.554 90.8976 241.37 92.7739L252.444 118.573C254.422 123.161 259.521 125.813 264.273 124.283C269.718 122.529 272.369 116.533 270.167 111.414L270.228 111.435Z" fill="#E7E7E7"/>
</g>
<mask id="mask1_1385_30658" style="mask-type:luminance" maskUnits="userSpaceOnUse" x="159" y="0" width="112" height="220">
<path d="M215.265 44.7044C227.604 44.7044 237.617 34.6908 237.617 22.3522C237.617 10.0136 227.604 0 215.265 0C202.926 0 192.913 10.0136 192.913 22.3522C192.913 34.6908 202.926 44.7044 215.265 44.7044ZM270.228 111.435L245.102 52.9029C243.593 49.3951 240.146 47.1109 236.332 47.1109H194.218C190.404 47.1109 186.937 49.3951 185.448 52.9029L160.302 111.435C158.222 116.289 160.465 121.897 165.319 123.977C166.543 124.507 167.828 124.752 169.092 124.752C172.804 124.752 176.312 122.59 177.882 118.96L189.119 92.7942C189.935 90.8976 192.75 91.489 192.75 93.5488V110.313L177.352 167.193C176.679 169.661 178.555 172.108 181.104 172.108H186.407C189.099 172.108 191.281 174.29 191.281 176.982V209.899C191.281 214.895 194.932 219.341 199.888 219.81C205.578 220.361 210.37 215.894 210.37 210.306V176.982C210.37 174.29 212.553 172.108 215.245 172.108C217.937 172.108 220.119 174.29 220.119 176.982V209.899C220.119 214.895 223.769 219.341 228.725 219.81C234.415 220.361 239.208 215.894 239.208 210.306V176.982C239.208 174.29 241.39 172.108 244.082 172.108H249.385C251.954 172.108 253.81 169.681 253.137 167.193L237.74 110.313V93.5284C237.74 91.4686 240.554 90.8976 241.37 92.7739L252.444 118.573C254.422 123.161 259.521 125.813 264.273 124.283C269.718 122.529 272.369 116.533 270.167 111.414L270.228 111.435Z" fill="white"/>
</mask>
<g mask="url(#mask1_1385_30658)">
<path d="M271.003 103.868H155V219.871H271.003V103.868Z" fill="url(#paint1_linear_1385_30658)"/>
</g>
<path d="M210.58 88.388C210.404 87.5 209.856 87.056 208.936 87.056C208.224 87.056 207.692 87.332 207.34 87.884C206.988 88.428 206.816 89.328 206.824 90.584C207.008 90.168 207.312 89.844 207.736 89.612C208.168 89.372 208.648 89.252 209.176 89.252C210 89.252 210.656 89.508 211.144 90.02C211.64 90.532 211.888 91.24 211.888 92.144C211.888 92.688 211.78 93.176 211.564 93.608C211.356 94.04 211.036 94.384 210.604 94.64C210.18 94.896 209.664 95.024 209.056 95.024C208.232 95.024 207.588 94.84 207.124 94.472C206.66 94.104 206.336 93.596 206.152 92.948C205.968 92.3 205.876 91.5 205.876 90.548C205.876 87.612 206.9 86.144 208.948 86.144C209.732 86.144 210.348 86.356 210.796 86.78C211.244 87.204 211.508 87.74 211.588 88.388H210.58ZM208.948 90.176C208.604 90.176 208.28 90.248 207.976 90.392C207.672 90.528 207.424 90.74 207.232 91.028C207.048 91.308 206.956 91.652 206.956 92.06C206.956 92.668 207.132 93.164 207.484 93.548C207.836 93.924 208.34 94.112 208.996 94.112C209.556 94.112 210 93.94 210.328 93.596C210.664 93.244 210.832 92.772 210.832 92.18C210.832 91.556 210.672 91.068 210.352 90.716C210.032 90.356 209.564 90.176 208.948 90.176ZM213.361 90.572C213.361 89.196 213.585 88.124 214.033 87.356C214.481 86.58 215.265 86.192 216.385 86.192C217.497 86.192 218.277 86.58 218.725 87.356C219.173 88.124 219.397 89.196 219.397 90.572C219.397 91.972 219.173 93.06 218.725 93.836C218.277 94.612 217.497 95 216.385 95C215.265 95 214.481 94.612 214.033 93.836C213.585 93.06 213.361 91.972 213.361 90.572ZM218.317 90.572C218.317 89.876 218.269 89.288 218.173 88.808C218.085 88.32 217.897 87.928 217.609 87.632C217.329 87.336 216.921 87.188 216.385 87.188C215.841 87.188 215.425 87.336 215.137 87.632C214.857 87.928 214.669 88.32 214.573 88.808C214.485 89.288 214.441 89.876 214.441 90.572C214.441 91.292 214.485 91.896 214.573 92.384C214.669 92.872 214.857 93.264 215.137 93.56C215.425 93.856 215.841 94.004 216.385 94.004C216.921 94.004 217.329 93.856 217.609 93.56C217.897 93.264 218.085 92.872 218.173 92.384C218.269 91.896 218.317 91.292 218.317 90.572ZM220.656 88.28C220.656 87.736 220.82 87.304 221.148 86.984C221.476 86.656 221.896 86.492 222.408 86.492C222.92 86.492 223.34 86.656 223.668 86.984C223.996 87.304 224.16 87.736 224.16 88.28C224.16 88.832 223.996 89.272 223.668 89.6C223.34 89.92 222.92 90.08 222.408 90.08C221.896 90.08 221.476 89.92 221.148 89.6C220.82 89.272 220.656 88.832 220.656 88.28ZM227.664 86.624L222.804 95H221.724L226.584 86.624H227.664ZM222.408 87.164C222.136 87.164 221.92 87.26 221.76 87.452C221.608 87.636 221.532 87.912 221.532 88.28C221.532 88.648 221.608 88.928 221.76 89.12C221.92 89.312 222.136 89.408 222.408 89.408C222.68 89.408 222.896 89.312 223.056 89.12C223.216 88.92 223.296 88.64 223.296 88.28C223.296 87.912 223.216 87.636 223.056 87.452C222.896 87.26 222.68 87.164 222.408 87.164ZM225.252 93.344C225.252 92.792 225.416 92.356 225.744 92.036C226.072 91.708 226.492 91.544 227.004 91.544C227.516 91.544 227.932 91.708 228.252 92.036C228.58 92.356 228.744 92.792 228.744 93.344C228.744 93.888 228.58 94.324 228.252 94.652C227.932 94.98 227.516 95.144 227.004 95.144C226.492 95.144 226.072 94.984 225.744 94.664C225.416 94.336 225.252 93.896 225.252 93.344ZM226.992 92.228C226.72 92.228 226.504 92.324 226.344 92.516C226.184 92.7 226.104 92.976 226.104 93.344C226.104 93.704 226.184 93.98 226.344 94.172C226.504 94.356 226.72 94.448 226.992 94.448C227.264 94.448 227.48 94.356 227.64 94.172C227.8 93.98 227.88 93.704 227.88 93.344C227.88 92.976 227.8 92.7 227.64 92.516C227.48 92.324 227.264 92.228 226.992 92.228Z" fill="black"/>
<path d="M195.652 238.636V239.524H192.016V242.344H194.968V243.232H192.016V247H190.924V238.636H195.652ZM202.971 243.46C202.971 243.668 202.959 243.888 202.935 244.12H197.679C197.719 244.768 197.939 245.276 198.339 245.644C198.747 246.004 199.239 246.184 199.815 246.184C200.287 246.184 200.679 246.076 200.991 245.86C201.311 245.636 201.535 245.34 201.663 244.972H202.839C202.663 245.604 202.311 246.12 201.783 246.52C201.255 246.912 200.599 247.108 199.815 247.108C199.191 247.108 198.631 246.968 198.135 246.688C197.647 246.408 197.263 246.012 196.983 245.5C196.703 244.98 196.563 244.38 196.563 243.7C196.563 243.02 196.699 242.424 196.971 241.912C197.243 241.4 197.623 241.008 198.111 240.736C198.607 240.456 199.175 240.316 199.815 240.316C200.439 240.316 200.991 240.452 201.471 240.724C201.951 240.996 202.319 241.372 202.575 241.852C202.839 242.324 202.971 242.86 202.971 243.46ZM201.843 243.232C201.843 242.816 201.751 242.46 201.567 242.164C201.383 241.86 201.131 241.632 200.811 241.48C200.499 241.32 200.151 241.24 199.767 241.24C199.215 241.24 198.743 241.416 198.351 241.768C197.967 242.12 197.747 242.608 197.691 243.232H201.843ZM212.32 240.304C212.832 240.304 213.288 240.412 213.688 240.628C214.088 240.836 214.404 241.152 214.636 241.576C214.868 242 214.984 242.516 214.984 243.124V247H213.904V243.28C213.904 242.624 213.74 242.124 213.412 241.78C213.092 241.428 212.656 241.252 212.104 241.252C211.536 241.252 211.084 241.436 210.748 241.804C210.412 242.164 210.244 242.688 210.244 243.376V247H209.164V243.28C209.164 242.624 209 242.124 208.672 241.78C208.352 241.428 207.916 241.252 207.364 241.252C206.796 241.252 206.344 241.436 206.008 241.804C205.672 242.164 205.504 242.688 205.504 243.376V247H204.412V240.424H205.504V241.372C205.72 241.028 206.008 240.764 206.368 240.58C206.736 240.396 207.14 240.304 207.58 240.304C208.132 240.304 208.62 240.428 209.044 240.676C209.468 240.924 209.784 241.288 209.992 241.768C210.176 241.304 210.48 240.944 210.904 240.688C211.328 240.432 211.8 240.304 212.32 240.304ZM216.368 243.688C216.368 243.016 216.504 242.428 216.776 241.924C217.048 241.412 217.42 241.016 217.892 240.736C218.372 240.456 218.904 240.316 219.488 240.316C220.064 240.316 220.564 240.44 220.988 240.688C221.412 240.936 221.728 241.248 221.936 241.624V240.424H223.04V247H221.936V245.776C221.72 246.16 221.396 246.48 220.964 246.736C220.54 246.984 220.044 247.108 219.476 247.108C218.892 247.108 218.364 246.964 217.892 246.676C217.42 246.388 217.048 245.984 216.776 245.464C216.504 244.944 216.368 244.352 216.368 243.688ZM221.936 243.7C221.936 243.204 221.836 242.772 221.636 242.404C221.436 242.036 221.164 241.756 220.82 241.564C220.484 241.364 220.112 241.264 219.704 241.264C219.296 241.264 218.924 241.36 218.588 241.552C218.252 241.744 217.984 242.024 217.784 242.392C217.584 242.76 217.484 243.192 217.484 243.688C217.484 244.192 217.584 244.632 217.784 245.008C217.984 245.376 218.252 245.66 218.588 245.86C218.924 246.052 219.296 246.148 219.704 246.148C220.112 246.148 220.484 246.052 220.82 245.86C221.164 245.66 221.436 245.376 221.636 245.008C221.836 244.632 221.936 244.196 221.936 243.7ZM225.977 238.12V247H224.885V238.12H225.977ZM233.838 243.46C233.838 243.668 233.826 243.888 233.802 244.12H228.546C228.586 244.768 228.806 245.276 229.206 245.644C229.614 246.004 230.106 246.184 230.682 246.184C231.154 246.184 231.546 246.076 231.858 245.86C232.178 245.636 232.402 245.34 232.53 244.972H233.706C233.53 245.604 233.178 246.12 232.65 246.52C232.122 246.912 231.466 247.108 230.682 247.108C230.058 247.108 229.498 246.968 229.002 246.688C228.514 246.408 228.13 246.012 227.85 245.5C227.57 244.98 227.43 244.38 227.43 243.7C227.43 243.02 227.566 242.424 227.838 241.912C228.11 241.4 228.49 241.008 228.978 240.736C229.474 240.456 230.042 240.316 230.682 240.316C231.306 240.316 231.858 240.452 232.338 240.724C232.818 240.996 233.186 241.372 233.442 241.852C233.706 242.324 233.838 242.86 233.838 243.46ZM232.71 243.232C232.71 242.816 232.618 242.46 232.434 242.164C232.25 241.86 231.998 241.632 231.678 241.48C231.366 241.32 231.018 241.24 230.634 241.24C230.082 241.24 229.61 241.416 229.218 241.768C228.834 242.12 228.614 242.608 228.558 243.232H232.71Z" fill="black"/>
<defs>
<linearGradient id="paint0_linear_1385_30658" x1="-0.775405" y1="101.401" x2="138.844" y2="241.041" gradientUnits="userSpaceOnUse">
<stop stop-color="#3887FE"/>
<stop offset="1" stop-color="#425197"/>
</linearGradient>
<linearGradient id="paint1_linear_1385_30658" x1="146.72" y1="95.5883" x2="285.707" y2="234.576" gradientUnits="userSpaceOnUse">
<stop stop-color="#FFBF0B"/>
<stop offset="1" stop-color="#D77709"/>
</linearGradient>
<clipPath id="clip0_1385_30658">
<rect width="130.463" height="219.871" fill="white"/>
</clipPath>
<clipPath id="clip1_1385_30658">
<rect width="116.003" height="219.871" fill="white" transform="translate(155)"/>
</clipPath>
</defs>
</svg>
