<svg width="680" height="324" viewBox="0 0 680 324" fill="none" xmlns="http://www.w3.org/2000/svg">
<g clip-path="url(#clip0_1621_43058)">
<path d="M663.492 25.3606H11.5988V27.012H663.492V25.3606Z" fill="#E6E7E8"/>
<path d="M663.492 61.0706H11.5988V62.722H663.492V61.0706Z" fill="#E6E7E8"/>
<path d="M663.492 96.7866H11.5988V98.4381H663.492V96.7866Z" fill="#E6E7E8"/>
<path d="M663.492 132.503H11.5988V134.154H663.492V132.503Z" fill="#E6E7E8"/>
<path d="M663.492 168.219H11.5988V169.87H663.492V168.219Z" fill="#E6E7E8"/>
<path d="M663.492 203.929H11.5988V205.58H663.492V203.929Z" fill="#E6E7E8"/>
<path d="M663.492 239.645H11.5988V241.296H663.492V239.645Z" fill="#E6E7E8"/>
<path d="M663.492 275.361H11.5988V277.013H663.492V275.361Z" fill="#E6E7E8"/>
<path d="M121.027 15.6982H119.376V312.768H121.027V15.6982Z" fill="#E6E7E8"/>
<path d="M228.221 15.6982H226.57V312.768H228.221V15.6982Z" fill="#E6E7E8"/>
<path d="M335.402 15.6982H333.75V312.768H335.402V15.6982Z" fill="#E6E7E8"/>
<path d="M442.589 15.6982H440.938V312.768H442.589V15.6982Z" fill="#E6E7E8"/>
<path d="M549.777 15.6982H548.125V312.768H549.777V15.6982Z" fill="#E6E7E8"/>
<path d="M655.462 15.6982H653.81V312.768H655.462V15.6982Z" fill="#E6E7E8"/>
<path d="M674.107 314.393H11.6377V313.571L10.7893 5.89979L12.4408 5.89331L13.2891 312.748H674.107V314.393Z" fill="#BDBDB0"/>
<path d="M5.41411 6.22366C5.40116 2.79776 8.17297 0.0065214 11.5989 4.52095e-05C15.0248 -0.0129072 17.8095 2.7589 17.8225 6.19128C17.829 9.61719 15.0636 12.402 11.6377 12.4149C8.21182 12.4214 5.42706 9.65604 5.41411 6.22366Z" fill="#BDBDB0"/>
<path d="M677.406 318.628C680.194 316.636 680.84 312.762 678.848 309.973C676.856 307.185 672.981 306.54 670.193 308.531C667.405 310.523 666.759 314.398 668.751 317.186C670.743 319.974 674.618 320.62 677.406 318.628Z" fill="#BDBDB0"/>
<path d="M73.1551 311.9L120.205 204.758L158.699 276.183L227.392 235.474L334.579 311.9" stroke="#00AAE1" stroke-width="1.29524" stroke-miterlimit="10"/>
<path d="M77.2804 311.9C77.2804 314.179 75.4347 316.025 73.1551 316.025C70.8754 316.025 69.0297 314.179 69.0297 311.9C69.0297 309.62 70.8754 307.774 73.1551 307.774C75.4347 307.774 77.2804 309.62 77.2804 311.9Z" fill="#00AAE1"/>
<path d="M124.33 311.9C124.33 314.179 122.484 316.025 120.205 316.025C117.925 316.025 116.079 314.179 116.079 311.9C116.079 309.62 117.925 307.774 120.205 307.774C122.484 307.774 124.33 309.62 124.33 311.9Z" fill="#00AA87"/>
<path d="M231.517 311.9C231.517 314.179 229.672 316.025 227.392 316.025C225.112 316.025 223.267 314.179 223.267 311.9C223.267 309.62 225.112 307.774 227.392 307.774C229.672 307.774 231.517 309.62 231.517 311.9Z" fill="#0A62A5"/>
<path d="M338.705 133.325C338.705 135.605 336.859 137.451 334.579 137.451C332.3 137.451 330.454 135.605 330.454 133.325C330.454 131.046 332.3 129.2 334.579 129.2C336.859 129.2 338.705 131.046 338.705 133.325Z" fill="#0A62A5"/>
<path d="M421.38 311.9C421.38 314.179 419.534 316.025 417.254 316.025C414.975 316.025 413.129 314.179 413.129 311.9C413.129 309.62 414.975 307.774 417.254 307.774C419.534 307.774 421.38 309.62 421.38 311.9Z" fill="#0A62A5"/>
<path d="M150.72 133.325C150.72 135.605 148.875 137.451 146.595 137.451C144.315 137.451 142.47 135.605 142.47 133.325C142.47 131.046 144.315 129.2 146.595 129.2C148.875 129.2 150.72 131.046 150.72 133.325Z" fill="#00AA87"/>
<path d="M231.517 97.6158C231.517 99.8954 229.672 101.741 227.392 101.741C225.112 101.741 223.267 99.8954 223.267 97.6158C223.267 95.3362 225.112 93.4905 227.392 93.4905C229.672 93.4905 231.517 95.3362 231.517 97.6158Z" fill="#00AA87"/>
<path d="M338.705 240.474C338.705 242.754 336.859 244.599 334.579 244.599C332.3 244.599 330.454 242.754 330.454 240.474C330.454 238.194 332.3 236.349 334.579 236.349C336.859 236.349 338.705 238.194 338.705 240.474Z" fill="#00AA87"/>
<path d="M391.674 311.9C391.674 314.179 389.828 316.025 387.548 316.025C385.269 316.025 383.423 314.179 383.423 311.9C383.423 309.62 385.269 307.774 387.548 307.774C389.828 307.774 391.674 309.62 391.674 311.9Z" fill="#00AA87"/>
<path d="M370.218 311.9C370.218 314.179 368.372 316.025 366.093 316.025C363.813 316.025 361.967 314.179 361.967 311.9C361.967 309.62 363.813 307.774 366.093 307.774C368.372 307.774 370.218 309.62 370.218 311.9Z" fill="#8CD26E"/>
<path d="M445.892 133.325C445.892 135.605 444.046 137.451 441.767 137.451C439.487 137.451 437.642 135.605 437.642 133.325C437.642 131.046 439.487 129.2 441.767 129.2C444.046 129.2 445.892 131.046 445.892 133.325Z" fill="#8CD26E"/>
<path d="M500.603 204.758C500.603 207.038 498.757 208.883 496.478 208.883C494.198 208.883 492.352 207.038 492.352 204.758C492.352 202.478 494.198 200.633 496.478 200.633C498.757 200.633 500.603 202.478 500.603 204.758Z" fill="#8CD26E"/>
<path d="M553.086 169.042C553.086 171.321 551.24 173.167 548.961 173.167C546.681 173.167 544.835 171.321 544.835 169.042C544.835 166.762 546.681 164.916 548.961 164.916C551.24 164.916 553.086 166.762 553.086 169.042Z" fill="#8CD26E"/>
<path d="M604.572 311.9C604.572 314.179 602.726 316.025 600.446 316.025C598.167 316.025 596.321 314.179 596.321 311.9C596.321 309.62 598.167 307.774 600.446 307.774C602.726 307.774 604.572 309.62 604.572 311.9Z" fill="#8CD26E"/>
<path d="M124.33 204.758C124.33 207.038 122.484 208.883 120.205 208.883C117.925 208.883 116.079 207.038 116.079 204.758C116.079 202.478 117.925 200.633 120.205 200.633C122.484 200.633 124.33 202.478 124.33 204.758Z" fill="#00AAE1"/>
<path d="M162.824 276.184C162.824 278.463 160.979 280.309 158.699 280.309C156.419 280.309 154.574 278.463 154.574 276.184C154.574 273.904 156.419 272.058 158.699 272.058C160.979 272.058 162.824 273.904 162.824 276.184Z" fill="#00AAE1"/>
<path d="M231.517 235.474C231.517 237.754 229.672 239.6 227.392 239.6C225.112 239.6 223.267 237.754 223.267 235.474C223.267 233.195 225.112 231.349 227.392 231.349C229.672 231.349 231.517 233.195 231.517 235.474Z" fill="#00AAE1"/>
<path d="M338.705 311.9C338.705 314.179 336.859 316.025 334.579 316.025C332.3 316.025 330.454 314.179 330.454 311.9C330.454 309.62 332.3 307.774 334.579 307.774C336.859 307.774 338.705 309.62 338.705 311.9Z" fill="#00AAE1"/>
<path d="M120.205 311.9L146.595 133.325L227.392 97.6157L387.548 311.9" stroke="#00AA87" stroke-width="1.29524" stroke-miterlimit="10"/>
<path d="M227.392 311.9L334.579 133.325L417.254 311.9" stroke="#0A62A5" stroke-width="1.29524" stroke-miterlimit="10"/>
<path d="M366.093 311.9L441.767 133.325L496.471 204.758L548.961 166.542L600.446 311.9" stroke="#8CD26E" stroke-width="1.29524" stroke-miterlimit="10"/>
<path d="M6.65106 319.166C6.65106 320.992 5.97106 321.996 4.78592 321.996C3.73678 321.996 3.03087 321.018 3.01144 319.237C3.01144 317.437 3.78859 316.446 4.87659 316.446C5.96459 316.446 6.65106 317.456 6.65106 319.166ZM3.73678 319.25C3.73678 320.649 4.16421 321.439 4.82478 321.439C5.56954 321.439 5.92573 320.571 5.92573 319.198C5.92573 317.825 5.58897 317.009 4.83773 317.009C4.20306 317.009 3.74325 317.787 3.74325 319.25H3.73678Z" fill="#6D6E71"/>
<path d="M116.947 318.804H116.934L116.053 319.309L115.924 318.752L117.031 318.124H117.621V323.492H116.954V318.804H116.947Z" fill="#6D6E71"/>
<path d="M122.491 318.739H120.554L120.36 320.118C120.477 320.105 120.587 320.086 120.775 320.086C121.163 320.086 121.558 320.176 121.869 320.377C122.264 320.617 122.594 321.077 122.594 321.757C122.594 322.806 121.804 323.589 120.703 323.589C120.146 323.589 119.68 323.427 119.44 323.259L119.615 322.709C119.822 322.838 120.237 323.006 120.697 323.006C121.344 323.006 121.901 322.56 121.901 321.841C121.895 321.148 121.454 320.649 120.444 320.649C120.153 320.649 119.926 320.681 119.738 320.707L120.069 318.13H122.497V318.739H122.491Z" fill="#6D6E71"/>
<path d="M223.526 322.378C223.72 322.501 224.16 322.689 224.633 322.689C225.501 322.689 225.773 322.139 225.766 321.724C225.76 321.025 225.132 320.727 224.478 320.727H224.102V320.222H224.478C224.97 320.222 225.592 319.969 225.592 319.373C225.592 318.972 225.339 318.622 224.717 318.622C224.316 318.622 223.934 318.797 223.72 318.952L223.545 318.46C223.804 318.266 224.316 318.078 224.853 318.078C225.838 318.078 226.285 318.661 226.285 319.27C226.285 319.781 225.974 320.222 225.365 320.442V320.455C225.98 320.578 226.479 321.038 226.479 321.737C226.479 322.54 225.857 323.233 224.659 323.233C224.096 323.233 223.61 323.058 223.364 322.896L223.545 322.372L223.526 322.378Z" fill="#6D6E71"/>
<path d="M230.624 320.604C230.624 322.301 229.995 323.24 228.888 323.24C227.91 323.24 227.25 322.327 227.237 320.675C227.237 318.998 227.962 318.078 228.972 318.078C229.983 318.078 230.624 319.017 230.624 320.604ZM227.91 320.682C227.91 321.983 228.312 322.715 228.927 322.715C229.613 322.715 229.95 321.912 229.95 320.636C229.95 319.36 229.633 318.603 228.933 318.603C228.344 318.603 227.91 319.322 227.91 320.682Z" fill="#6D6E71"/>
<path d="M333.103 323.149V321.789H330.784V321.342L333.012 318.156H333.744V321.258H334.443V321.789H333.744V323.149H333.103ZM333.103 321.258V319.593C333.103 319.328 333.109 319.069 333.129 318.81H333.103C332.947 319.101 332.824 319.315 332.688 319.548L331.464 321.245V321.258H333.103Z" fill="#6D6E71"/>
<path d="M337.934 318.725H336.03L335.836 320.008C335.952 319.988 336.056 319.975 336.244 319.975C336.626 319.975 337.014 320.06 337.319 320.247C337.707 320.468 338.031 320.901 338.031 321.53C338.031 322.508 337.254 323.233 336.173 323.233C335.629 323.233 335.169 323.077 334.929 322.928L335.098 322.41C335.305 322.533 335.713 322.689 336.166 322.689C336.801 322.689 337.351 322.274 337.351 321.607C337.345 320.96 336.911 320.5 335.914 320.5C335.629 320.5 335.408 320.532 335.221 320.552L335.544 318.156H337.934V318.725Z" fill="#6D6E71"/>
<path d="M439.902 318.292C439.753 318.285 439.565 318.292 439.358 318.324C438.218 318.512 437.616 319.347 437.493 320.235H437.518C437.778 319.898 438.218 319.613 438.814 319.613C439.766 319.613 440.433 320.299 440.433 321.348C440.433 322.333 439.766 323.24 438.652 323.24C437.538 323.24 436.754 322.346 436.754 320.953C436.754 319.898 437.136 319.062 437.661 318.531C438.108 318.097 438.704 317.819 439.377 317.741C439.591 317.709 439.772 317.702 439.908 317.702V318.298L439.902 318.292ZM439.694 321.387C439.694 320.623 439.254 320.157 438.587 320.157C438.147 320.157 437.745 320.429 437.544 320.817C437.493 320.902 437.46 321.005 437.46 321.141C437.48 322.022 437.881 322.676 438.645 322.676C439.274 322.676 439.694 322.158 439.694 321.387Z" fill="#6D6E71"/>
<path d="M444.636 320.409C444.636 322.236 443.962 323.246 442.771 323.246C441.722 323.246 441.009 322.262 440.996 320.487C440.996 318.687 441.773 317.696 442.861 317.696C443.949 317.696 444.636 318.706 444.636 320.416V320.409ZM441.722 320.494C441.722 321.892 442.149 322.682 442.81 322.682C443.554 322.682 443.91 321.815 443.91 320.442C443.91 319.069 443.574 318.253 442.822 318.253C442.188 318.253 441.722 319.03 441.722 320.494Z" fill="#6D6E71"/>
<path d="M544.738 321.789C544.738 321.109 545.14 320.636 545.8 320.351V320.325C545.198 320.047 544.939 319.581 544.939 319.121C544.939 318.266 545.658 317.689 546.597 317.689C547.64 317.689 548.158 318.344 548.158 319.011C548.158 319.464 547.931 319.956 547.27 320.267V320.293C547.937 320.558 548.352 321.025 548.352 321.679C548.352 322.611 547.549 323.24 546.526 323.24C545.405 323.24 544.725 322.573 544.725 321.782L544.738 321.789ZM547.627 321.756C547.627 321.102 547.173 320.792 546.448 320.584C545.82 320.766 545.483 321.18 545.483 321.692C545.457 322.236 545.872 322.715 546.558 322.715C547.245 322.715 547.633 322.313 547.633 321.756H547.627ZM545.632 319.069C545.632 319.606 546.033 319.898 546.655 320.06C547.115 319.904 547.471 319.574 547.471 319.082C547.471 318.654 547.219 318.208 546.565 318.208C545.962 318.208 545.632 318.603 545.632 319.069Z" fill="#6D6E71"/>
<path d="M552.238 318.395H550.191L549.984 319.775C550.107 319.755 550.224 319.742 550.424 319.742C550.839 319.742 551.253 319.833 551.584 320.034C552.005 320.273 552.354 320.733 552.354 321.413C552.354 322.462 551.519 323.246 550.353 323.246C549.764 323.246 549.272 323.084 549.013 322.916L549.194 322.365C549.414 322.495 549.854 322.663 550.34 322.663C551.027 322.663 551.61 322.216 551.61 321.497C551.603 320.804 551.137 320.306 550.068 320.306C549.764 320.306 549.524 320.338 549.323 320.364L549.673 317.786H552.244V318.395H552.238Z" fill="#6D6E71"/>
<path d="M649.627 318.46H649.607L648.675 318.965L648.532 318.408L649.704 317.78H650.326V323.149H649.627V318.46Z" fill="#6D6E71"/>
<path d="M655.85 320.409C655.85 322.236 655.177 323.246 653.985 323.246C652.936 323.246 652.224 322.262 652.211 320.487C652.211 318.687 652.988 317.696 654.076 317.696C655.164 317.696 655.85 318.706 655.85 320.416V320.409ZM652.936 320.494C652.936 321.892 653.363 322.682 654.024 322.682C654.769 322.682 655.125 321.815 655.125 320.442C655.125 319.069 654.788 318.253 654.037 318.253C653.402 318.253 652.936 319.03 652.936 320.494Z" fill="#6D6E71"/>
<path d="M660.086 320.409C660.086 322.236 659.406 323.246 658.221 323.246C657.171 323.246 656.459 322.262 656.446 320.487C656.446 318.687 657.223 317.696 658.311 317.696C659.399 317.696 660.086 318.706 660.086 320.416V320.409ZM657.171 320.494C657.171 321.892 657.605 322.682 658.266 322.682C659.011 322.682 659.367 321.815 659.367 320.442C659.367 319.069 659.024 318.253 658.272 318.253C657.638 318.253 657.171 319.03 657.171 320.494Z" fill="#6D6E71"/>
<path d="M2.04644 238.46H2.02701L1.09444 238.965L0.951965 238.408L2.12416 237.78H2.74587V243.149H2.04644V238.453V238.46Z" fill="#6D6E71"/>
<path d="M8.27005 240.409C8.27005 242.236 7.59005 243.239 6.40491 243.239C5.35577 243.239 4.64338 242.261 4.63043 240.48C4.63043 238.68 5.40757 237.689 6.49557 237.689C7.58357 237.689 8.27005 238.7 8.27005 240.409ZM5.35577 240.493C5.35577 241.892 5.78319 242.682 6.44377 242.682C7.18853 242.682 7.54472 241.815 7.54472 240.442C7.54472 239.069 7.20796 238.253 6.45672 238.253C5.82205 238.253 5.36224 239.03 5.36224 240.493H5.35577Z" fill="#6D6E71"/>
<path d="M2.04644 202.284H2.02701L1.09444 202.789L0.951965 202.232L2.12416 201.604H2.74587V206.973H2.04644V202.284Z" fill="#6D6E71"/>
<path d="M7.90743 202.219H5.86095L5.65372 203.599C5.77676 203.579 5.89334 203.566 6.0941 203.566C6.50857 203.566 6.91657 203.657 7.24686 203.858C7.66781 204.097 8.01753 204.557 8.01753 205.237C8.01753 206.286 7.1821 207.07 6.01638 207.07C5.42705 207.07 4.93486 206.908 4.67581 206.74L4.85715 206.189C5.07734 206.319 5.51772 206.487 6.00343 206.487C6.68991 206.487 7.27924 206.04 7.27924 205.321C7.26629 204.628 6.80648 204.13 5.73143 204.13C5.42705 204.13 5.18743 204.162 4.98667 204.188L5.33638 201.61H7.90743V202.219Z" fill="#6D6E71"/>
<path d="M7.90743 273.736H5.86095L5.65372 275.115C5.77676 275.096 5.89334 275.083 6.0941 275.083C6.50857 275.083 6.91657 275.173 7.24686 275.374C7.66781 275.614 8.01753 276.074 8.01753 276.754C8.01753 277.803 7.1821 278.586 6.01638 278.586C5.42705 278.586 4.93486 278.424 4.67581 278.256L4.85715 277.706C5.07734 277.835 5.51772 278.004 6.00343 278.004C6.68991 278.004 7.27924 277.557 7.27924 276.838C7.26629 276.145 6.80648 275.646 5.73143 275.646C5.42705 275.646 5.18743 275.679 4.98667 275.704L5.33638 273.127H7.90743V273.736Z" fill="#6D6E71"/>
<path d="M0 171.334V170.887L0.569905 170.337C1.94286 169.028 2.5581 168.335 2.57105 167.526C2.57105 166.982 2.30552 166.477 1.50895 166.477C1.02324 166.477 0.615238 166.723 0.369143 166.93L0.136 166.419C0.511619 166.101 1.03619 165.875 1.6579 165.875C2.81067 165.875 3.30286 166.665 3.30286 167.435C3.30286 168.426 2.584 169.229 1.45067 170.317L1.02324 170.712V170.732H3.43886V171.334H0Z" fill="#6D6E71"/>
<path d="M7.79733 168.588C7.79733 170.414 7.12381 171.425 5.93219 171.425C4.88305 171.425 4.17067 170.44 4.15771 168.666C4.15771 166.865 4.93486 165.875 6.02286 165.875C7.11086 165.875 7.79733 166.885 7.79733 168.594V168.588ZM4.88305 168.672C4.88305 170.071 5.31048 170.861 5.97105 170.861C6.71581 170.861 7.072 169.993 7.072 168.62C7.072 167.247 6.73524 166.431 5.984 166.431C5.34933 166.431 4.88952 167.209 4.88952 168.672H4.88305Z" fill="#6D6E71"/>
<path d="M0 135.987V135.54L0.569905 134.99C1.94286 133.681 2.5581 132.989 2.57105 132.179C2.57105 131.635 2.30552 131.13 1.50895 131.13C1.02324 131.13 0.615238 131.376 0.369143 131.583L0.136 131.072C0.511619 130.761 1.03619 130.528 1.6579 130.528C2.81067 130.528 3.30286 131.318 3.30286 132.088C3.30286 133.079 2.584 133.882 1.45067 134.97L1.02324 135.365V135.385H3.43886V135.987H0Z" fill="#6D6E71"/>
<path d="M7.43465 131.227H5.38818L5.18094 132.606C5.30399 132.593 5.42056 132.574 5.62132 132.574C6.0358 132.574 6.4438 132.665 6.77408 132.865C7.19503 133.105 7.54475 133.565 7.54475 134.245C7.54475 135.294 6.70932 136.078 5.54361 136.078C4.95427 136.078 4.46208 135.916 4.20303 135.747L4.38437 135.197C4.60456 135.326 5.04494 135.495 5.53065 135.495C6.21713 135.495 6.80646 135.048 6.80646 134.329C6.79999 133.636 6.3337 133.137 5.25865 133.137C4.95427 133.137 4.71465 133.17 4.51389 133.196L4.85713 130.618H7.42818V131.227H7.43465Z" fill="#6D6E71"/>
<path d="M0.641148 99.2604C0.848386 99.3899 1.32762 99.5971 1.83277 99.5971C2.76534 99.5971 3.05677 99.0013 3.04381 98.5545C3.03734 97.8032 2.35734 97.4794 1.65791 97.4794H1.25639V96.9354H1.65791C2.18896 96.9354 2.85601 96.6634 2.85601 96.0287C2.85601 95.6013 2.58401 95.2192 1.91696 95.2192C1.48953 95.2192 1.07505 95.407 0.84191 95.5754L0.654101 95.0444C0.932577 94.8371 1.48305 94.6299 2.05943 94.6299C3.11505 94.6299 3.59429 95.2581 3.59429 95.9122C3.59429 96.4627 3.26401 96.9354 2.60343 97.175V97.188C3.26401 97.3175 3.80153 97.8162 3.80153 98.5674C3.80153 99.4287 3.13448 100.18 1.84572 100.18C1.24343 100.18 0.712386 99.9922 0.453339 99.8173L0.654101 99.2539L0.641148 99.2604Z" fill="#6D6E71"/>
<path d="M8.27014 97.3565C8.27014 99.1828 7.59014 100.187 6.405 100.187C5.35586 100.187 4.64348 99.2022 4.63052 97.4277C4.63052 95.6273 5.40767 94.6365 6.49567 94.6365C7.58367 94.6365 8.27014 95.6468 8.27014 97.3565ZM5.35586 97.4407C5.35586 98.8395 5.78329 99.6296 6.44386 99.6296C7.18862 99.6296 7.54481 98.7618 7.54481 97.3889C7.54481 96.0159 7.20805 95.1999 6.45681 95.1999C5.82214 95.1999 5.36233 95.977 5.36233 97.4407H5.35586Z" fill="#6D6E71"/>
<path d="M0.641148 63.6608C0.848386 63.7903 1.32762 63.9975 1.83277 63.9975C2.76534 63.9975 3.05677 63.4017 3.04381 62.9548C3.03734 62.2036 2.35734 61.8798 1.65791 61.8798H1.25639V61.3358H1.65791C2.18896 61.3358 2.85601 61.0638 2.85601 60.4291C2.85601 60.0017 2.58401 59.6196 1.91696 59.6196C1.48953 59.6196 1.07505 59.8074 0.84191 59.9758L0.654101 59.4447C0.932577 59.2375 1.48305 59.0303 2.05943 59.0303C3.11505 59.0303 3.59429 59.6585 3.59429 60.3126C3.59429 60.863 3.26401 61.3358 2.60343 61.5754V61.5884C3.26401 61.7179 3.80153 62.2166 3.80153 62.9678C3.80153 63.8291 3.13448 64.5804 1.84572 64.5804C1.24343 64.5804 0.712386 64.3926 0.453339 64.2177L0.654101 63.6543L0.641148 63.6608Z" fill="#6D6E71"/>
<path d="M7.90746 59.7362H5.86099L5.65375 61.1156C5.77679 61.0962 5.89337 61.0832 6.09413 61.0832C6.5086 61.0832 6.9166 61.1739 7.24689 61.3747C7.66784 61.6143 8.01756 62.0741 8.01756 62.7541C8.01756 63.8033 7.18213 64.5869 6.01641 64.5869C5.42708 64.5869 4.93489 64.425 4.67584 64.2566L4.85718 63.7061C5.07737 63.8356 5.51775 64.004 6.00346 64.004C6.68994 64.004 7.27927 63.5572 7.27927 62.8383C7.26632 62.1453 6.80651 61.6467 5.73146 61.6467C5.42708 61.6467 5.18746 61.6791 4.9867 61.705L5.33641 59.1274H7.90746V59.7362Z" fill="#6D6E71"/>
<path d="M2.71358 28.8966V27.433H0.220245V26.9537L2.61644 23.5278H3.40005V26.8631H4.15129V27.433H3.40005V28.8966H2.71358ZM2.71358 26.8631V25.0692C2.71358 24.7907 2.72006 24.5057 2.73948 24.2273H2.71358C2.55167 24.5446 2.41567 24.7713 2.26672 25.0174L0.952055 26.8436V26.8631H2.71358Z" fill="#6D6E71"/>
<path d="M8.27014 26.1573C8.27014 27.9835 7.59014 28.9874 6.405 28.9874C5.35586 28.9874 4.64348 28.003 4.63052 26.2285C4.63052 24.4281 5.40767 23.4373 6.49567 23.4373C7.58367 23.4373 8.27014 24.4475 8.27014 26.1573ZM5.35586 26.2414C5.35586 27.6338 5.78329 28.4304 6.44386 28.4304C7.18862 28.4304 7.54481 27.5626 7.54481 26.1896C7.54481 24.8167 7.20805 24.0007 6.45681 24.0007C5.82214 24.0007 5.36233 24.7778 5.36233 26.2414H5.35586Z" fill="#6D6E71"/>
</g>
<defs>
<clipPath id="clip0_1621_43058">
<rect width="680" height="323.583" fill="white"/>
</clipPath>
</defs>
</svg>
