<svg width="284" height="538" viewBox="0 0 284 538" fill="none" xmlns="http://www.w3.org/2000/svg">
<rect x="9" y="436" width="13.972" height="13" fill="#F29400"/>
<path d="M31.8739 437.636C32.7859 437.636 33.5739 437.808 34.2379 438.152C34.9099 438.488 35.4219 438.972 35.7739 439.604C36.1339 440.236 36.3139 440.98 36.3139 441.836C36.3139 442.692 36.1339 443.436 35.7739 444.068C35.4219 444.692 34.9099 445.172 34.2379 445.508C33.5739 445.836 32.7859 446 31.8739 446H29.2699V437.636H31.8739ZM31.8739 445.1C32.9539 445.1 33.7779 444.816 34.3459 444.248C34.9139 443.672 35.1979 442.868 35.1979 441.836C35.1979 440.796 34.9099 439.984 34.3339 439.4C33.7659 438.816 32.9459 438.524 31.8739 438.524H30.3619V445.1H31.8739ZM41.0183 439.304C41.5143 439.304 41.9623 439.412 42.3623 439.628C42.7623 439.836 43.0743 440.152 43.2983 440.576C43.5303 441 43.6463 441.516 43.6463 442.124V446H42.5663V442.28C42.5663 441.624 42.4023 441.124 42.0743 440.78C41.7463 440.428 41.2983 440.252 40.7303 440.252C40.1543 440.252 39.6943 440.432 39.3503 440.792C39.0143 441.152 38.8463 441.676 38.8463 442.364V446H37.7543V437.12H38.8463V440.36C39.0623 440.024 39.3583 439.764 39.7343 439.58C40.1183 439.396 40.5463 439.304 41.0183 439.304ZM45.022 442.688C45.022 442.016 45.158 441.428 45.43 440.924C45.702 440.412 46.074 440.016 46.546 439.736C47.026 439.456 47.558 439.316 48.142 439.316C48.718 439.316 49.218 439.44 49.642 439.688C50.066 439.936 50.382 440.248 50.59 440.624V439.424H51.694V446H50.59V444.776C50.374 445.16 50.05 445.48 49.618 445.736C49.194 445.984 48.698 446.108 48.13 446.108C47.546 446.108 47.018 445.964 46.546 445.676C46.074 445.388 45.702 444.984 45.43 444.464C45.158 443.944 45.022 443.352 45.022 442.688ZM50.59 442.7C50.59 442.204 50.49 441.772 50.29 441.404C50.09 441.036 49.818 440.756 49.474 440.564C49.138 440.364 48.766 440.264 48.358 440.264C47.95 440.264 47.578 440.36 47.242 440.552C46.906 440.744 46.638 441.024 46.438 441.392C46.238 441.76 46.138 442.192 46.138 442.688C46.138 443.192 46.238 443.632 46.438 444.008C46.638 444.376 46.906 444.66 47.242 444.86C47.578 445.052 47.95 445.148 48.358 445.148C48.766 445.148 49.138 445.052 49.474 444.86C49.818 444.66 50.09 444.376 50.29 444.008C50.49 443.632 50.59 443.196 50.59 442.7ZM57.2114 446L54.6314 443.096V446H53.5394V437.12H54.6314V442.34L57.1634 439.424H58.6874L55.5914 442.7L58.6994 446H57.2114ZM59.3072 442.688C59.3072 442.016 59.4432 441.428 59.7152 440.924C59.9872 440.412 60.3592 440.016 60.8312 439.736C61.3112 439.456 61.8432 439.316 62.4272 439.316C63.0032 439.316 63.5032 439.44 63.9272 439.688C64.3512 439.936 64.6672 440.248 64.8752 440.624V439.424H65.9792V446H64.8752V444.776C64.6592 445.16 64.3352 445.48 63.9032 445.736C63.4792 445.984 62.9832 446.108 62.4152 446.108C61.8312 446.108 61.3032 445.964 60.8312 445.676C60.3592 445.388 59.9872 444.984 59.7152 444.464C59.4432 443.944 59.3072 443.352 59.3072 442.688ZM64.8752 442.7C64.8752 442.204 64.7752 441.772 64.5752 441.404C64.3752 441.036 64.1032 440.756 63.7592 440.564C63.4232 440.364 63.0512 440.264 62.6432 440.264C62.2352 440.264 61.8632 440.36 61.5272 440.552C61.1912 440.744 60.9232 441.024 60.7232 441.392C60.5232 441.76 60.4232 442.192 60.4232 442.688C60.4232 443.192 60.5232 443.632 60.7232 444.008C60.9232 444.376 61.1912 444.66 61.5272 444.86C61.8632 445.052 62.2352 445.148 62.6432 445.148C63.0512 445.148 63.4232 445.052 63.7592 444.86C64.1032 444.66 64.3752 444.376 64.5752 444.008C64.7752 443.632 64.8752 443.196 64.8752 442.7Z" fill="black"/>
<rect x="9" y="465" width="13.972" height="13" fill="#F29400"/>
<path d="M37.408 466.696V475H36.316V468.808L33.556 475H32.788L30.016 468.796V475H28.924V466.696H30.1L33.172 473.56L36.244 466.696H37.408ZM44.9239 468.424L40.9639 478.096H39.8359L41.1319 474.928L38.4799 468.424H39.6919L41.7559 473.752L43.7959 468.424H44.9239ZM53.9297 468.304C54.4417 468.304 54.8977 468.412 55.2977 468.628C55.6977 468.836 56.0137 469.152 56.2457 469.576C56.4777 470 56.5937 470.516 56.5937 471.124V475H55.5137V471.28C55.5137 470.624 55.3497 470.124 55.0217 469.78C54.7017 469.428 54.2657 469.252 53.7137 469.252C53.1457 469.252 52.6937 469.436 52.3577 469.804C52.0217 470.164 51.8537 470.688 51.8537 471.376V475H50.7737V471.28C50.7737 470.624 50.6097 470.124 50.2817 469.78C49.9617 469.428 49.5257 469.252 48.9737 469.252C48.4057 469.252 47.9537 469.436 47.6177 469.804C47.2817 470.164 47.1137 470.688 47.1137 471.376V475H46.0217V468.424H47.1137V469.372C47.3297 469.028 47.6177 468.764 47.9777 468.58C48.3457 468.396 48.7497 468.304 49.1897 468.304C49.7417 468.304 50.2297 468.428 50.6537 468.676C51.0777 468.924 51.3937 469.288 51.6017 469.768C51.7857 469.304 52.0897 468.944 52.5137 468.688C52.9377 468.432 53.4097 468.304 53.9297 468.304ZM64.3849 471.46C64.3849 471.668 64.3729 471.888 64.3489 472.12H59.0929C59.1329 472.768 59.3529 473.276 59.7529 473.644C60.1609 474.004 60.6529 474.184 61.2289 474.184C61.7009 474.184 62.0929 474.076 62.4049 473.86C62.7249 473.636 62.9489 473.34 63.0769 472.972H64.2529C64.0769 473.604 63.7249 474.12 63.1969 474.52C62.6689 474.912 62.0129 475.108 61.2289 475.108C60.6049 475.108 60.0449 474.968 59.5489 474.688C59.0609 474.408 58.6769 474.012 58.3969 473.5C58.1169 472.98 57.9769 472.38 57.9769 471.7C57.9769 471.02 58.1129 470.424 58.3849 469.912C58.6569 469.4 59.0369 469.008 59.5249 468.736C60.0209 468.456 60.5889 468.316 61.2289 468.316C61.8529 468.316 62.4049 468.452 62.8849 468.724C63.3649 468.996 63.7329 469.372 63.9889 469.852C64.2529 470.324 64.3849 470.86 64.3849 471.46ZM63.2569 471.232C63.2569 470.816 63.1649 470.46 62.9809 470.164C62.7969 469.86 62.5449 469.632 62.2249 469.48C61.9129 469.32 61.5649 469.24 61.1809 469.24C60.6289 469.24 60.1569 469.416 59.7649 469.768C59.3809 470.12 59.1609 470.608 59.1049 471.232H63.2569ZM69.0303 468.304C69.8303 468.304 70.4783 468.548 70.9743 469.036C71.4703 469.516 71.7183 470.212 71.7183 471.124V475H70.6383V471.28C70.6383 470.624 70.4743 470.124 70.1463 469.78C69.8183 469.428 69.3703 469.252 68.8023 469.252C68.2263 469.252 67.7663 469.432 67.4223 469.792C67.0863 470.152 66.9183 470.676 66.9183 471.364V475H65.8263V468.424H66.9183V469.36C67.1343 469.024 67.4263 468.764 67.7943 468.58C68.1703 468.396 68.5823 468.304 69.0303 468.304ZM75.8301 475.108C75.3261 475.108 74.8741 475.024 74.4741 474.856C74.0741 474.68 73.7581 474.44 73.5261 474.136C73.2941 473.824 73.1661 473.468 73.1421 473.068H74.2701C74.3021 473.396 74.4541 473.664 74.7261 473.872C75.0061 474.08 75.3701 474.184 75.8181 474.184C76.2341 474.184 76.5621 474.092 76.8021 473.908C77.0421 473.724 77.1621 473.492 77.1621 473.212C77.1621 472.924 77.0341 472.712 76.7781 472.576C76.5221 472.432 76.1261 472.292 75.5901 472.156C75.1021 472.028 74.7021 471.9 74.3901 471.772C74.0861 471.636 73.8221 471.44 73.5981 471.184C73.3821 470.92 73.2741 470.576 73.2741 470.152C73.2741 469.816 73.3741 469.508 73.5741 469.228C73.7741 468.948 74.0581 468.728 74.4261 468.568C74.7941 468.4 75.2141 468.316 75.6861 468.316C76.4141 468.316 77.0021 468.5 77.4501 468.868C77.8981 469.236 78.1381 469.74 78.1701 470.38H77.0781C77.0541 470.036 76.9141 469.76 76.6581 469.552C76.4101 469.344 76.0741 469.24 75.6501 469.24C75.2581 469.24 74.9461 469.324 74.7141 469.492C74.4821 469.66 74.3661 469.88 74.3661 470.152C74.3661 470.368 74.4341 470.548 74.5701 470.692C74.7141 470.828 74.8901 470.94 75.0981 471.028C75.3141 471.108 75.6101 471.2 75.9861 471.304C76.4581 471.432 76.8421 471.56 77.1381 471.688C77.4341 471.808 77.6861 471.992 77.8941 472.24C78.1101 472.488 78.2221 472.812 78.2301 473.212C78.2301 473.572 78.1301 473.896 77.9301 474.184C77.7301 474.472 77.4461 474.7 77.0781 474.868C76.7181 475.028 76.3021 475.108 75.8301 475.108ZM80.3357 467.356C80.1277 467.356 79.9517 467.284 79.8077 467.14C79.6637 466.996 79.5917 466.82 79.5917 466.612C79.5917 466.404 79.6637 466.228 79.8077 466.084C79.9517 465.94 80.1277 465.868 80.3357 465.868C80.5357 465.868 80.7037 465.94 80.8397 466.084C80.9837 466.228 81.0557 466.404 81.0557 466.612C81.0557 466.82 80.9837 466.996 80.8397 467.14C80.7037 467.284 80.5357 467.356 80.3357 467.356ZM80.8637 468.424V475H79.7717V468.424H80.8637ZM85.9288 468.304C86.7288 468.304 87.3768 468.548 87.8728 469.036C88.3688 469.516 88.6168 470.212 88.6168 471.124V475H87.5368V471.28C87.5368 470.624 87.3728 470.124 87.0448 469.78C86.7168 469.428 86.2688 469.252 85.7008 469.252C85.1248 469.252 84.6648 469.432 84.3208 469.792C83.9848 470.152 83.8168 470.676 83.8168 471.364V475H82.7248V468.424H83.8168V469.36C84.0328 469.024 84.3248 468.764 84.6928 468.58C85.0688 468.396 85.4808 468.304 85.9288 468.304ZM93.1126 468.316C93.6806 468.316 94.1766 468.44 94.6006 468.688C95.0326 468.936 95.3526 469.248 95.5606 469.624V468.424H96.6646V475.144C96.6646 475.744 96.5366 476.276 96.2806 476.74C96.0246 477.212 95.6566 477.58 95.1766 477.844C94.7046 478.108 94.1526 478.24 93.5206 478.24C92.6566 478.24 91.9366 478.036 91.3606 477.628C90.7846 477.22 90.4446 476.664 90.3406 475.96H91.4206C91.5406 476.36 91.7886 476.68 92.1646 476.92C92.5406 477.168 92.9926 477.292 93.5206 477.292C94.1206 477.292 94.6086 477.104 94.9846 476.728C95.3686 476.352 95.5606 475.824 95.5606 475.144V473.764C95.3446 474.148 95.0246 474.468 94.6006 474.724C94.1766 474.98 93.6806 475.108 93.1126 475.108C92.5286 475.108 91.9966 474.964 91.5166 474.676C91.0446 474.388 90.6726 473.984 90.4006 473.464C90.1286 472.944 89.9926 472.352 89.9926 471.688C89.9926 471.016 90.1286 470.428 90.4006 469.924C90.6726 469.412 91.0446 469.016 91.5166 468.736C91.9966 468.456 92.5286 468.316 93.1126 468.316ZM95.5606 471.7C95.5606 471.204 95.4606 470.772 95.2606 470.404C95.0606 470.036 94.7886 469.756 94.4446 469.564C94.1086 469.364 93.7366 469.264 93.3286 469.264C92.9206 469.264 92.5486 469.36 92.2126 469.552C91.8766 469.744 91.6086 470.024 91.4086 470.392C91.2086 470.76 91.1086 471.192 91.1086 471.688C91.1086 472.192 91.2086 472.632 91.4086 473.008C91.6086 473.376 91.8766 473.66 92.2126 473.86C92.5486 474.052 92.9206 474.148 93.3286 474.148C93.7366 474.148 94.1086 474.052 94.4446 473.86C94.7886 473.66 95.0606 473.376 95.2606 473.008C95.4606 472.632 95.5606 472.196 95.5606 471.7ZM101.774 468.304C102.27 468.304 102.718 468.412 103.118 468.628C103.518 468.836 103.83 469.152 104.054 469.576C104.286 470 104.402 470.516 104.402 471.124V475H103.322V471.28C103.322 470.624 103.158 470.124 102.83 469.78C102.502 469.428 102.054 469.252 101.486 469.252C100.91 469.252 100.45 469.432 100.106 469.792C99.7699 470.152 99.6019 470.676 99.6019 471.364V475H98.5099V466.12H99.6019V469.36C99.8179 469.024 100.114 468.764 100.49 468.58C100.874 468.396 101.302 468.304 101.774 468.304Z" fill="black"/>
<rect x="9" y="494" width="13.972" height="13" fill="#00378A"/>
<path d="M33.112 499.692C33.416 499.74 33.692 499.864 33.94 500.064C34.196 500.264 34.396 500.512 34.54 500.808C34.692 501.104 34.768 501.42 34.768 501.756C34.768 502.18 34.66 502.564 34.444 502.908C34.228 503.244 33.912 503.512 33.496 503.712C33.088 503.904 32.604 504 32.044 504H28.924V495.636H31.924C32.492 495.636 32.976 495.732 33.376 495.924C33.776 496.108 34.076 496.36 34.276 496.68C34.476 497 34.576 497.36 34.576 497.76C34.576 498.256 34.44 498.668 34.168 498.996C33.904 499.316 33.552 499.548 33.112 499.692ZM30.016 499.248H31.852C32.364 499.248 32.76 499.128 33.04 498.888C33.32 498.648 33.46 498.316 33.46 497.892C33.46 497.468 33.32 497.136 33.04 496.896C32.76 496.656 32.356 496.536 31.828 496.536H30.016V499.248ZM31.948 503.1C32.492 503.1 32.916 502.972 33.22 502.716C33.524 502.46 33.676 502.104 33.676 501.648C33.676 501.184 33.516 500.82 33.196 500.556C32.876 500.284 32.448 500.148 31.912 500.148H30.016V503.1H31.948ZM35.8754 500.688C35.8754 500.016 36.0114 499.428 36.2834 498.924C36.5554 498.412 36.9274 498.016 37.3994 497.736C37.8794 497.456 38.4114 497.316 38.9954 497.316C39.5714 497.316 40.0714 497.44 40.4954 497.688C40.9194 497.936 41.2354 498.248 41.4434 498.624V497.424H42.5474V504H41.4434V502.776C41.2274 503.16 40.9034 503.48 40.4714 503.736C40.0474 503.984 39.5514 504.108 38.9834 504.108C38.3994 504.108 37.8714 503.964 37.3994 503.676C36.9274 503.388 36.5554 502.984 36.2834 502.464C36.0114 501.944 35.8754 501.352 35.8754 500.688ZM41.4434 500.7C41.4434 500.204 41.3434 499.772 41.1434 499.404C40.9434 499.036 40.6714 498.756 40.3274 498.564C39.9914 498.364 39.6194 498.264 39.2114 498.264C38.8034 498.264 38.4314 498.36 38.0954 498.552C37.7594 498.744 37.4914 499.024 37.2914 499.392C37.0914 499.76 36.9914 500.192 36.9914 500.688C36.9914 501.192 37.0914 501.632 37.2914 502.008C37.4914 502.376 37.7594 502.66 38.0954 502.86C38.4314 503.052 38.8034 503.148 39.2114 503.148C39.6194 503.148 39.9914 503.052 40.3274 502.86C40.6714 502.66 40.9434 502.376 41.1434 502.008C41.3434 501.632 41.4434 501.196 41.4434 500.7ZM45.4848 498.492C45.6768 498.116 45.9488 497.824 46.3008 497.616C46.6608 497.408 47.0968 497.304 47.6088 497.304V498.432H47.3208C46.0968 498.432 45.4848 499.096 45.4848 500.424V504H44.3928V497.424H45.4848V498.492ZM49.4333 496.356C49.2253 496.356 49.0493 496.284 48.9053 496.14C48.7613 495.996 48.6893 495.82 48.6893 495.612C48.6893 495.404 48.7613 495.228 48.9053 495.084C49.0493 494.94 49.2253 494.868 49.4333 494.868C49.6333 494.868 49.8013 494.94 49.9373 495.084C50.0813 495.228 50.1533 495.404 50.1533 495.612C50.1533 495.82 50.0813 495.996 49.9373 496.14C49.8013 496.284 49.6333 496.356 49.4333 496.356ZM49.9613 497.424V504H48.8693V497.424H49.9613ZM54.1504 504.108C53.6464 504.108 53.1944 504.024 52.7944 503.856C52.3944 503.68 52.0784 503.44 51.8464 503.136C51.6144 502.824 51.4864 502.468 51.4624 502.068H52.5904C52.6224 502.396 52.7744 502.664 53.0464 502.872C53.3264 503.08 53.6904 503.184 54.1384 503.184C54.5544 503.184 54.8824 503.092 55.1224 502.908C55.3624 502.724 55.4824 502.492 55.4824 502.212C55.4824 501.924 55.3544 501.712 55.0984 501.576C54.8424 501.432 54.4464 501.292 53.9104 501.156C53.4224 501.028 53.0224 500.9 52.7104 500.772C52.4064 500.636 52.1424 500.44 51.9184 500.184C51.7024 499.92 51.5944 499.576 51.5944 499.152C51.5944 498.816 51.6944 498.508 51.8944 498.228C52.0944 497.948 52.3784 497.728 52.7464 497.568C53.1144 497.4 53.5344 497.316 54.0064 497.316C54.7344 497.316 55.3224 497.5 55.7704 497.868C56.2184 498.236 56.4584 498.74 56.4904 499.38H55.3984C55.3744 499.036 55.2344 498.76 54.9784 498.552C54.7304 498.344 54.3944 498.24 53.9704 498.24C53.5784 498.24 53.2664 498.324 53.0344 498.492C52.8024 498.66 52.6864 498.88 52.6864 499.152C52.6864 499.368 52.7544 499.548 52.8904 499.692C53.0344 499.828 53.2104 499.94 53.4184 500.028C53.6344 500.108 53.9304 500.2 54.3064 500.304C54.7784 500.432 55.1624 500.56 55.4584 500.688C55.7544 500.808 56.0064 500.992 56.2144 501.24C56.4304 501.488 56.5424 501.812 56.5504 502.212C56.5504 502.572 56.4504 502.896 56.2504 503.184C56.0504 503.472 55.7664 503.7 55.3984 503.868C55.0384 504.028 54.6224 504.108 54.1504 504.108ZM61.356 497.304C61.852 497.304 62.3 497.412 62.7 497.628C63.1 497.836 63.412 498.152 63.636 498.576C63.868 499 63.984 499.516 63.984 500.124V504H62.904V500.28C62.904 499.624 62.74 499.124 62.412 498.78C62.084 498.428 61.636 498.252 61.068 498.252C60.492 498.252 60.032 498.432 59.688 498.792C59.352 499.152 59.184 499.676 59.184 500.364V504H58.092V495.12H59.184V498.36C59.4 498.024 59.696 497.764 60.072 497.58C60.456 497.396 60.884 497.304 61.356 497.304ZM65.3598 500.688C65.3598 500.016 65.4958 499.428 65.7678 498.924C66.0398 498.412 66.4118 498.016 66.8838 497.736C67.3638 497.456 67.8958 497.316 68.4798 497.316C69.0558 497.316 69.5558 497.44 69.9798 497.688C70.4038 497.936 70.7198 498.248 70.9278 498.624V497.424H72.0318V504H70.9278V502.776C70.7118 503.16 70.3878 503.48 69.9558 503.736C69.5318 503.984 69.0358 504.108 68.4678 504.108C67.8838 504.108 67.3558 503.964 66.8838 503.676C66.4118 503.388 66.0398 502.984 65.7678 502.464C65.4958 501.944 65.3598 501.352 65.3598 500.688ZM70.9278 500.7C70.9278 500.204 70.8278 499.772 70.6278 499.404C70.4278 499.036 70.1558 498.756 69.8118 498.564C69.4758 498.364 69.1038 498.264 68.6958 498.264C68.2878 498.264 67.9158 498.36 67.5798 498.552C67.2438 498.744 66.9758 499.024 66.7758 499.392C66.5758 499.76 66.4758 500.192 66.4758 500.688C66.4758 501.192 66.5758 501.632 66.7758 502.008C66.9758 502.376 67.2438 502.66 67.5798 502.86C67.9158 503.052 68.2878 503.148 68.6958 503.148C69.1038 503.148 69.4758 503.052 69.8118 502.86C70.1558 502.66 70.4278 502.376 70.6278 502.008C70.8278 501.632 70.9278 501.196 70.9278 500.7ZM74.9691 495.12V504H73.8771V495.12H74.9691Z" fill="black"/>
<rect x="9" y="523" width="14.6604" height="13" fill="#42A62A"/>
<path d="M30.516 528.812C30.516 527.996 30.7 527.264 31.068 526.616C31.436 525.96 31.936 525.448 32.568 525.08C33.208 524.712 33.916 524.528 34.692 524.528C35.604 524.528 36.4 524.748 37.08 525.188C37.76 525.628 38.256 526.252 38.568 527.06H37.26C37.028 526.556 36.692 526.168 36.252 525.896C35.82 525.624 35.3 525.488 34.692 525.488C34.108 525.488 33.584 525.624 33.12 525.896C32.656 526.168 32.292 526.556 32.028 527.06C31.764 527.556 31.632 528.14 31.632 528.812C31.632 529.476 31.764 530.06 32.028 530.564C32.292 531.06 32.656 531.444 33.12 531.716C33.584 531.988 34.108 532.124 34.692 532.124C35.3 532.124 35.82 531.992 36.252 531.728C36.692 531.456 37.028 531.068 37.26 530.564H38.568C38.256 531.364 37.76 531.984 37.08 532.424C36.4 532.856 35.604 533.072 34.692 533.072C33.916 533.072 33.208 532.892 32.568 532.532C31.936 532.164 31.436 531.656 31.068 531.008C30.7 530.36 30.516 529.628 30.516 528.812ZM43.4575 526.304C43.9535 526.304 44.4015 526.412 44.8015 526.628C45.2015 526.836 45.5135 527.152 45.7375 527.576C45.9695 528 46.0855 528.516 46.0855 529.124V533H45.0055V529.28C45.0055 528.624 44.8415 528.124 44.5135 527.78C44.1855 527.428 43.7375 527.252 43.1695 527.252C42.5935 527.252 42.1335 527.432 41.7895 527.792C41.4535 528.152 41.2855 528.676 41.2855 529.364V533H40.1935V524.12H41.2855V527.36C41.5015 527.024 41.7975 526.764 42.1735 526.58C42.5575 526.396 42.9855 526.304 43.4575 526.304ZM47.4613 529.688C47.4613 529.016 47.5973 528.428 47.8693 527.924C48.1413 527.412 48.5133 527.016 48.9853 526.736C49.4653 526.456 49.9973 526.316 50.5813 526.316C51.1573 526.316 51.6573 526.44 52.0813 526.688C52.5053 526.936 52.8213 527.248 53.0293 527.624V526.424H54.1333V533H53.0293V531.776C52.8133 532.16 52.4893 532.48 52.0573 532.736C51.6333 532.984 51.1373 533.108 50.5693 533.108C49.9853 533.108 49.4573 532.964 48.9853 532.676C48.5133 532.388 48.1413 531.984 47.8693 531.464C47.5973 530.944 47.4613 530.352 47.4613 529.688ZM53.0293 529.7C53.0293 529.204 52.9293 528.772 52.7293 528.404C52.5293 528.036 52.2573 527.756 51.9133 527.564C51.5773 527.364 51.2053 527.264 50.7973 527.264C50.3893 527.264 50.0173 527.36 49.6813 527.552C49.3453 527.744 49.0773 528.024 48.8773 528.392C48.6773 528.76 48.5773 529.192 48.5773 529.688C48.5773 530.192 48.6773 530.632 48.8773 531.008C49.0773 531.376 49.3453 531.66 49.6813 531.86C50.0173 532.052 50.3893 532.148 50.7973 532.148C51.2053 532.148 51.5773 532.052 51.9133 531.86C52.2573 531.66 52.5293 531.376 52.7293 531.008C52.9293 530.632 53.0293 530.196 53.0293 529.7ZM57.3107 527.324V531.2C57.3107 531.52 57.3787 531.748 57.5147 531.884C57.6507 532.012 57.8867 532.076 58.2227 532.076H59.0267V533H58.0427C57.4347 533 56.9787 532.86 56.6747 532.58C56.3707 532.3 56.2187 531.84 56.2187 531.2V527.324H55.3667V526.424H56.2187V524.768H57.3107V526.424H59.0267V527.324H57.3107ZM61.6818 527.324V531.2C61.6818 531.52 61.7498 531.748 61.8858 531.884C62.0218 532.012 62.2578 532.076 62.5938 532.076H63.3978V533H62.4138C61.8058 533 61.3498 532.86 61.0458 532.58C60.7418 532.3 60.5898 531.84 60.5898 531.2V527.324H59.7378V526.424H60.5898V524.768H61.6818V526.424H63.3978V527.324H61.6818ZM67.5889 533.108C66.9729 533.108 66.4129 532.968 65.9089 532.688C65.4129 532.408 65.0209 532.012 64.7329 531.5C64.4529 530.98 64.3129 530.38 64.3129 529.7C64.3129 529.028 64.4569 528.436 64.7449 527.924C65.0409 527.404 65.4409 527.008 65.9449 526.736C66.4489 526.456 67.0129 526.316 67.6369 526.316C68.2609 526.316 68.8249 526.456 69.3289 526.736C69.8329 527.008 70.2289 527.4 70.5169 527.912C70.8129 528.424 70.9609 529.02 70.9609 529.7C70.9609 530.38 70.8089 530.98 70.5049 531.5C70.2089 532.012 69.8049 532.408 69.2929 532.688C68.7809 532.968 68.2129 533.108 67.5889 533.108ZM67.5889 532.148C67.9809 532.148 68.3489 532.056 68.6929 531.872C69.0369 531.688 69.3129 531.412 69.5209 531.044C69.7369 530.676 69.8449 530.228 69.8449 529.7C69.8449 529.172 69.7409 528.724 69.5329 528.356C69.3249 527.988 69.0529 527.716 68.7169 527.54C68.3809 527.356 68.0169 527.264 67.6249 527.264C67.2249 527.264 66.8569 527.356 66.5209 527.54C66.1929 527.716 65.9289 527.988 65.7289 528.356C65.5289 528.724 65.4289 529.172 65.4289 529.7C65.4289 530.236 65.5249 530.688 65.7169 531.056C65.9169 531.424 66.1809 531.7 66.5089 531.884C66.8369 532.06 67.1969 532.148 67.5889 532.148ZM75.1087 526.316C75.6767 526.316 76.1727 526.44 76.5967 526.688C77.0287 526.936 77.3487 527.248 77.5567 527.624V526.424H78.6607V533.144C78.6607 533.744 78.5327 534.276 78.2767 534.74C78.0207 535.212 77.6527 535.58 77.1727 535.844C76.7007 536.108 76.1487 536.24 75.5167 536.24C74.6527 536.24 73.9327 536.036 73.3567 535.628C72.7807 535.22 72.4407 534.664 72.3367 533.96H73.4167C73.5367 534.36 73.7847 534.68 74.1607 534.92C74.5367 535.168 74.9887 535.292 75.5167 535.292C76.1167 535.292 76.6047 535.104 76.9807 534.728C77.3647 534.352 77.5567 533.824 77.5567 533.144V531.764C77.3407 532.148 77.0207 532.468 76.5967 532.724C76.1727 532.98 75.6767 533.108 75.1087 533.108C74.5247 533.108 73.9927 532.964 73.5127 532.676C73.0407 532.388 72.6687 531.984 72.3967 531.464C72.1247 530.944 71.9887 530.352 71.9887 529.688C71.9887 529.016 72.1247 528.428 72.3967 527.924C72.6687 527.412 73.0407 527.016 73.5127 526.736C73.9927 526.456 74.5247 526.316 75.1087 526.316ZM77.5567 529.7C77.5567 529.204 77.4567 528.772 77.2567 528.404C77.0567 528.036 76.7847 527.756 76.4407 527.564C76.1047 527.364 75.7327 527.264 75.3247 527.264C74.9167 527.264 74.5447 527.36 74.2087 527.552C73.8727 527.744 73.6047 528.024 73.4047 528.392C73.2047 528.76 73.1047 529.192 73.1047 529.688C73.1047 530.192 73.2047 530.632 73.4047 531.008C73.6047 531.376 73.8727 531.66 74.2087 531.86C74.5447 532.052 74.9167 532.148 75.3247 532.148C75.7327 532.148 76.1047 532.052 76.4407 531.86C76.7847 531.66 77.0567 531.376 77.2567 531.008C77.4567 530.632 77.5567 530.196 77.5567 529.7ZM81.598 527.492C81.79 527.116 82.062 526.824 82.414 526.616C82.774 526.408 83.21 526.304 83.722 526.304V527.432H83.434C82.21 527.432 81.598 528.096 81.598 529.424V533H80.506V526.424H81.598V527.492ZM84.5746 529.688C84.5746 529.016 84.7106 528.428 84.9826 527.924C85.2546 527.412 85.6266 527.016 86.0986 526.736C86.5786 526.456 87.1106 526.316 87.6946 526.316C88.2706 526.316 88.7706 526.44 89.1946 526.688C89.6186 526.936 89.9346 527.248 90.1426 527.624V526.424H91.2466V533H90.1426V531.776C89.9266 532.16 89.6026 532.48 89.1706 532.736C88.7466 532.984 88.2506 533.108 87.6826 533.108C87.0986 533.108 86.5706 532.964 86.0986 532.676C85.6266 532.388 85.2546 531.984 84.9826 531.464C84.7106 530.944 84.5746 530.352 84.5746 529.688ZM90.1426 529.7C90.1426 529.204 90.0426 528.772 89.8426 528.404C89.6426 528.036 89.3706 527.756 89.0266 527.564C88.6906 527.364 88.3186 527.264 87.9106 527.264C87.5026 527.264 87.1306 527.36 86.7946 527.552C86.4586 527.744 86.1906 528.024 85.9906 528.392C85.7906 528.76 85.6906 529.192 85.6906 529.688C85.6906 530.192 85.7906 530.632 85.9906 531.008C86.1906 531.376 86.4586 531.66 86.7946 531.86C87.1306 532.052 87.5026 532.148 87.9106 532.148C88.3186 532.148 88.6906 532.052 89.0266 531.86C89.3706 531.66 89.6426 531.376 89.8426 531.008C90.0426 530.632 90.1426 530.196 90.1426 529.7ZM101 526.304C101.512 526.304 101.968 526.412 102.368 526.628C102.768 526.836 103.084 527.152 103.316 527.576C103.548 528 103.664 528.516 103.664 529.124V533H102.584V529.28C102.584 528.624 102.42 528.124 102.092 527.78C101.772 527.428 101.336 527.252 100.784 527.252C100.216 527.252 99.764 527.436 99.428 527.804C99.092 528.164 98.924 528.688 98.924 529.376V533H97.844V529.28C97.844 528.624 97.68 528.124 97.352 527.78C97.032 527.428 96.596 527.252 96.044 527.252C95.476 527.252 95.024 527.436 94.688 527.804C94.352 528.164 94.184 528.688 94.184 529.376V533H93.092V526.424H94.184V527.372C94.4 527.028 94.688 526.764 95.048 526.58C95.416 526.396 95.82 526.304 96.26 526.304C96.812 526.304 97.3 526.428 97.724 526.676C98.148 526.924 98.464 527.288 98.672 527.768C98.856 527.304 99.16 526.944 99.584 526.688C100.008 526.432 100.48 526.304 101 526.304Z" fill="black"/>
<rect x="134" y="436" width="13.972" height="13" fill="#0B72B5"/>
<path d="M158.674 446L156.682 442.58H155.362V446H154.27V437.636H156.97C157.602 437.636 158.134 437.744 158.566 437.96C159.006 438.176 159.334 438.468 159.55 438.836C159.766 439.204 159.874 439.624 159.874 440.096C159.874 440.672 159.706 441.18 159.37 441.62C159.042 442.06 158.546 442.352 157.882 442.496L159.982 446H158.674ZM155.362 441.704H156.97C157.562 441.704 158.006 441.56 158.302 441.272C158.598 440.976 158.746 440.584 158.746 440.096C158.746 439.6 158.598 439.216 158.302 438.944C158.014 438.672 157.57 438.536 156.97 438.536H155.362V441.704ZM161.163 442.688C161.163 442.016 161.299 441.428 161.571 440.924C161.843 440.412 162.215 440.016 162.687 439.736C163.167 439.456 163.699 439.316 164.283 439.316C164.859 439.316 165.359 439.44 165.783 439.688C166.207 439.936 166.523 440.248 166.731 440.624V439.424H167.835V446H166.731V444.776C166.515 445.16 166.191 445.48 165.759 445.736C165.335 445.984 164.839 446.108 164.271 446.108C163.687 446.108 163.159 445.964 162.687 445.676C162.215 445.388 161.843 444.984 161.571 444.464C161.299 443.944 161.163 443.352 161.163 442.688ZM166.731 442.7C166.731 442.204 166.631 441.772 166.431 441.404C166.231 441.036 165.959 440.756 165.615 440.564C165.279 440.364 164.907 440.264 164.499 440.264C164.091 440.264 163.719 440.36 163.383 440.552C163.047 440.744 162.779 441.024 162.579 441.392C162.379 441.76 162.279 442.192 162.279 442.688C162.279 443.192 162.379 443.632 162.579 444.008C162.779 444.376 163.047 444.66 163.383 444.86C163.719 445.052 164.091 445.148 164.499 445.148C164.907 445.148 165.279 445.052 165.615 444.86C165.959 444.66 166.231 444.376 166.431 444.008C166.631 443.632 166.731 443.196 166.731 442.7ZM170.268 438.356C170.06 438.356 169.884 438.284 169.74 438.14C169.604 437.996 169.536 437.82 169.536 437.612C169.536 437.404 169.604 437.228 169.74 437.084C169.884 436.94 170.06 436.868 170.268 436.868C170.476 436.868 170.648 436.94 170.784 437.084C170.928 437.228 171 437.404 171 437.612C171 437.82 170.928 437.996 170.784 438.14C170.648 438.284 170.476 438.356 170.268 438.356ZM170.808 447.428C170.808 448.012 170.66 448.44 170.364 448.712C170.068 448.984 169.636 449.12 169.068 449.12H168.432V448.196H168.888C169.192 448.196 169.404 448.136 169.524 448.016C169.652 447.896 169.716 447.692 169.716 447.404V439.424H170.808V447.428ZM174.985 446.108C174.481 446.108 174.029 446.024 173.629 445.856C173.229 445.68 172.913 445.44 172.681 445.136C172.449 444.824 172.321 444.468 172.297 444.068H173.425C173.457 444.396 173.609 444.664 173.881 444.872C174.161 445.08 174.525 445.184 174.973 445.184C175.389 445.184 175.717 445.092 175.957 444.908C176.197 444.724 176.317 444.492 176.317 444.212C176.317 443.924 176.189 443.712 175.933 443.576C175.677 443.432 175.281 443.292 174.745 443.156C174.257 443.028 173.857 442.9 173.545 442.772C173.241 442.636 172.977 442.44 172.753 442.184C172.537 441.92 172.429 441.576 172.429 441.152C172.429 440.816 172.529 440.508 172.729 440.228C172.929 439.948 173.213 439.728 173.581 439.568C173.949 439.4 174.369 439.316 174.841 439.316C175.569 439.316 176.157 439.5 176.605 439.868C177.053 440.236 177.293 440.74 177.325 441.38H176.233C176.209 441.036 176.069 440.76 175.813 440.552C175.565 440.344 175.229 440.24 174.805 440.24C174.413 440.24 174.101 440.324 173.869 440.492C173.637 440.66 173.521 440.88 173.521 441.152C173.521 441.368 173.589 441.548 173.725 441.692C173.869 441.828 174.045 441.94 174.253 442.028C174.469 442.108 174.765 442.2 175.141 442.304C175.613 442.432 175.997 442.56 176.293 442.688C176.589 442.808 176.841 442.992 177.049 443.24C177.265 443.488 177.377 443.812 177.385 444.212C177.385 444.572 177.285 444.896 177.085 445.184C176.885 445.472 176.601 445.7 176.233 445.868C175.873 446.028 175.457 446.108 174.985 446.108ZM182.19 439.304C182.686 439.304 183.134 439.412 183.534 439.628C183.934 439.836 184.246 440.152 184.47 440.576C184.702 441 184.818 441.516 184.818 442.124V446H183.738V442.28C183.738 441.624 183.574 441.124 183.246 440.78C182.918 440.428 182.47 440.252 181.902 440.252C181.326 440.252 180.866 440.432 180.522 440.792C180.186 441.152 180.018 441.676 180.018 442.364V446H178.926V437.12H180.018V440.36C180.234 440.024 180.53 439.764 180.906 439.58C181.29 439.396 181.718 439.304 182.19 439.304ZM186.194 442.688C186.194 442.016 186.33 441.428 186.602 440.924C186.874 440.412 187.246 440.016 187.718 439.736C188.198 439.456 188.73 439.316 189.314 439.316C189.89 439.316 190.39 439.44 190.814 439.688C191.238 439.936 191.554 440.248 191.762 440.624V439.424H192.866V446H191.762V444.776C191.546 445.16 191.222 445.48 190.79 445.736C190.366 445.984 189.87 446.108 189.302 446.108C188.718 446.108 188.19 445.964 187.718 445.676C187.246 445.388 186.874 444.984 186.602 444.464C186.33 443.944 186.194 443.352 186.194 442.688ZM191.762 442.7C191.762 442.204 191.662 441.772 191.462 441.404C191.262 441.036 190.99 440.756 190.646 440.564C190.31 440.364 189.938 440.264 189.53 440.264C189.122 440.264 188.75 440.36 188.414 440.552C188.078 440.744 187.81 441.024 187.61 441.392C187.41 441.76 187.31 442.192 187.31 442.688C187.31 443.192 187.41 443.632 187.61 444.008C187.81 444.376 188.078 444.66 188.414 444.86C188.75 445.052 189.122 445.148 189.53 445.148C189.938 445.148 190.31 445.052 190.646 444.86C190.99 444.66 191.262 444.376 191.462 444.008C191.662 443.632 191.762 443.196 191.762 442.7ZM197.975 439.304C198.471 439.304 198.919 439.412 199.319 439.628C199.719 439.836 200.031 440.152 200.255 440.576C200.487 441 200.603 441.516 200.603 442.124V446H199.523V442.28C199.523 441.624 199.359 441.124 199.031 440.78C198.703 440.428 198.255 440.252 197.687 440.252C197.111 440.252 196.651 440.432 196.307 440.792C195.971 441.152 195.803 441.676 195.803 442.364V446H194.711V437.12H195.803V440.36C196.019 440.024 196.315 439.764 196.691 439.58C197.075 439.396 197.503 439.304 197.975 439.304ZM202.951 438.356C202.743 438.356 202.567 438.284 202.423 438.14C202.279 437.996 202.207 437.82 202.207 437.612C202.207 437.404 202.279 437.228 202.423 437.084C202.567 436.94 202.743 436.868 202.951 436.868C203.151 436.868 203.319 436.94 203.455 437.084C203.599 437.228 203.671 437.404 203.671 437.612C203.671 437.82 203.599 437.996 203.455 438.14C203.319 438.284 203.151 438.356 202.951 438.356ZM203.479 439.424V446H202.387V439.424H203.479Z" fill="black"/>
<rect x="134" y="465" width="13.972" height="13" fill="#803789"/>
<path d="M158.674 475L156.682 471.58H155.362V475H154.27V466.636H156.97C157.602 466.636 158.134 466.744 158.566 466.96C159.006 467.176 159.334 467.468 159.55 467.836C159.766 468.204 159.874 468.624 159.874 469.096C159.874 469.672 159.706 470.18 159.37 470.62C159.042 471.06 158.546 471.352 157.882 471.496L159.982 475H158.674ZM155.362 470.704H156.97C157.562 470.704 158.006 470.56 158.302 470.272C158.598 469.976 158.746 469.584 158.746 469.096C158.746 468.6 158.598 468.216 158.302 467.944C158.014 467.672 157.57 467.536 156.97 467.536H155.362V470.704ZM161.163 471.688C161.163 471.016 161.299 470.428 161.571 469.924C161.843 469.412 162.215 469.016 162.687 468.736C163.167 468.456 163.699 468.316 164.283 468.316C164.859 468.316 165.359 468.44 165.783 468.688C166.207 468.936 166.523 469.248 166.731 469.624V468.424H167.835V475H166.731V473.776C166.515 474.16 166.191 474.48 165.759 474.736C165.335 474.984 164.839 475.108 164.271 475.108C163.687 475.108 163.159 474.964 162.687 474.676C162.215 474.388 161.843 473.984 161.571 473.464C161.299 472.944 161.163 472.352 161.163 471.688ZM166.731 471.7C166.731 471.204 166.631 470.772 166.431 470.404C166.231 470.036 165.959 469.756 165.615 469.564C165.279 469.364 164.907 469.264 164.499 469.264C164.091 469.264 163.719 469.36 163.383 469.552C163.047 469.744 162.779 470.024 162.579 470.392C162.379 470.76 162.279 471.192 162.279 471.688C162.279 472.192 162.379 472.632 162.579 473.008C162.779 473.376 163.047 473.66 163.383 473.86C163.719 474.052 164.091 474.148 164.499 474.148C164.907 474.148 165.279 474.052 165.615 473.86C165.959 473.66 166.231 473.376 166.431 473.008C166.631 472.632 166.731 472.196 166.731 471.7ZM172.884 468.304C173.684 468.304 174.332 468.548 174.828 469.036C175.324 469.516 175.572 470.212 175.572 471.124V475H174.492V471.28C174.492 470.624 174.328 470.124 174 469.78C173.672 469.428 173.224 469.252 172.656 469.252C172.08 469.252 171.62 469.432 171.276 469.792C170.94 470.152 170.772 470.676 170.772 471.364V475H169.68V468.424H170.772V469.36C170.988 469.024 171.28 468.764 171.648 468.58C172.024 468.396 172.436 468.304 172.884 468.304ZM180.068 468.316C180.636 468.316 181.132 468.44 181.556 468.688C181.988 468.936 182.308 469.248 182.516 469.624V468.424H183.62V475.144C183.62 475.744 183.492 476.276 183.236 476.74C182.98 477.212 182.612 477.58 182.132 477.844C181.66 478.108 181.108 478.24 180.476 478.24C179.612 478.24 178.892 478.036 178.316 477.628C177.74 477.22 177.4 476.664 177.296 475.96H178.376C178.496 476.36 178.744 476.68 179.12 476.92C179.496 477.168 179.948 477.292 180.476 477.292C181.076 477.292 181.564 477.104 181.94 476.728C182.324 476.352 182.516 475.824 182.516 475.144V473.764C182.3 474.148 181.98 474.468 181.556 474.724C181.132 474.98 180.636 475.108 180.068 475.108C179.484 475.108 178.952 474.964 178.472 474.676C178 474.388 177.628 473.984 177.356 473.464C177.084 472.944 176.948 472.352 176.948 471.688C176.948 471.016 177.084 470.428 177.356 469.924C177.628 469.412 178 469.016 178.472 468.736C178.952 468.456 179.484 468.316 180.068 468.316ZM182.516 471.7C182.516 471.204 182.416 470.772 182.216 470.404C182.016 470.036 181.744 469.756 181.4 469.564C181.064 469.364 180.692 469.264 180.284 469.264C179.876 469.264 179.504 469.36 179.168 469.552C178.832 469.744 178.564 470.024 178.364 470.392C178.164 470.76 178.064 471.192 178.064 471.688C178.064 472.192 178.164 472.632 178.364 473.008C178.564 473.376 178.832 473.66 179.168 473.86C179.504 474.052 179.876 474.148 180.284 474.148C180.692 474.148 181.064 474.052 181.4 473.86C181.744 473.66 182.016 473.376 182.216 473.008C182.416 472.632 182.516 472.196 182.516 471.7ZM186.557 469.636C186.773 469.26 187.093 468.948 187.517 468.7C187.949 468.444 188.449 468.316 189.017 468.316C189.601 468.316 190.129 468.456 190.601 468.736C191.081 469.016 191.457 469.412 191.729 469.924C192.001 470.428 192.137 471.016 192.137 471.688C192.137 472.352 192.001 472.944 191.729 473.464C191.457 473.984 191.081 474.388 190.601 474.676C190.129 474.964 189.601 475.108 189.017 475.108C188.457 475.108 187.961 474.984 187.529 474.736C187.105 474.48 186.781 474.164 186.557 473.788V478.12H185.465V468.424H186.557V469.636ZM191.021 471.688C191.021 471.192 190.921 470.76 190.721 470.392C190.521 470.024 190.249 469.744 189.905 469.552C189.569 469.36 189.197 469.264 188.789 469.264C188.389 469.264 188.017 469.364 187.673 469.564C187.337 469.756 187.065 470.04 186.857 470.416C186.657 470.784 186.557 471.212 186.557 471.7C186.557 472.196 186.657 472.632 186.857 473.008C187.065 473.376 187.337 473.66 187.673 473.86C188.017 474.052 188.389 474.148 188.789 474.148C189.197 474.148 189.569 474.052 189.905 473.86C190.249 473.66 190.521 473.376 190.721 473.008C190.921 472.632 191.021 472.192 191.021 471.688ZM199.406 468.424V475H198.314V474.028C198.106 474.364 197.814 474.628 197.438 474.82C197.07 475.004 196.662 475.096 196.214 475.096C195.702 475.096 195.242 474.992 194.834 474.784C194.426 474.568 194.102 474.248 193.862 473.824C193.63 473.4 193.514 472.884 193.514 472.276V468.424H194.594V472.132C194.594 472.78 194.758 473.28 195.086 473.632C195.414 473.976 195.862 474.148 196.43 474.148C197.014 474.148 197.474 473.968 197.81 473.608C198.146 473.248 198.314 472.724 198.314 472.036V468.424H199.406ZM202.342 469.492C202.534 469.116 202.806 468.824 203.158 468.616C203.518 468.408 203.954 468.304 204.466 468.304V469.432H204.178C202.954 469.432 202.342 470.096 202.342 471.424V475H201.25V468.424H202.342V469.492Z" fill="black"/>
<rect x="134" y="494" width="13.972" height="13" fill="#E3001B"/>
<path d="M156.576 504.084C156.024 504.084 155.528 503.988 155.088 503.796C154.656 503.596 154.316 503.324 154.068 502.98C153.82 502.628 153.692 502.224 153.684 501.768H154.848C154.888 502.16 155.048 502.492 155.328 502.764C155.616 503.028 156.032 503.16 156.576 503.16C157.096 503.16 157.504 503.032 157.8 502.776C158.104 502.512 158.256 502.176 158.256 501.768C158.256 501.448 158.168 501.188 157.992 500.988C157.816 500.788 157.596 500.636 157.332 500.532C157.068 500.428 156.712 500.316 156.264 500.196C155.712 500.052 155.268 499.908 154.932 499.764C154.604 499.62 154.32 499.396 154.08 499.092C153.848 498.78 153.732 498.364 153.732 497.844C153.732 497.388 153.848 496.984 154.08 496.632C154.312 496.28 154.636 496.008 155.052 495.816C155.476 495.624 155.96 495.528 156.504 495.528C157.288 495.528 157.928 495.724 158.424 496.116C158.928 496.508 159.212 497.028 159.276 497.676H158.076C158.036 497.356 157.868 497.076 157.572 496.836C157.276 496.588 156.884 496.464 156.396 496.464C155.94 496.464 155.568 496.584 155.28 496.824C154.992 497.056 154.848 497.384 154.848 497.808C154.848 498.112 154.932 498.36 155.1 498.552C155.276 498.744 155.488 498.892 155.736 498.996C155.992 499.092 156.348 499.204 156.804 499.332C157.356 499.484 157.8 499.636 158.136 499.788C158.472 499.932 158.76 500.16 159 500.472C159.24 500.776 159.36 501.192 159.36 501.72C159.36 502.128 159.252 502.512 159.036 502.872C158.82 503.232 158.5 503.524 158.076 503.748C157.652 503.972 157.152 504.084 156.576 504.084ZM166.631 497.424L162.671 507.096H161.543L162.839 503.928L160.187 497.424H161.399L163.463 502.752L165.503 497.424H166.631ZM168.821 495.12V504H167.729V495.12H168.821ZM173.946 497.304C174.442 497.304 174.89 497.412 175.29 497.628C175.69 497.836 176.002 498.152 176.226 498.576C176.458 499 176.574 499.516 176.574 500.124V504H175.494V500.28C175.494 499.624 175.33 499.124 175.002 498.78C174.674 498.428 174.226 498.252 173.658 498.252C173.082 498.252 172.622 498.432 172.278 498.792C171.942 499.152 171.774 499.676 171.774 500.364V504H170.682V495.12H171.774V498.36C171.99 498.024 172.286 497.764 172.662 497.58C173.046 497.396 173.474 497.304 173.946 497.304ZM184.358 500.46C184.358 500.668 184.346 500.888 184.322 501.12H179.066C179.106 501.768 179.326 502.276 179.726 502.644C180.134 503.004 180.626 503.184 181.202 503.184C181.674 503.184 182.066 503.076 182.378 502.86C182.698 502.636 182.922 502.34 183.05 501.972H184.226C184.05 502.604 183.698 503.12 183.17 503.52C182.642 503.912 181.986 504.108 181.202 504.108C180.578 504.108 180.018 503.968 179.522 503.688C179.034 503.408 178.65 503.012 178.37 502.5C178.09 501.98 177.95 501.38 177.95 500.7C177.95 500.02 178.086 499.424 178.358 498.912C178.63 498.4 179.01 498.008 179.498 497.736C179.994 497.456 180.562 497.316 181.202 497.316C181.826 497.316 182.378 497.452 182.858 497.724C183.338 497.996 183.706 498.372 183.962 498.852C184.226 499.324 184.358 499.86 184.358 500.46ZM183.23 500.232C183.23 499.816 183.138 499.46 182.954 499.164C182.77 498.86 182.518 498.632 182.198 498.48C181.886 498.32 181.538 498.24 181.154 498.24C180.602 498.24 180.13 498.416 179.738 498.768C179.354 499.12 179.134 499.608 179.078 500.232H183.23ZM187.131 498.324V502.2C187.131 502.52 187.199 502.748 187.335 502.884C187.471 503.012 187.707 503.076 188.043 503.076H188.847V504H187.863C187.255 504 186.799 503.86 186.495 503.58C186.191 503.3 186.039 502.84 186.039 502.2V498.324H185.187V497.424H186.039V495.768H187.131V497.424H188.847V498.324H187.131Z" fill="black"/>
<rect x="134" y="523" width="14.6604" height="13" fill="#E41371"/>
<path d="M160.46 533L157.016 529.184V533H155.924V524.636H157.016V528.512L160.472 524.636H161.852L158.06 528.824L161.888 533H160.46ZM166.372 526.304C166.868 526.304 167.316 526.412 167.716 526.628C168.116 526.836 168.428 527.152 168.652 527.576C168.884 528 169 528.516 169 529.124V533H167.92V529.28C167.92 528.624 167.756 528.124 167.428 527.78C167.1 527.428 166.652 527.252 166.084 527.252C165.508 527.252 165.048 527.432 164.704 527.792C164.368 528.152 164.2 528.676 164.2 529.364V533H163.108V524.12H164.2V527.36C164.416 527.024 164.712 526.764 165.088 526.58C165.472 526.396 165.9 526.304 166.372 526.304ZM176.615 526.424V533H175.523V532.028C175.315 532.364 175.023 532.628 174.647 532.82C174.279 533.004 173.871 533.096 173.423 533.096C172.911 533.096 172.451 532.992 172.043 532.784C171.635 532.568 171.311 532.248 171.071 531.824C170.839 531.4 170.723 530.884 170.723 530.276V526.424H171.803V530.132C171.803 530.78 171.967 531.28 172.295 531.632C172.623 531.976 173.071 532.148 173.639 532.148C174.223 532.148 174.683 531.968 175.019 531.608C175.355 531.248 175.523 530.724 175.523 530.036V526.424H176.615ZM179.551 524.12V533H178.459V524.12H179.551ZM184.616 526.304C185.416 526.304 186.064 526.548 186.56 527.036C187.056 527.516 187.304 528.212 187.304 529.124V533H186.224V529.28C186.224 528.624 186.06 528.124 185.732 527.78C185.404 527.428 184.956 527.252 184.388 527.252C183.812 527.252 183.352 527.432 183.008 527.792C182.672 528.152 182.504 528.676 182.504 529.364V533H181.412V526.424H182.504V527.36C182.72 527.024 183.012 526.764 183.38 526.58C183.756 526.396 184.168 526.304 184.616 526.304ZM188.68 529.688C188.68 529.016 188.816 528.428 189.088 527.924C189.36 527.412 189.732 527.016 190.204 526.736C190.684 526.456 191.216 526.316 191.8 526.316C192.376 526.316 192.876 526.44 193.3 526.688C193.724 526.936 194.04 527.248 194.248 527.624V526.424H195.352V533H194.248V531.776C194.032 532.16 193.708 532.48 193.276 532.736C192.852 532.984 192.356 533.108 191.788 533.108C191.204 533.108 190.676 532.964 190.204 532.676C189.732 532.388 189.36 531.984 189.088 531.464C188.816 530.944 188.68 530.352 188.68 529.688ZM194.248 529.7C194.248 529.204 194.148 528.772 193.948 528.404C193.748 528.036 193.476 527.756 193.132 527.564C192.796 527.364 192.424 527.264 192.016 527.264C191.608 527.264 191.236 527.36 190.9 527.552C190.564 527.744 190.296 528.024 190.096 528.392C189.896 528.76 189.796 529.192 189.796 529.688C189.796 530.192 189.896 530.632 190.096 531.008C190.296 531.376 190.564 531.66 190.9 531.86C191.236 532.052 191.608 532.148 192.016 532.148C192.424 532.148 192.796 532.052 193.132 531.86C193.476 531.66 193.748 531.376 193.948 531.008C194.148 530.632 194.248 530.196 194.248 529.7Z" fill="black"/>
<path d="M25 0H274C279.523 0 284 4.47715 284 10C284 15.5228 279.523 20 274 20H25V0Z" fill="#F29400"/>
<path d="M6.63538 6.272H2.42338V9.008C2.60738 8.752 2.87938 8.544 3.23938 8.384C3.59938 8.216 3.98738 8.132 4.40338 8.132C5.06738 8.132 5.60738 8.272 6.02338 8.552C6.43938 8.824 6.73538 9.18 6.91138 9.62C7.09538 10.052 7.18738 10.512 7.18738 11C7.18738 11.576 7.07938 12.092 6.86338 12.548C6.64738 13.004 6.31538 13.364 5.86738 13.628C5.42738 13.892 4.87938 14.024 4.22338 14.024C3.38338 14.024 2.70338 13.808 2.18338 13.376C1.66338 12.944 1.34738 12.368 1.23538 11.648H2.30338C2.40738 12.104 2.62738 12.46 2.96338 12.716C3.29938 12.972 3.72338 13.1 4.23538 13.1C4.86738 13.1 5.34338 12.912 5.66338 12.536C5.98338 12.152 6.14338 11.648 6.14338 11.024C6.14338 10.4 5.98338 9.92 5.66338 9.584C5.34338 9.24 4.87138 9.068 4.24738 9.068C3.82338 9.068 3.45138 9.172 3.13138 9.38C2.81938 9.58 2.59138 9.856 2.44738 10.208H1.41538V5.312H6.63538V6.272ZM8.39853 7.28C8.39853 6.736 8.56253 6.304 8.89053 5.984C9.21853 5.656 9.63853 5.492 10.1505 5.492C10.6625 5.492 11.0825 5.656 11.4105 5.984C11.7385 6.304 11.9025 6.736 11.9025 7.28C11.9025 7.832 11.7385 8.272 11.4105 8.6C11.0825 8.92 10.6625 9.08 10.1505 9.08C9.63853 9.08 9.21853 8.92 8.89053 8.6C8.56253 8.272 8.39853 7.832 8.39853 7.28ZM15.4065 5.624L10.5465 14H9.46653L14.3265 5.624H15.4065ZM10.1505 6.164C9.87853 6.164 9.66253 6.26 9.50253 6.452C9.35053 6.636 9.27453 6.912 9.27453 7.28C9.27453 7.648 9.35053 7.928 9.50253 8.12C9.66253 8.312 9.87853 8.408 10.1505 8.408C10.4225 8.408 10.6385 8.312 10.7985 8.12C10.9585 7.92 11.0385 7.64 11.0385 7.28C11.0385 6.912 10.9585 6.636 10.7985 6.452C10.6385 6.26 10.4225 6.164 10.1505 6.164ZM12.9945 12.344C12.9945 11.792 13.1585 11.356 13.4865 11.036C13.8145 10.708 14.2345 10.544 14.7465 10.544C15.2585 10.544 15.6745 10.708 15.9945 11.036C16.3225 11.356 16.4865 11.792 16.4865 12.344C16.4865 12.888 16.3225 13.324 15.9945 13.652C15.6745 13.98 15.2585 14.144 14.7465 14.144C14.2345 14.144 13.8145 13.984 13.4865 13.664C13.1585 13.336 12.9945 12.896 12.9945 12.344ZM14.7345 11.228C14.4625 11.228 14.2465 11.324 14.0865 11.516C13.9265 11.7 13.8465 11.976 13.8465 12.344C13.8465 12.704 13.9265 12.98 14.0865 13.172C14.2465 13.356 14.4625 13.448 14.7345 13.448C15.0065 13.448 15.2225 13.356 15.3825 13.172C15.5425 12.98 15.6225 12.704 15.6225 12.344C15.6225 11.976 15.5425 11.7 15.3825 11.516C15.2225 11.324 15.0065 11.228 14.7345 11.228Z" fill="black"/>
<path d="M25 47H192C197.523 47 202 51.4772 202 57C202 62.5228 197.523 67 192 67H25V47Z" fill="#F29400"/>
<path d="M2.48394 58.672C2.56394 59.128 2.74794 59.48 3.03594 59.728C3.33194 59.976 3.72794 60.1 4.22394 60.1C4.88794 60.1 5.37594 59.84 5.68794 59.32C6.00794 58.8 6.15994 57.924 6.14394 56.692C5.97594 57.052 5.69594 57.336 5.30394 57.544C4.91194 57.744 4.47594 57.844 3.99594 57.844C3.45994 57.844 2.97994 57.736 2.55594 57.52C2.13994 57.296 1.81194 56.972 1.57194 56.548C1.33194 56.124 1.21194 55.612 1.21194 55.012C1.21194 54.156 1.45994 53.468 1.95594 52.948C2.45194 52.42 3.15594 52.156 4.06794 52.156C5.18794 52.156 5.97194 52.52 6.41994 53.248C6.87594 53.976 7.10394 55.06 7.10394 56.5C7.10394 57.508 7.01194 58.34 6.82794 58.996C6.65194 59.652 6.34794 60.152 5.91594 60.496C5.49194 60.84 4.90794 61.012 4.16394 61.012C3.34794 61.012 2.71194 60.792 2.25594 60.352C1.79994 59.912 1.53994 59.352 1.47594 58.672H2.48394ZM4.17594 56.92C4.71194 56.92 5.15194 56.756 5.49594 56.428C5.83994 56.092 6.01194 55.64 6.01194 55.072C6.01194 54.472 5.84394 53.988 5.50794 53.62C5.17194 53.252 4.69994 53.068 4.09194 53.068C3.53194 53.068 3.08394 53.244 2.74794 53.596C2.41994 53.948 2.25594 54.412 2.25594 54.988C2.25594 55.572 2.41994 56.04 2.74794 56.392C3.07594 56.744 3.55194 56.92 4.17594 56.92ZM8.39853 54.28C8.39853 53.736 8.56253 53.304 8.89053 52.984C9.21853 52.656 9.63853 52.492 10.1505 52.492C10.6625 52.492 11.0825 52.656 11.4105 52.984C11.7385 53.304 11.9025 53.736 11.9025 54.28C11.9025 54.832 11.7385 55.272 11.4105 55.6C11.0825 55.92 10.6625 56.08 10.1505 56.08C9.63853 56.08 9.21853 55.92 8.89053 55.6C8.56253 55.272 8.39853 54.832 8.39853 54.28ZM15.4065 52.624L10.5465 61H9.46653L14.3265 52.624H15.4065ZM10.1505 53.164C9.87853 53.164 9.66253 53.26 9.50253 53.452C9.35053 53.636 9.27453 53.912 9.27453 54.28C9.27453 54.648 9.35053 54.928 9.50253 55.12C9.66253 55.312 9.87853 55.408 10.1505 55.408C10.4225 55.408 10.6385 55.312 10.7985 55.12C10.9585 54.92 11.0385 54.64 11.0385 54.28C11.0385 53.912 10.9585 53.636 10.7985 53.452C10.6385 53.26 10.4225 53.164 10.1505 53.164ZM12.9945 59.344C12.9945 58.792 13.1585 58.356 13.4865 58.036C13.8145 57.708 14.2345 57.544 14.7465 57.544C15.2585 57.544 15.6745 57.708 15.9945 58.036C16.3225 58.356 16.4865 58.792 16.4865 59.344C16.4865 59.888 16.3225 60.324 15.9945 60.652C15.6745 60.98 15.2585 61.144 14.7465 61.144C14.2345 61.144 13.8145 60.984 13.4865 60.664C13.1585 60.336 12.9945 59.896 12.9945 59.344ZM14.7345 58.228C14.4625 58.228 14.2465 58.324 14.0865 58.516C13.9265 58.7 13.8465 58.976 13.8465 59.344C13.8465 59.704 13.9265 59.98 14.0865 60.172C14.2465 60.356 14.4625 60.448 14.7345 60.448C15.0065 60.448 15.2225 60.356 15.3825 60.172C15.5425 59.98 15.6225 59.704 15.6225 59.344C15.6225 58.976 15.5425 58.7 15.3825 58.516C15.2225 58.324 15.0065 58.228 14.7345 58.228Z" fill="black"/>
<path d="M25 94H147C152.523 94 157 98.4772 157 104C157 109.523 152.523 114 147 114H25V94Z" fill="#00378A"/>
<path d="M2.65222 103.488C2.20422 103.312 1.86022 103.056 1.62022 102.72C1.38022 102.384 1.26022 101.976 1.26022 101.496C1.26022 101.064 1.36822 100.676 1.58422 100.332C1.80022 99.98 2.12022 99.704 2.54422 99.504C2.97622 99.296 3.49622 99.192 4.10422 99.192C4.71222 99.192 5.22822 99.296 5.65222 99.504C6.08422 99.704 6.40822 99.98 6.62422 100.332C6.84822 100.676 6.96022 101.064 6.96022 101.496C6.96022 101.96 6.83622 102.368 6.58822 102.72C6.34022 103.064 6.00022 103.32 5.56822 103.488C6.06422 103.64 6.45622 103.908 6.74422 104.292C7.04022 104.668 7.18822 105.124 7.18822 105.66C7.18822 106.18 7.06022 106.636 6.80422 107.028C6.54822 107.412 6.18422 107.712 5.71222 107.928C5.24822 108.136 4.71222 108.24 4.10422 108.24C3.49622 108.24 2.96022 108.136 2.49622 107.928C2.04022 107.712 1.68422 107.412 1.42822 107.028C1.17222 106.636 1.04422 106.18 1.04422 105.66C1.04422 105.124 1.18822 104.664 1.47622 104.28C1.76422 103.896 2.15622 103.632 2.65222 103.488ZM5.90422 101.628C5.90422 101.14 5.74422 100.764 5.42422 100.5C5.10422 100.236 4.66422 100.104 4.10422 100.104C3.55222 100.104 3.11622 100.236 2.79622 100.5C2.47622 100.764 2.31622 101.144 2.31622 101.64C2.31622 102.088 2.48022 102.448 2.80822 102.72C3.14422 102.992 3.57622 103.128 4.10422 103.128C4.64022 103.128 5.07222 102.992 5.40022 102.72C5.73622 102.44 5.90422 102.076 5.90422 101.628ZM4.10422 103.968C3.51222 103.968 3.02822 104.108 2.65222 104.388C2.27622 104.66 2.08822 105.072 2.08822 105.624C2.08822 106.136 2.26822 106.548 2.62822 106.86C2.99622 107.172 3.48822 107.328 4.10422 107.328C4.72022 107.328 5.20822 107.172 5.56822 106.86C5.92822 106.548 6.10822 106.136 6.10822 105.624C6.10822 105.088 5.92422 104.68 5.55622 104.4C5.18822 104.112 4.70422 103.968 4.10422 103.968ZM8.39853 101.28C8.39853 100.736 8.56253 100.304 8.89053 99.984C9.21853 99.656 9.63853 99.492 10.1505 99.492C10.6625 99.492 11.0825 99.656 11.4105 99.984C11.7385 100.304 11.9025 100.736 11.9025 101.28C11.9025 101.832 11.7385 102.272 11.4105 102.6C11.0825 102.92 10.6625 103.08 10.1505 103.08C9.63853 103.08 9.21853 102.92 8.89053 102.6C8.56253 102.272 8.39853 101.832 8.39853 101.28ZM15.4065 99.624L10.5465 108H9.46653L14.3265 99.624H15.4065ZM10.1505 100.164C9.87853 100.164 9.66253 100.26 9.50253 100.452C9.35053 100.636 9.27453 100.912 9.27453 101.28C9.27453 101.648 9.35053 101.928 9.50253 102.12C9.66253 102.312 9.87853 102.408 10.1505 102.408C10.4225 102.408 10.6385 102.312 10.7985 102.12C10.9585 101.92 11.0385 101.64 11.0385 101.28C11.0385 100.912 10.9585 100.636 10.7985 100.452C10.6385 100.26 10.4225 100.164 10.1505 100.164ZM12.9945 106.344C12.9945 105.792 13.1585 105.356 13.4865 105.036C13.8145 104.708 14.2345 104.544 14.7465 104.544C15.2585 104.544 15.6745 104.708 15.9945 105.036C16.3225 105.356 16.4865 105.792 16.4865 106.344C16.4865 106.888 16.3225 107.324 15.9945 107.652C15.6745 107.98 15.2585 108.144 14.7465 108.144C14.2345 108.144 13.8145 107.984 13.4865 107.664C13.1585 107.336 12.9945 106.896 12.9945 106.344ZM14.7345 105.228C14.4625 105.228 14.2465 105.324 14.0865 105.516C13.9265 105.7 13.8465 105.976 13.8465 106.344C13.8465 106.704 13.9265 106.98 14.0865 107.172C14.2465 107.356 14.4625 107.448 14.7345 107.448C15.0065 107.448 15.2225 107.356 15.3825 107.172C15.5425 106.98 15.6225 106.704 15.6225 106.344C15.6225 105.976 15.5425 105.7 15.3825 105.516C15.2225 105.324 15.0065 105.228 14.7345 105.228Z" fill="black"/>
<path d="M25 141H252C257.523 141 262 145.477 262 151C262 156.523 257.523 161 252 161H25V141Z" fill="#06D886"/>
<path d="M2.65222 150.488C2.20422 150.312 1.86022 150.056 1.62022 149.72C1.38022 149.384 1.26022 148.976 1.26022 148.496C1.26022 148.064 1.36822 147.676 1.58422 147.332C1.80022 146.98 2.12022 146.704 2.54422 146.504C2.97622 146.296 3.49622 146.192 4.10422 146.192C4.71222 146.192 5.22822 146.296 5.65222 146.504C6.08422 146.704 6.40822 146.98 6.62422 147.332C6.84822 147.676 6.96022 148.064 6.96022 148.496C6.96022 148.96 6.83622 149.368 6.58822 149.72C6.34022 150.064 6.00022 150.32 5.56822 150.488C6.06422 150.64 6.45622 150.908 6.74422 151.292C7.04022 151.668 7.18822 152.124 7.18822 152.66C7.18822 153.18 7.06022 153.636 6.80422 154.028C6.54822 154.412 6.18422 154.712 5.71222 154.928C5.24822 155.136 4.71222 155.24 4.10422 155.24C3.49622 155.24 2.96022 155.136 2.49622 154.928C2.04022 154.712 1.68422 154.412 1.42822 154.028C1.17222 153.636 1.04422 153.18 1.04422 152.66C1.04422 152.124 1.18822 151.664 1.47622 151.28C1.76422 150.896 2.15622 150.632 2.65222 150.488ZM5.90422 148.628C5.90422 148.14 5.74422 147.764 5.42422 147.5C5.10422 147.236 4.66422 147.104 4.10422 147.104C3.55222 147.104 3.11622 147.236 2.79622 147.5C2.47622 147.764 2.31622 148.144 2.31622 148.64C2.31622 149.088 2.48022 149.448 2.80822 149.72C3.14422 149.992 3.57622 150.128 4.10422 150.128C4.64022 150.128 5.07222 149.992 5.40022 149.72C5.73622 149.44 5.90422 149.076 5.90422 148.628ZM4.10422 150.968C3.51222 150.968 3.02822 151.108 2.65222 151.388C2.27622 151.66 2.08822 152.072 2.08822 152.624C2.08822 153.136 2.26822 153.548 2.62822 153.86C2.99622 154.172 3.48822 154.328 4.10422 154.328C4.72022 154.328 5.20822 154.172 5.56822 153.86C5.92822 153.548 6.10822 153.136 6.10822 152.624C6.10822 152.088 5.92422 151.68 5.55622 151.4C5.18822 151.112 4.70422 150.968 4.10422 150.968ZM8.39853 148.28C8.39853 147.736 8.56253 147.304 8.89053 146.984C9.21853 146.656 9.63853 146.492 10.1505 146.492C10.6625 146.492 11.0825 146.656 11.4105 146.984C11.7385 147.304 11.9025 147.736 11.9025 148.28C11.9025 148.832 11.7385 149.272 11.4105 149.6C11.0825 149.92 10.6625 150.08 10.1505 150.08C9.63853 150.08 9.21853 149.92 8.89053 149.6C8.56253 149.272 8.39853 148.832 8.39853 148.28ZM15.4065 146.624L10.5465 155H9.46653L14.3265 146.624H15.4065ZM10.1505 147.164C9.87853 147.164 9.66253 147.26 9.50253 147.452C9.35053 147.636 9.27453 147.912 9.27453 148.28C9.27453 148.648 9.35053 148.928 9.50253 149.12C9.66253 149.312 9.87853 149.408 10.1505 149.408C10.4225 149.408 10.6385 149.312 10.7985 149.12C10.9585 148.92 11.0385 148.64 11.0385 148.28C11.0385 147.912 10.9585 147.636 10.7985 147.452C10.6385 147.26 10.4225 147.164 10.1505 147.164ZM12.9945 153.344C12.9945 152.792 13.1585 152.356 13.4865 152.036C13.8145 151.708 14.2345 151.544 14.7465 151.544C15.2585 151.544 15.6745 151.708 15.9945 152.036C16.3225 152.356 16.4865 152.792 16.4865 153.344C16.4865 153.888 16.3225 154.324 15.9945 154.652C15.6745 154.98 15.2585 155.144 14.7465 155.144C14.2345 155.144 13.8145 154.984 13.4865 154.664C13.1585 154.336 12.9945 153.896 12.9945 153.344ZM14.7345 152.228C14.4625 152.228 14.2465 152.324 14.0865 152.516C13.9265 152.7 13.8465 152.976 13.8465 153.344C13.8465 153.704 13.9265 153.98 14.0865 154.172C14.2465 154.356 14.4625 154.448 14.7345 154.448C15.0065 154.448 15.2225 154.356 15.3825 154.172C15.5425 153.98 15.6225 153.704 15.6225 153.344C15.6225 152.976 15.5425 152.7 15.3825 152.516C15.2225 152.324 15.0065 152.228 14.7345 152.228Z" fill="black"/>
<path d="M25 188H227C232.523 188 237 192.477 237 198C237 203.523 232.523 208 227 208H25V188Z" fill="#0B72B5"/>
<path d="M2.65222 197.488C2.20422 197.312 1.86022 197.056 1.62022 196.72C1.38022 196.384 1.26022 195.976 1.26022 195.496C1.26022 195.064 1.36822 194.676 1.58422 194.332C1.80022 193.98 2.12022 193.704 2.54422 193.504C2.97622 193.296 3.49622 193.192 4.10422 193.192C4.71222 193.192 5.22822 193.296 5.65222 193.504C6.08422 193.704 6.40822 193.98 6.62422 194.332C6.84822 194.676 6.96022 195.064 6.96022 195.496C6.96022 195.96 6.83622 196.368 6.58822 196.72C6.34022 197.064 6.00022 197.32 5.56822 197.488C6.06422 197.64 6.45622 197.908 6.74422 198.292C7.04022 198.668 7.18822 199.124 7.18822 199.66C7.18822 200.18 7.06022 200.636 6.80422 201.028C6.54822 201.412 6.18422 201.712 5.71222 201.928C5.24822 202.136 4.71222 202.24 4.10422 202.24C3.49622 202.24 2.96022 202.136 2.49622 201.928C2.04022 201.712 1.68422 201.412 1.42822 201.028C1.17222 200.636 1.04422 200.18 1.04422 199.66C1.04422 199.124 1.18822 198.664 1.47622 198.28C1.76422 197.896 2.15622 197.632 2.65222 197.488ZM5.90422 195.628C5.90422 195.14 5.74422 194.764 5.42422 194.5C5.10422 194.236 4.66422 194.104 4.10422 194.104C3.55222 194.104 3.11622 194.236 2.79622 194.5C2.47622 194.764 2.31622 195.144 2.31622 195.64C2.31622 196.088 2.48022 196.448 2.80822 196.72C3.14422 196.992 3.57622 197.128 4.10422 197.128C4.64022 197.128 5.07222 196.992 5.40022 196.72C5.73622 196.44 5.90422 196.076 5.90422 195.628ZM4.10422 197.968C3.51222 197.968 3.02822 198.108 2.65222 198.388C2.27622 198.66 2.08822 199.072 2.08822 199.624C2.08822 200.136 2.26822 200.548 2.62822 200.86C2.99622 201.172 3.48822 201.328 4.10422 201.328C4.72022 201.328 5.20822 201.172 5.56822 200.86C5.92822 200.548 6.10822 200.136 6.10822 199.624C6.10822 199.088 5.92422 198.68 5.55622 198.4C5.18822 198.112 4.70422 197.968 4.10422 197.968ZM8.39853 195.28C8.39853 194.736 8.56253 194.304 8.89053 193.984C9.21853 193.656 9.63853 193.492 10.1505 193.492C10.6625 193.492 11.0825 193.656 11.4105 193.984C11.7385 194.304 11.9025 194.736 11.9025 195.28C11.9025 195.832 11.7385 196.272 11.4105 196.6C11.0825 196.92 10.6625 197.08 10.1505 197.08C9.63853 197.08 9.21853 196.92 8.89053 196.6C8.56253 196.272 8.39853 195.832 8.39853 195.28ZM15.4065 193.624L10.5465 202H9.46653L14.3265 193.624H15.4065ZM10.1505 194.164C9.87853 194.164 9.66253 194.26 9.50253 194.452C9.35053 194.636 9.27453 194.912 9.27453 195.28C9.27453 195.648 9.35053 195.928 9.50253 196.12C9.66253 196.312 9.87853 196.408 10.1505 196.408C10.4225 196.408 10.6385 196.312 10.7985 196.12C10.9585 195.92 11.0385 195.64 11.0385 195.28C11.0385 194.912 10.9585 194.636 10.7985 194.452C10.6385 194.26 10.4225 194.164 10.1505 194.164ZM12.9945 200.344C12.9945 199.792 13.1585 199.356 13.4865 199.036C13.8145 198.708 14.2345 198.544 14.7465 198.544C15.2585 198.544 15.6745 198.708 15.9945 199.036C16.3225 199.356 16.4865 199.792 16.4865 200.344C16.4865 200.888 16.3225 201.324 15.9945 201.652C15.6745 201.98 15.2585 202.144 14.7465 202.144C14.2345 202.144 13.8145 201.984 13.4865 201.664C13.1585 201.336 12.9945 200.896 12.9945 200.344ZM14.7345 199.228C14.4625 199.228 14.2465 199.324 14.0865 199.516C13.9265 199.7 13.8465 199.976 13.8465 200.344C13.8465 200.704 13.9265 200.98 14.0865 201.172C14.2465 201.356 14.4625 201.448 14.7345 201.448C15.0065 201.448 15.2225 201.356 15.3825 201.172C15.5425 200.98 15.6225 200.704 15.6225 200.344C15.6225 199.976 15.5425 199.7 15.3825 199.516C15.2225 199.324 15.0065 199.228 14.7345 199.228Z" fill="black"/>
<path d="M25 235H202C207.523 235 212 239.477 212 245C212 250.523 207.523 255 202 255H25V235Z" fill="#803789"/>
<path d="M2.65222 244.488C2.20422 244.312 1.86022 244.056 1.62022 243.72C1.38022 243.384 1.26022 242.976 1.26022 242.496C1.26022 242.064 1.36822 241.676 1.58422 241.332C1.80022 240.98 2.12022 240.704 2.54422 240.504C2.97622 240.296 3.49622 240.192 4.10422 240.192C4.71222 240.192 5.22822 240.296 5.65222 240.504C6.08422 240.704 6.40822 240.98 6.62422 241.332C6.84822 241.676 6.96022 242.064 6.96022 242.496C6.96022 242.96 6.83622 243.368 6.58822 243.72C6.34022 244.064 6.00022 244.32 5.56822 244.488C6.06422 244.64 6.45622 244.908 6.74422 245.292C7.04022 245.668 7.18822 246.124 7.18822 246.66C7.18822 247.18 7.06022 247.636 6.80422 248.028C6.54822 248.412 6.18422 248.712 5.71222 248.928C5.24822 249.136 4.71222 249.24 4.10422 249.24C3.49622 249.24 2.96022 249.136 2.49622 248.928C2.04022 248.712 1.68422 248.412 1.42822 248.028C1.17222 247.636 1.04422 247.18 1.04422 246.66C1.04422 246.124 1.18822 245.664 1.47622 245.28C1.76422 244.896 2.15622 244.632 2.65222 244.488ZM5.90422 242.628C5.90422 242.14 5.74422 241.764 5.42422 241.5C5.10422 241.236 4.66422 241.104 4.10422 241.104C3.55222 241.104 3.11622 241.236 2.79622 241.5C2.47622 241.764 2.31622 242.144 2.31622 242.64C2.31622 243.088 2.48022 243.448 2.80822 243.72C3.14422 243.992 3.57622 244.128 4.10422 244.128C4.64022 244.128 5.07222 243.992 5.40022 243.72C5.73622 243.44 5.90422 243.076 5.90422 242.628ZM4.10422 244.968C3.51222 244.968 3.02822 245.108 2.65222 245.388C2.27622 245.66 2.08822 246.072 2.08822 246.624C2.08822 247.136 2.26822 247.548 2.62822 247.86C2.99622 248.172 3.48822 248.328 4.10422 248.328C4.72022 248.328 5.20822 248.172 5.56822 247.86C5.92822 247.548 6.10822 247.136 6.10822 246.624C6.10822 246.088 5.92422 245.68 5.55622 245.4C5.18822 245.112 4.70422 244.968 4.10422 244.968ZM8.39853 242.28C8.39853 241.736 8.56253 241.304 8.89053 240.984C9.21853 240.656 9.63853 240.492 10.1505 240.492C10.6625 240.492 11.0825 240.656 11.4105 240.984C11.7385 241.304 11.9025 241.736 11.9025 242.28C11.9025 242.832 11.7385 243.272 11.4105 243.6C11.0825 243.92 10.6625 244.08 10.1505 244.08C9.63853 244.08 9.21853 243.92 8.89053 243.6C8.56253 243.272 8.39853 242.832 8.39853 242.28ZM15.4065 240.624L10.5465 249H9.46653L14.3265 240.624H15.4065ZM10.1505 241.164C9.87853 241.164 9.66253 241.26 9.50253 241.452C9.35053 241.636 9.27453 241.912 9.27453 242.28C9.27453 242.648 9.35053 242.928 9.50253 243.12C9.66253 243.312 9.87853 243.408 10.1505 243.408C10.4225 243.408 10.6385 243.312 10.7985 243.12C10.9585 242.92 11.0385 242.64 11.0385 242.28C11.0385 241.912 10.9585 241.636 10.7985 241.452C10.6385 241.26 10.4225 241.164 10.1505 241.164ZM12.9945 247.344C12.9945 246.792 13.1585 246.356 13.4865 246.036C13.8145 245.708 14.2345 245.544 14.7465 245.544C15.2585 245.544 15.6745 245.708 15.9945 246.036C16.3225 246.356 16.4865 246.792 16.4865 247.344C16.4865 247.888 16.3225 248.324 15.9945 248.652C15.6745 248.98 15.2585 249.144 14.7465 249.144C14.2345 249.144 13.8145 248.984 13.4865 248.664C13.1585 248.336 12.9945 247.896 12.9945 247.344ZM14.7345 246.228C14.4625 246.228 14.2465 246.324 14.0865 246.516C13.9265 246.7 13.8465 246.976 13.8465 247.344C13.8465 247.704 13.9265 247.98 14.0865 248.172C14.2465 248.356 14.4625 248.448 14.7345 248.448C15.0065 248.448 15.2225 248.356 15.3825 248.172C15.5425 247.98 15.6225 247.704 15.6225 247.344C15.6225 246.976 15.5425 246.7 15.3825 246.516C15.2225 246.324 15.0065 246.228 14.7345 246.228Z" fill="black"/>
<path d="M25 282H240C245.523 282 250 286.477 250 292C250 297.523 245.523 302 240 302H25V282Z" fill="#E3001B"/>
<path d="M2.65222 291.488C2.20422 291.312 1.86022 291.056 1.62022 290.72C1.38022 290.384 1.26022 289.976 1.26022 289.496C1.26022 289.064 1.36822 288.676 1.58422 288.332C1.80022 287.98 2.12022 287.704 2.54422 287.504C2.97622 287.296 3.49622 287.192 4.10422 287.192C4.71222 287.192 5.22822 287.296 5.65222 287.504C6.08422 287.704 6.40822 287.98 6.62422 288.332C6.84822 288.676 6.96022 289.064 6.96022 289.496C6.96022 289.96 6.83622 290.368 6.58822 290.72C6.34022 291.064 6.00022 291.32 5.56822 291.488C6.06422 291.64 6.45622 291.908 6.74422 292.292C7.04022 292.668 7.18822 293.124 7.18822 293.66C7.18822 294.18 7.06022 294.636 6.80422 295.028C6.54822 295.412 6.18422 295.712 5.71222 295.928C5.24822 296.136 4.71222 296.24 4.10422 296.24C3.49622 296.24 2.96022 296.136 2.49622 295.928C2.04022 295.712 1.68422 295.412 1.42822 295.028C1.17222 294.636 1.04422 294.18 1.04422 293.66C1.04422 293.124 1.18822 292.664 1.47622 292.28C1.76422 291.896 2.15622 291.632 2.65222 291.488ZM5.90422 289.628C5.90422 289.14 5.74422 288.764 5.42422 288.5C5.10422 288.236 4.66422 288.104 4.10422 288.104C3.55222 288.104 3.11622 288.236 2.79622 288.5C2.47622 288.764 2.31622 289.144 2.31622 289.64C2.31622 290.088 2.48022 290.448 2.80822 290.72C3.14422 290.992 3.57622 291.128 4.10422 291.128C4.64022 291.128 5.07222 290.992 5.40022 290.72C5.73622 290.44 5.90422 290.076 5.90422 289.628ZM4.10422 291.968C3.51222 291.968 3.02822 292.108 2.65222 292.388C2.27622 292.66 2.08822 293.072 2.08822 293.624C2.08822 294.136 2.26822 294.548 2.62822 294.86C2.99622 295.172 3.48822 295.328 4.10422 295.328C4.72022 295.328 5.20822 295.172 5.56822 294.86C5.92822 294.548 6.10822 294.136 6.10822 293.624C6.10822 293.088 5.92422 292.68 5.55622 292.4C5.18822 292.112 4.70422 291.968 4.10422 291.968ZM8.39853 289.28C8.39853 288.736 8.56253 288.304 8.89053 287.984C9.21853 287.656 9.63853 287.492 10.1505 287.492C10.6625 287.492 11.0825 287.656 11.4105 287.984C11.7385 288.304 11.9025 288.736 11.9025 289.28C11.9025 289.832 11.7385 290.272 11.4105 290.6C11.0825 290.92 10.6625 291.08 10.1505 291.08C9.63853 291.08 9.21853 290.92 8.89053 290.6C8.56253 290.272 8.39853 289.832 8.39853 289.28ZM15.4065 287.624L10.5465 296H9.46653L14.3265 287.624H15.4065ZM10.1505 288.164C9.87853 288.164 9.66253 288.26 9.50253 288.452C9.35053 288.636 9.27453 288.912 9.27453 289.28C9.27453 289.648 9.35053 289.928 9.50253 290.12C9.66253 290.312 9.87853 290.408 10.1505 290.408C10.4225 290.408 10.6385 290.312 10.7985 290.12C10.9585 289.92 11.0385 289.64 11.0385 289.28C11.0385 288.912 10.9585 288.636 10.7985 288.452C10.6385 288.26 10.4225 288.164 10.1505 288.164ZM12.9945 294.344C12.9945 293.792 13.1585 293.356 13.4865 293.036C13.8145 292.708 14.2345 292.544 14.7465 292.544C15.2585 292.544 15.6745 292.708 15.9945 293.036C16.3225 293.356 16.4865 293.792 16.4865 294.344C16.4865 294.888 16.3225 295.324 15.9945 295.652C15.6745 295.98 15.2585 296.144 14.7465 296.144C14.2345 296.144 13.8145 295.984 13.4865 295.664C13.1585 295.336 12.9945 294.896 12.9945 294.344ZM14.7345 293.228C14.4625 293.228 14.2465 293.324 14.0865 293.516C13.9265 293.7 13.8465 293.976 13.8465 294.344C13.8465 294.704 13.9265 294.98 14.0865 295.172C14.2465 295.356 14.4625 295.448 14.7345 295.448C15.0065 295.448 15.2225 295.356 15.3825 295.172C15.5425 294.98 15.6225 294.704 15.6225 294.344C15.6225 293.976 15.5425 293.7 15.3825 293.516C15.2225 293.324 15.0065 293.228 14.7345 293.228Z" fill="black"/>
<path d="M25 329H163C168.523 329 173 333.477 173 339C173 344.523 168.523 349 163 349H25V329Z" fill="#E41371"/>
<path d="M2.65222 338.488C2.20422 338.312 1.86022 338.056 1.62022 337.72C1.38022 337.384 1.26022 336.976 1.26022 336.496C1.26022 336.064 1.36822 335.676 1.58422 335.332C1.80022 334.98 2.12022 334.704 2.54422 334.504C2.97622 334.296 3.49622 334.192 4.10422 334.192C4.71222 334.192 5.22822 334.296 5.65222 334.504C6.08422 334.704 6.40822 334.98 6.62422 335.332C6.84822 335.676 6.96022 336.064 6.96022 336.496C6.96022 336.96 6.83622 337.368 6.58822 337.72C6.34022 338.064 6.00022 338.32 5.56822 338.488C6.06422 338.64 6.45622 338.908 6.74422 339.292C7.04022 339.668 7.18822 340.124 7.18822 340.66C7.18822 341.18 7.06022 341.636 6.80422 342.028C6.54822 342.412 6.18422 342.712 5.71222 342.928C5.24822 343.136 4.71222 343.24 4.10422 343.24C3.49622 343.24 2.96022 343.136 2.49622 342.928C2.04022 342.712 1.68422 342.412 1.42822 342.028C1.17222 341.636 1.04422 341.18 1.04422 340.66C1.04422 340.124 1.18822 339.664 1.47622 339.28C1.76422 338.896 2.15622 338.632 2.65222 338.488ZM5.90422 336.628C5.90422 336.14 5.74422 335.764 5.42422 335.5C5.10422 335.236 4.66422 335.104 4.10422 335.104C3.55222 335.104 3.11622 335.236 2.79622 335.5C2.47622 335.764 2.31622 336.144 2.31622 336.64C2.31622 337.088 2.48022 337.448 2.80822 337.72C3.14422 337.992 3.57622 338.128 4.10422 338.128C4.64022 338.128 5.07222 337.992 5.40022 337.72C5.73622 337.44 5.90422 337.076 5.90422 336.628ZM4.10422 338.968C3.51222 338.968 3.02822 339.108 2.65222 339.388C2.27622 339.66 2.08822 340.072 2.08822 340.624C2.08822 341.136 2.26822 341.548 2.62822 341.86C2.99622 342.172 3.48822 342.328 4.10422 342.328C4.72022 342.328 5.20822 342.172 5.56822 341.86C5.92822 341.548 6.10822 341.136 6.10822 340.624C6.10822 340.088 5.92422 339.68 5.55622 339.4C5.18822 339.112 4.70422 338.968 4.10422 338.968ZM8.39853 336.28C8.39853 335.736 8.56253 335.304 8.89053 334.984C9.21853 334.656 9.63853 334.492 10.1505 334.492C10.6625 334.492 11.0825 334.656 11.4105 334.984C11.7385 335.304 11.9025 335.736 11.9025 336.28C11.9025 336.832 11.7385 337.272 11.4105 337.6C11.0825 337.92 10.6625 338.08 10.1505 338.08C9.63853 338.08 9.21853 337.92 8.89053 337.6C8.56253 337.272 8.39853 336.832 8.39853 336.28ZM15.4065 334.624L10.5465 343H9.46653L14.3265 334.624H15.4065ZM10.1505 335.164C9.87853 335.164 9.66253 335.26 9.50253 335.452C9.35053 335.636 9.27453 335.912 9.27453 336.28C9.27453 336.648 9.35053 336.928 9.50253 337.12C9.66253 337.312 9.87853 337.408 10.1505 337.408C10.4225 337.408 10.6385 337.312 10.7985 337.12C10.9585 336.92 11.0385 336.64 11.0385 336.28C11.0385 335.912 10.9585 335.636 10.7985 335.452C10.6385 335.26 10.4225 335.164 10.1505 335.164ZM12.9945 341.344C12.9945 340.792 13.1585 340.356 13.4865 340.036C13.8145 339.708 14.2345 339.544 14.7465 339.544C15.2585 339.544 15.6745 339.708 15.9945 340.036C16.3225 340.356 16.4865 340.792 16.4865 341.344C16.4865 341.888 16.3225 342.324 15.9945 342.652C15.6745 342.98 15.2585 343.144 14.7465 343.144C14.2345 343.144 13.8145 342.984 13.4865 342.664C13.1585 342.336 12.9945 341.896 12.9945 341.344ZM14.7345 340.228C14.4625 340.228 14.2465 340.324 14.0865 340.516C13.9265 340.7 13.8465 340.976 13.8465 341.344C13.8465 341.704 13.9265 341.98 14.0865 342.172C14.2465 342.356 14.4625 342.448 14.7345 342.448C15.0065 342.448 15.2225 342.356 15.3825 342.172C15.5425 341.98 15.6225 341.704 15.6225 341.344C15.6225 340.976 15.5425 340.7 15.3825 340.516C15.2225 340.324 15.0065 340.228 14.7345 340.228Z" fill="black"/>
</svg>
