<svg width="11" height="8" viewBox="0 0 11 8" fill="none" xmlns="http://www.w3.org/2000/svg">
<g clip-path="url(#clip0_29_15751)">
<path d="M5.48462 0.292191L6.23403 0.655862L5.60981 1.20742" stroke="#A39F9F" stroke-width="0.584375" stroke-linecap="round" stroke-linejoin="round"/>
<path d="M3.19116 2.53203C3.45168 2.04118 3.82436 1.61874 4.27888 1.29905C4.73341 0.979357 5.25697 0.771434 5.80698 0.692184" stroke="#A39F9F" stroke-width="0.584375" stroke-linecap="round" stroke-linejoin="round"/>
<path d="M7.11333 0.746674C7.41327 0.816358 7.70287 0.924754 7.97485 1.06913C9.69927 1.9871 10.354 4.12753 9.43696 5.85195C9.17194 6.35153 8.79082 6.78017 8.32566 7.1018C7.8605 7.42343 7.3249 7.62864 6.76392 7.70019" stroke="#A39F9F" stroke-width="0.584375" stroke-linecap="round" stroke-linejoin="round" stroke-dasharray="0.39 1.17"/>
<path d="M6.71265 3.58477L7.47124 2.77539" stroke="#A39F9F" stroke-width="0.584375" stroke-linecap="round" stroke-linejoin="round"/>
<path d="M6.31362 4.59511C6.63636 4.59511 6.898 4.33348 6.898 4.01074C6.898 3.68799 6.63636 3.42636 6.31362 3.42636C5.99088 3.42636 5.72925 3.68799 5.72925 4.01074C5.72925 4.33348 5.99088 4.59511 6.31362 4.59511Z" stroke="#A39F9F" stroke-width="0.584375" stroke-linecap="round" stroke-linejoin="round"/>
<path d="M3.00674 5.09512H0.435059" stroke="#A39F9F" stroke-width="0.584375" stroke-linecap="round" stroke-linejoin="round"/>
<path d="M6.76523 7.70528H3.14258" stroke="#A39F9F" stroke-width="0.584375" stroke-linecap="round" stroke-linejoin="round"/>
<path d="M3.78228 6.40019H1.60376" stroke="#A39F9F" stroke-width="0.584375" stroke-linecap="round" stroke-linejoin="round"/>
<path d="M3.13623 2.52383H2.22705" stroke="#A39F9F" stroke-width="0.584375" stroke-linecap="round" stroke-linejoin="round"/>
<path d="M2.73735 3.79004H1.60376" stroke="#A39F9F" stroke-width="0.584375" stroke-linecap="round" stroke-linejoin="round"/>
</g>
<defs>
<clipPath id="clip0_29_15751">
<rect width="10" height="7.99746" fill="white" transform="translate(0.142822)"/>
</clipPath>
</defs>
</svg>
