<svg width="25" height="24" viewBox="0 0 25 24" fill="none" xmlns="http://www.w3.org/2000/svg">
<path opacity="0.4" d="M12.8496 1.9998C18.3646 1.9998 22.8496 6.4858 22.8496 11.9998C22.8496 17.5138 18.3646 21.9998 12.8496 21.9998C7.33561 21.9998 2.84961 17.5138 2.84961 11.9998C2.84961 6.4858 7.33561 1.9998 12.8496 1.9998Z" fill="#318DDE"/>
<path d="M11.4076 7.7791C11.5986 7.7791 11.7906 7.8521 11.9366 7.9981L15.4236 11.4681C15.5646 11.6091 15.6436 11.8001 15.6436 12.0001C15.6436 12.1991 15.5646 12.3901 15.4236 12.5311L11.9366 16.0031C11.6436 16.2951 11.1696 16.2951 10.8766 16.0011C10.5846 15.7071 10.5856 15.2321 10.8786 14.9401L13.8316 12.0001L10.8786 9.0601C10.5856 8.7681 10.5846 8.2941 10.8766 8.0001C11.0226 7.8521 11.2156 7.7791 11.4076 7.7791Z" fill="#318DDE"/>
</svg>
