<svg width="17" height="17" viewBox="0 0 17 17" fill="none" xmlns="http://www.w3.org/2000/svg">
<g id="Layer" clip-path="url(#clip0_5016_104282)">
<path id="Vector" d="M8.24168 16.5698C12.7266 16.5698 16.3623 12.9341 16.3623 8.4492C16.3623 3.96432 12.7266 0.328613 8.24168 0.328613C3.7568 0.328613 0.121094 3.96432 0.121094 8.4492C0.121094 12.9341 3.7568 16.5698 8.24168 16.5698Z" fill="white"/>
<g id="Group">
<path id="Vector_2" d="M8.25049 16.7505C3.70103 16.7505 0 13.0491 0 8.49959C0 3.95013 3.70103 0.249512 8.25049 0.249512C12.7999 0.249512 16.5002 3.95054 16.5002 8.49959C16.5002 13.0486 12.7995 16.7505 8.25049 16.7505ZM8.25049 0.508101C3.84392 0.508101 0.258589 4.09303 0.258589 8.49959C0.258589 12.9062 3.84392 16.4919 8.25049 16.4919C12.6571 16.4919 16.2416 12.9066 16.2416 8.49959C16.2416 4.09262 12.6566 0.508101 8.25049 0.508101Z" fill="#006600"/>
<g id="Group_2">
<path id="Vector_3" d="M1.1433 7.82329C1.04263 7.92315 0.890804 8.12856 0.848991 8.46997C0.820575 9.02327 1.25534 9.03626 1.25494 9.03545L1.38606 8.85765C1.38606 8.86008 1.18512 8.65061 1.26671 8.45535C1.35358 8.2678 1.56102 8.64087 1.63572 8.81583L1.78145 8.58363C1.77171 8.58485 1.68362 8.21097 1.45142 8.12694C1.2184 8.04169 1.11002 8.46104 1.13884 8.59662C1.13965 8.59865 0.941953 8.4517 1.11935 8.0697C1.17659 7.94183 1.24966 7.87525 1.31948 7.84034C1.49932 7.85942 1.70919 7.88946 1.85737 7.93006C1.84965 7.92762 2.0096 7.68364 2.0782 7.62559L1.13112 7.53141L1.18106 7.21072L1.04669 7.18555C1.01787 7.3938 0.974023 7.60043 0.958191 7.80908C0.958191 7.80908 1.0337 7.81355 1.1433 7.82329Z" fill="#006600"/>
<path id="Vector_4" d="M1.63193 5.93833C1.34533 6.07351 1.08471 6.44252 1.17564 6.8095C1.26455 7.20448 1.63193 7.08108 1.77239 6.85983C1.90432 6.63535 1.85601 6.30653 1.66887 6.37107C1.47239 6.43887 1.48335 6.69137 1.48132 6.68934C1.48132 6.68852 1.30636 6.77256 1.35954 6.4819C1.42002 6.17581 1.65101 6.04591 1.7732 5.99517C1.93842 6.06215 2.12759 6.14699 2.25547 6.22371C2.25952 6.22371 2.45722 6.02318 2.54409 5.98867L1.6575 5.63955L1.8004 5.34808L1.67821 5.2876C1.58403 5.47596 1.49066 5.66391 1.42449 5.86323C1.42449 5.86323 1.51136 5.89287 1.63152 5.93874L1.63193 5.93833Z" fill="#006600"/>
<path id="Vector_5" d="M9.31638 1.39844L9.1195 1.3684L9.03506 2.33659C8.97701 2.26352 8.72979 2.12387 8.72897 2.12387C8.78702 1.89857 8.81909 1.52835 8.82965 1.34039C8.59379 1.33268 8.35834 1.2998 8.12208 1.31928C8.18176 1.39479 8.2256 1.5454 7.99137 1.73985C8.07946 1.7569 8.17323 1.79546 8.26498 1.86853C8.29502 1.88964 8.35185 1.97448 8.35144 1.9757L8.34901 2.58462C8.34982 2.58097 8.2459 2.49044 8.09975 2.49775C7.9528 2.50871 7.85334 2.64998 7.64347 2.56839C7.36986 2.4673 7.33373 2.22983 7.33535 2.22983C7.33535 2.22901 7.47622 2.43361 7.68853 2.41819C7.90165 2.41859 7.84238 2.26433 8.14441 2.40804V1.99072C8.14441 1.99072 8.0275 1.75446 7.84604 1.92293C7.84604 1.92293 8.01451 1.98504 7.92763 2.1121C7.84198 2.23185 7.57689 2.23388 7.50017 2.07841C7.43928 1.95906 7.65687 1.66962 7.99015 1.74025C7.98365 1.7366 7.76404 1.53444 7.54361 1.60629C7.54442 1.60629 7.61302 1.70088 7.4884 1.79262C7.32602 1.914 7.02277 1.83159 7.08204 1.65947C7.16892 1.4293 7.65402 1.40372 7.82249 1.54621C7.82046 1.54621 7.98487 1.41996 7.75064 1.3339C6.79423 1.40047 5.85283 1.65906 4.99709 2.09059L5.46596 2.94226C5.37909 2.91953 5.09655 2.94145 5.09493 2.94064C5.0182 2.72143 4.83837 2.39586 4.74338 2.23307C4.41618 2.40398 4.12065 2.624 3.82025 2.83712L3.76951 2.91182C4.13851 2.98205 4.36097 2.5899 4.36422 2.58462C4.47789 2.59964 4.59723 2.62806 4.71252 2.65566C4.45881 3.23414 4.91469 3.22968 4.90454 3.2317L4.87125 3.26986C4.50752 3.36892 4.34189 2.86554 4.34676 2.8627C4.03134 3.0267 3.79062 3.04213 3.69197 3.04416C3.49955 3.40829 3.60672 3.54185 3.74312 3.44726C3.91159 3.33116 3.89616 3.1769 3.89616 3.1765C4.12918 3.0474 4.32769 3.07582 4.39994 3.21993C4.46287 3.36648 4.363 3.78664 3.88439 3.89462C3.41714 4.03386 3.10172 3.67622 3.10456 3.67094C3.76301 3.9823 4.22945 3.45619 4.21443 3.29219C4.199 3.19233 4.035 3.29422 4.03743 3.29706C4.01998 3.45335 3.65422 3.74807 3.46545 3.56905C3.32256 3.43062 3.36762 3.27108 3.407 3.19355C3.16911 3.4022 2.95923 3.64212 2.74733 3.87676L3.4963 4.46092C3.41471 4.47878 3.15571 4.60462 3.1549 4.60625C3.01891 4.68297 3.08873 5.12505 2.78184 5.35035C2.56384 5.5111 2.3219 5.44534 2.31784 5.4425C2.34138 5.44656 2.55775 5.40759 2.67669 5.231C2.7928 5.05279 2.78184 4.81612 2.91539 4.68987C2.98197 4.62776 3.05991 4.59041 3.11918 4.56849C3.0181 4.46498 2.87804 4.34644 2.75179 4.24617C2.63569 4.49502 2.55369 5.05035 2.55572 5.0471L2.29226 5.19C2.30363 5.09744 2.32433 4.98296 2.35072 4.86524C2.16642 4.91152 2.11973 5.12667 2.12298 5.12667C2.09619 5.21273 1.9809 5.29879 1.92691 5.2789C1.87617 5.26347 1.70932 4.94521 1.96832 4.56403C2.15789 4.25226 2.50538 4.16985 2.6296 4.15037C2.53096 4.07486 2.46032 4.02493 2.46032 4.02493C3.84785 2.18517 6.15689 1.11306 8.45171 1.18289C8.38879 0.953119 8.0072 1.14513 7.8233 1.02051C7.61911 0.903593 7.91748 0.565438 8.62789 0.703461C9.18729 0.817126 9.15968 1.12605 9.13452 1.23322L9.33668 1.26448L9.31679 1.39926L9.31638 1.39844ZM2.37142 4.767C2.41323 4.58067 2.46357 4.40124 2.50254 4.31559C2.06858 4.48243 2.16682 4.87539 2.16479 4.86686C2.20701 4.82262 2.30809 4.78202 2.37142 4.767ZM8.64575 1.19344L8.84629 1.20602C8.89744 0.851632 8.19881 0.699807 8.0486 0.854067C7.86918 1.02497 8.25117 0.866246 8.48216 0.950683C8.69122 1.0201 8.67011 1.13539 8.64575 1.19344Z" fill="#006600"/>
<path id="Vector_6" d="M5.87125 1.87406C5.76489 2.07054 6.0527 2.24266 6.26745 2.10788C6.48626 1.96905 6.38721 1.82331 6.38518 1.81844C6.82157 1.73685 6.77286 2.27392 6.24025 2.35551C5.6975 2.4298 5.28465 2.09124 5.27734 2.08109C5.73972 2.76836 6.37543 2.60964 6.64458 2.46877C6.90357 2.32831 7.0627 1.89882 6.69857 1.7202C6.30439 1.5217 5.9776 1.67636 5.87165 1.87446L5.87125 1.87406Z" fill="#006600"/>
<path id="Vector_7" d="M11.6914 2.19251L11.2668 3.04176C11.2327 2.96544 11.057 2.73689 11.0561 2.73648C11.1885 2.55543 11.3484 2.2392 11.4312 2.06504L11.2002 1.95138L10.8203 2.77789C10.5467 2.35489 10.0579 2.13811 10.0587 2.14989L10.0571 1.84421C10.6047 1.8844 10.9295 1.84827 10.9327 1.83771C10.6409 1.7273 10.3506 1.61404 10.0449 1.54746L10.079 1.41553C10.567 1.53366 11.0419 1.71309 11.4885 1.94123L11.622 2.00699C11.769 2.07235 11.9046 2.15638 12.0393 2.24244L11.9691 2.35936C11.8762 2.30415 11.7868 2.24082 11.6906 2.19251H11.6914ZM10.8487 2.04556C10.8487 2.04556 10.5479 2.08859 10.3884 2.07235C10.39 2.07316 10.6607 2.32242 10.6957 2.40482L10.8487 2.04556Z" fill="#006600"/>
<path id="Vector_8" d="M15.5279 9.35519C15.5539 9.14653 15.5567 8.93584 15.5709 8.72678C15.5709 8.72678 15.4873 8.72759 15.3676 8.72556C15.4678 8.62773 15.5884 8.4418 15.5933 8.30865C15.6014 8.1341 15.4224 7.93396 15.4224 7.93559C15.5401 7.74885 15.5109 7.57429 15.5056 7.53451L15.5064 7.53532C15.381 6.59515 15.0708 5.68095 14.5995 4.85809C14.4988 4.67379 14.39 4.49437 14.2634 4.3263L14.1952 4.23009C14.0795 4.05472 13.948 3.89113 13.8059 3.73524C13.5286 3.3979 13.2051 3.0979 12.8686 2.82227L12.7817 2.92781C13.1137 3.1998 13.4316 3.49492 13.7048 3.82699C13.661 3.86596 13.6045 3.91427 13.5428 3.96623C13.5258 3.6845 13.2688 3.64025 13.2656 3.64675C13.2323 3.47097 13.0886 3.3431 13.009 3.27896C12.8202 3.11374 12.4671 3.12591 12.4228 3.41942C12.3684 3.76528 12.7086 4.01088 12.8617 4.00804C13.0082 4.00763 13.091 3.81846 12.914 3.65081C12.7378 3.48437 12.5962 3.61143 12.5962 3.61143C12.4496 3.48315 12.612 3.25744 12.873 3.42672C13.1361 3.60047 13.1316 3.8619 13.128 3.86271C13.128 3.86271 13.2644 3.80628 13.3553 3.93294C13.3906 3.98409 13.4048 4.03402 13.4093 4.07462C13.3021 4.15946 13.1893 4.24268 13.0963 4.29789C13.0975 4.2987 13.1706 4.57637 13.1706 4.66121L13.8944 4.04579L14.0844 4.30925L14.1526 4.40627C13.9967 4.51913 13.7036 4.71804 13.4994 4.81344C13.4978 4.81506 13.5477 5.09517 13.5335 5.18326L14.319 4.64416L14.4806 4.92589L14.6105 5.15403C14.5131 5.10654 14.3227 5.04727 14.0888 5.13536C13.7466 5.27054 13.8648 5.64969 13.8919 5.74306C13.9455 5.87905 14.1022 6.05808 14.2163 5.93264C14.343 5.78609 14.127 5.534 14.0227 5.53359C14.0243 5.53603 13.9573 5.26851 14.3454 5.33346C14.5565 5.37203 14.7274 5.52994 14.85 5.66309C14.8886 5.75646 14.9389 5.84495 14.9673 5.94198L14.4355 6.14454L14.4168 6.40192C14.4168 6.40192 14.6174 6.49204 14.7696 6.65198C14.7696 6.65076 14.4099 6.74251 14.3657 7.0356L14.3888 7.08756C14.3905 7.09568 14.6519 6.72099 15.0099 7.08716L15.1658 6.83466C15.1731 6.83019 14.9186 6.39583 14.7566 6.31585L15.0582 6.21396C15.1999 6.60083 15.2868 7.00556 15.3509 7.4107L15.3493 7.40907C15.3919 7.87429 15.2283 7.80853 15.2283 7.80934C15.2559 7.71232 15.1804 7.418 15.0128 7.41435C14.8459 7.41273 14.8561 7.66726 14.9019 7.78214C14.9519 7.89662 15.0505 7.99526 15.0493 7.99567C14.949 8.12557 14.9462 8.30419 14.947 8.32652C14.9482 8.34925 14.9856 8.53639 15.1106 8.52949C15.2799 8.52137 15.2616 8.1686 15.2616 8.1686C15.2616 8.16901 15.4045 8.10527 15.3895 8.36265C15.3842 8.5234 15.273 8.65006 15.1877 8.71947C15.0116 8.71054 14.811 8.6943 14.6693 8.66467C14.6693 8.66629 14.5256 8.92082 14.4684 8.98293L15.4179 9.01622C15.409 9.1238 15.4114 9.2334 15.3923 9.33976L15.5275 9.35559L15.5279 9.35519Z" fill="#006600"/>
<path id="Vector_9" d="M11.8868 2.71244L11.6562 2.79891C11.992 3.17522 12.0504 3.54423 12.0504 3.5426L12.1064 3.51703C12.1909 3.27143 11.8978 2.70716 11.8868 2.71244Z" fill="#006600"/>
<path id="Vector_10" d="M12.6533 2.95492C12.5657 3.06371 12.355 3.04341 12.182 2.91026C12.001 2.79091 11.9084 2.60458 11.9807 2.48483C12.0517 2.3671 12.2746 2.36792 12.4719 2.49822C12.6594 2.64193 12.7406 2.84734 12.6529 2.95532L12.6533 2.95492ZM12.3371 2.59768C12.1025 2.55749 12.0903 2.66832 12.0899 2.66832C12.0607 2.71338 12.1755 2.80187 12.4065 2.84369C12.644 2.88347 12.5657 2.65411 12.3371 2.59809V2.59768Z" fill="#006600"/>
<path id="Vector_11" d="M11.3018 15.1365C11.1763 15.1929 11.1 15.3025 11.1325 15.3809C11.1646 15.4592 11.2977 15.4751 11.43 15.4154C11.562 15.3557 11.6379 15.2461 11.5989 15.1702C11.5608 15.0947 11.4276 15.0797 11.3018 15.1365Z" fill="#006600"/>
<path id="Vector_12" d="M7.04662 15.7067C6.91104 15.6852 6.786 15.7339 6.76855 15.8168C6.75109 15.9004 6.85298 15.9864 6.99588 16.0084C7.13918 16.0315 7.2638 15.9816 7.27476 15.8971C7.28491 15.8131 7.18343 15.7283 7.04662 15.7067Z" fill="#006600"/>
<path id="Vector_13" d="M11.8021 13.8411L11.8211 13.9946C11.7424 14.0535 11.6519 14.0953 11.5674 14.1456L12.0209 14.9335C11.4582 14.9632 10.9297 15.0976 10.9313 15.1077L10.7437 14.8678C11.2 14.5605 11.3405 14.284 11.3368 14.2779C11.1176 14.403 10.8789 14.4898 10.6508 14.5982L10.5623 14.6287L10.3711 14.6932L10.7174 15.579C10.6199 15.5551 10.2972 15.5291 10.2988 15.5287C10.2797 15.3017 10.1787 14.9624 10.1214 14.7785C9.81737 14.8532 9.51616 14.9465 9.20358 14.9766L9.20601 14.9953C9.35418 14.9993 9.78124 14.9474 9.97569 15.1572C10.1827 15.3773 9.91155 15.5331 9.77312 15.5713C9.66068 15.609 9.37895 15.5676 9.45608 15.3959C9.54092 15.2055 9.77718 15.2141 9.77881 15.2177C9.77515 15.2068 9.66068 15.0671 9.23443 15.2007L9.32861 15.8782C8.79601 15.6951 8.25488 15.62 8.25285 15.631L8.16922 15.3379C8.70751 15.2238 8.94093 15.0204 8.94012 15.0131C8.66813 15.0444 8.39249 15.048 8.11929 15.0505L8.09047 15.0484L7.82335 15.0334L7.75678 15.9395C7.27614 15.6431 6.75977 15.4702 6.75693 15.4731L6.73744 15.1637C7.28547 15.1735 7.55908 15.0127 7.55827 15.0184C7.31673 14.9758 7.07032 14.951 6.83122 14.895L6.81173 14.8889L6.72161 14.8658L6.52513 14.815L6.31363 15.7418C6.24543 15.6679 5.99212 15.4702 5.99659 15.4629C6.05545 15.3586 6.11431 15.2124 6.16424 15.0716C6.11756 15.0184 6.04368 14.9595 5.94422 14.9758C5.77778 14.9973 5.4924 15.2461 5.27278 15.0716C5.05317 14.9011 5.05925 14.6514 5.05966 14.6522C5.17008 14.8203 5.34423 14.9055 5.49484 14.8621C5.54477 14.8487 5.63408 14.7947 5.72826 14.7635C5.61053 14.5459 5.26913 14.4355 5.26466 14.4407L5.26548 14.3238L5.0763 14.2313L5.14247 14.1123C5.51919 14.3108 5.90687 14.4805 6.30917 14.6153L6.75368 14.733L6.84137 14.757L6.88115 14.7667C7.2802 14.8495 7.68574 14.9011 8.09372 14.9128L8.18911 14.9181C8.82848 14.9145 9.46541 14.8239 10.08 14.6486L10.2651 14.5857L10.5152 14.5012L10.6021 14.4716C11.0202 14.295 11.4265 14.0936 11.8033 13.8403L11.8021 13.8411ZM6.2702 14.7472L5.69497 14.5337C5.75789 14.6055 5.78955 14.6843 5.80498 14.7428C5.88373 14.7277 5.96208 14.733 6.03231 14.7898C6.11269 14.8556 6.16221 14.9258 6.19469 14.9839C6.22473 14.895 6.25071 14.8122 6.2702 14.7476V14.7472ZM7.53351 15.2413C7.53351 15.2413 7.26193 15.346 7.09143 15.3594C7.0894 15.3594 7.41822 15.553 7.48479 15.6289L7.53391 15.2413H7.53351ZM8.96326 15.2364C8.96569 15.2429 8.7205 15.4081 8.5565 15.4499C8.55406 15.4483 8.91698 15.5814 8.99695 15.6261L8.96366 15.2364H8.96326ZM11.442 14.4752C11.446 14.4805 11.2812 14.7265 11.1448 14.8252C11.1428 14.8252 11.5284 14.8118 11.6186 14.8235L11.442 14.4748V14.4752Z" fill="#006600"/>
</g>
<g id="Group_3">
<path id="Vector_14" d="M13.8152 8.50035C13.8152 11.5766 11.3218 14.0704 8.24555 14.0704C5.16928 14.0704 2.67676 11.5766 2.67676 8.50035C2.67676 5.42408 5.1705 2.93115 8.24555 2.93115C11.3206 2.93115 13.8152 5.42489 13.8152 8.50035Z" fill="#EC1C24"/>
<path id="Vector_15" d="M8.24625 14.0837C6.75521 14.0837 5.35347 13.5031 4.29922 12.4485C3.24497 11.3938 2.66406 9.9921 2.66406 8.50065C2.66406 5.42275 5.16795 2.91846 8.24585 2.91846C11.3237 2.91846 13.8284 5.42275 13.8284 8.50065C13.8284 9.9921 13.2479 11.3942 12.1933 12.4485C11.139 13.5027 9.7369 14.0837 8.24585 14.0837H8.24625ZM8.24625 2.94444C5.18256 2.94444 2.69004 5.43696 2.69004 8.50065C2.69004 11.5643 5.18256 14.0577 8.24625 14.0577C11.3099 14.0577 13.8029 11.5647 13.8029 8.50065C13.8029 5.43655 11.3099 2.94444 8.24625 2.94444Z" fill="#FF0000"/>
</g>
<path id="Vector_16" d="M5.39854 4.83697C5.39854 4.83697 5.42736 4.6076 5.57066 4.54996C5.71436 4.49272 5.51342 4.14807 5.80083 4.03359C6.08743 3.91871 6.11666 4.26377 6.25955 4.29259C6.40285 4.3206 6.66144 4.20612 6.66144 4.43548C6.66144 4.66484 7.00568 4.86498 7.20622 4.86498C7.40676 4.86498 7.57969 4.72208 7.55047 5.20963C7.52205 5.69758 7.6077 5.95535 7.78064 6.013C7.95235 6.07064 8.35424 6.24236 8.58401 6.35683C8.81256 6.47212 9.24408 6.27077 9.47304 6.35683C9.7024 6.44371 9.73122 6.55778 10.0178 6.52896C10.3048 6.50054 10.6491 6.35683 10.9933 6.52896C11.3371 6.70189 11.4228 6.87401 11.2803 6.90243C11.137 6.93044 11.0506 6.95967 10.9645 7.21744C10.8788 7.47603 10.7351 7.67657 10.4485 7.82028C10.4485 7.82028 10.3621 8.02082 10.0462 8.02082C9.73041 8.02082 9.7024 8.07887 9.61634 8.19294C9.53068 8.30863 9.4434 8.62365 9.30051 8.76735C9.15761 8.91065 9.4434 8.96789 9.50186 9.28413C9.56032 9.59955 9.67398 9.48507 9.73122 9.71403C9.78805 9.94257 10.0462 10.0006 10.1615 9.8285C10.276 9.65598 10.2184 9.48507 10.3909 9.28413C10.563 9.08359 10.5058 8.88224 10.7067 8.91106C10.9077 8.93948 10.9645 8.96789 10.9077 9.28413C10.85 9.59955 11.0217 9.9718 11.0794 10.0867C11.137 10.202 11.1934 10.4309 11.2227 10.6031C11.2507 10.7752 11.5097 10.7183 11.3083 11.1771C11.1074 11.6366 11.4236 11.4929 11.2507 11.9232C11.079 12.3535 11.2799 12.4392 11.1074 12.4968C10.9353 12.554 10.85 12.4111 10.7924 12.554C10.7351 12.6973 10.6779 13.0416 10.6202 12.9555C10.5248 12.813 10.5342 12.8983 10.5342 12.4684C10.5342 12.0385 10.3182 11.7815 10.3621 11.2924C10.3909 10.9761 9.989 11.063 10.0178 10.489C10.0462 9.91497 9.75964 10.202 9.50186 10.1439C9.24327 10.0867 9.04233 10.202 8.81296 10.0294C8.81296 10.0294 8.89009 10.1159 8.71757 10.1159C8.71757 10.1159 8.61243 10.202 8.75613 10.489C8.89903 10.7752 8.78374 10.9469 8.66967 11.0338C8.55478 11.1198 8.32583 11.0049 8.15371 11.2343C7.98158 11.4645 7.92394 11.3492 7.80865 11.5213C7.69417 11.6942 7.52205 11.5213 7.52205 11.4352C7.52205 11.3492 7.35033 11.5221 7.29269 11.6074C7.23504 11.6946 7.00609 11.5802 7.00609 11.4068C7.00609 11.2335 6.89121 11.4649 6.83316 11.579C6.77551 11.6942 6.80515 11.6358 6.6042 11.5213C6.40326 11.4068 6.31638 11.8375 6.17349 11.4933C6.031 11.1482 6.23113 11.3496 6.20231 10.8905C6.17349 10.4309 6.05942 10.2016 6.14507 9.85733C6.23154 9.51308 6.113 9.70509 6.17065 9.27438C6.17065 9.27438 5.91612 9.2549 5.85848 8.96749C5.80124 8.68129 5.62871 8.59483 5.68635 8.30823C5.744 8.02 6.0306 8.25099 6.0306 7.81987C6.0306 7.38875 5.97295 7.41798 5.82965 7.41798C5.68635 7.41798 5.37053 7.16021 5.22682 6.95926C5.08352 6.75872 5.16999 6.47172 5.31329 6.47172C5.45659 6.47172 5.57106 6.49973 5.82965 6.21354C6.08784 5.92653 6.14467 6.21354 6.34561 6.07024C6.54656 5.92653 6.3176 5.63993 6.20231 5.55428C6.08784 5.4674 5.65753 5.29528 5.65753 5.12397C5.65753 4.95266 5.37012 5.00868 5.39894 4.83697H5.39854Z" fill="#FFF100"/>
<path id="Vector_17" d="M12.7735 12.4473L13.3678 12.7006L13.7924 12.2139L13.7352 12.8573L14.3291 13.1114L13.6994 13.2559L13.6414 13.8994L13.3097 13.3448L12.6797 13.4881L13.1043 13.0018L12.7735 12.4473Z" fill="#EC1C24"/>
<path id="Vector_18" d="M13.8838 10.58L14.5284 10.6052L14.7537 9.99951L14.9283 10.621L15.5742 10.6474L15.0363 11.0067L15.2112 11.6286L14.7038 11.2283L14.1655 11.5864L14.3904 10.9803L13.8838 10.58Z" fill="#EC1C24"/>
<path id="Vector_19" d="M2.62494 10.6009L2.11953 11.0024L2.34483 11.6085L1.80614 11.2513L1.29992 11.6527L1.47245 11.0304L0.93457 10.6728L1.58043 10.6448L1.75377 10.0225L1.97948 10.6277L2.62494 10.6009Z" fill="#EC1C24"/>
<path id="Vector_20" d="M3.73895 12.4635L3.40932 13.0188L3.83556 13.5047L3.20512 13.3631L2.87468 13.918L2.8146 13.275L2.18457 13.1321L2.77807 12.8763L2.7192 12.2329L3.14545 12.7184L3.73895 12.4635Z" fill="#EC1C24"/>
</g>
</g>
<defs>
<clipPath id="clip0_5016_104282">
<rect width="16.5002" height="16.501" fill="white" transform="translate(0 0.249512)"/>
</clipPath>
</defs>
</svg>
