<svg width="32" height="32" viewBox="0 0 32 32" fill="none" xmlns="http://www.w3.org/2000/svg">
<path d="M15.9993 2.66634C23.3527 2.66634 29.3327 8.64767 29.3327 15.9997C29.3327 23.3517 23.3527 29.333 15.9993 29.333C8.64735 29.333 2.66602 23.3517 2.66602 15.9997C2.66602 8.64767 8.64735 2.66634 15.9993 2.66634Z" fill="#318DDE"/>
<path d="M14.0753 10.3721C14.33 10.3721 14.586 10.4695 14.7807 10.6641L19.43 15.2908C19.618 15.4788 19.7233 15.7335 19.7233 16.0001C19.7233 16.2655 19.618 16.5201 19.43 16.7081L14.7807 21.3375C14.39 21.7268 13.758 21.7268 13.3673 21.3348C12.978 20.9428 12.9793 20.3095 13.37 19.9201L17.3073 16.0001L13.37 12.0801C12.9793 11.6908 12.978 11.0588 13.3673 10.6668C13.562 10.4695 13.8193 10.3721 14.0753 10.3721Z" fill="white"/>
</svg>
