<svg width="19" height="18" viewBox="0 0 19 18" fill="none" xmlns="http://www.w3.org/2000/svg">
<g clip-path="url(#clip0_2169_50130)">
<path d="M2.75 16.482C2.55109 16.482 2.36032 16.403 2.21967 16.2623C2.07902 16.1217 2 15.9309 2 15.732V0H0.5V15.732C0.5 16.3287 0.737053 16.901 1.15901 17.323C1.58097 17.7449 2.15326 17.982 2.75 17.982H18.5V16.482H2.75Z" fill="#374957"/>
<path d="M5.75006 9H4.25006V14.25H5.75006V9Z" fill="#374957"/>
<path d="M9.49989 7.49988H7.99988V14.2499H9.49989V7.49988Z" fill="#374957"/>
<path d="M13.25 9.74988H11.75V14.2499H13.25V9.74988Z" fill="#374957"/>
<path d="M17.0001 6.75H15.5001V14.25H17.0001V6.75Z" fill="#374957"/>
<path d="M8.74985 3.3106L12.4999 7.0606L18.2801 1.28035L17.2196 0.219849L12.4999 4.9396L8.74985 1.1896L4.4696 5.46985L5.5301 6.53035L8.74985 3.3106Z" fill="#374957"/>
</g>
<defs>
<clipPath id="clip0_2169_50130">
<rect width="18" height="18" fill="white" transform="translate(0.5)"/>
</clipPath>
</defs>
</svg>
