<svg width="25" height="24" viewBox="0 0 25 24" fill="none" xmlns="http://www.w3.org/2000/svg">
<path fill-rule="evenodd" clip-rule="evenodd" d="M10.0084 1C9.74294 1.00006 9.4884 1.10545 9.30073 1.29299L3.29522 7.29269C3.1075 7.48017 3.00201 7.73447 3.00195 7.99965V19.9991C3.00195 20.7947 3.31831 21.5577 3.88144 22.1203C4.44457 22.6828 5.20833 22.9989 6.00471 22.9989H7.00563C7.27109 22.9989 7.52567 22.8936 7.71338 22.706C7.90109 22.5185 8.00654 22.2642 8.00654 21.999C8.00654 21.7337 7.90109 21.4794 7.71338 21.2919C7.52567 21.1044 7.27109 20.999 7.00563 20.999H6.00471C5.73925 20.999 5.48466 20.8937 5.29695 20.7061C5.10924 20.5186 5.00379 20.2643 5.00379 19.9991V8.9996H10.0084C10.2738 8.9996 10.5284 8.89425 10.7161 8.70672C10.9038 8.51919 11.0093 8.26485 11.0093 7.99965V2.9999H18.0157C18.2812 2.9999 18.5358 3.10525 18.7235 3.29278C18.9112 3.48031 19.0166 3.73465 19.0166 3.99985V10.9995C19.0166 11.2647 19.1221 11.519 19.3098 11.7066C19.4975 11.8941 19.7521 11.9995 20.0176 11.9995C20.283 11.9995 20.5376 11.8941 20.7253 11.7066C20.913 11.519 21.0185 11.2647 21.0185 10.9995V3.99985C21.0185 3.20424 20.7021 2.44122 20.139 1.87864C19.5759 1.31605 18.8121 1 18.0157 1H10.0084ZM9.00746 6.9997H6.41909L9.00746 4.41383V6.9997ZM10.3167 23.5619C10.4748 23.7569 10.704 23.9159 10.9943 23.9749C11.2645 24.0308 11.5017 23.9799 11.6659 23.9199C11.9682 23.8099 12.2064 23.6029 12.3605 23.4499C12.6048 23.2099 12.861 22.8839 13.1142 22.5159C14.2252 22.1329 15.7847 21.781 17.3021 21.559C18.1458 21.436 18.9336 21.359 19.5962 21.333C19.8584 21.643 20.0976 21.908 20.2968 22.1089C20.4209 22.2349 20.5591 22.3659 20.6952 22.4659C20.7552 22.5109 20.8703 22.5909 21.0175 22.6479C21.0945 22.6779 21.598 22.8699 22.0614 22.4959C22.3357 22.2759 22.5879 22.0289 22.7641 21.752C22.9412 21.472 23.1084 21.046 22.9693 20.562C22.8331 20.087 22.4788 19.8221 22.2176 19.6841C21.9526 19.5529 21.669 19.4632 21.3768 19.4181C21.1003 19.372 20.8212 19.3436 20.541 19.3331C19.836 18.4495 19.1584 17.5445 18.5092 16.6192C17.9426 15.8202 17.4077 14.9993 16.9057 14.1583C16.9507 13.9654 16.9878 13.7814 17.0178 13.6054C17.0679 13.3054 17.0979 13.0034 17.0909 12.7204C17.0908 12.4089 17.0239 12.101 16.8947 11.8175C16.8073 11.6311 16.6804 11.466 16.5228 11.3336C16.3651 11.2012 16.1806 11.1046 15.9819 11.0505C15.5795 10.9425 15.1961 11.0235 14.9019 11.1325C14.4485 11.2995 14.1992 11.6725 14.1131 12.0354C14.0571 12.3054 14.0616 12.5844 14.1262 12.8524C14.2202 13.2904 14.4394 13.7954 14.6927 14.2883C14.7147 14.3323 14.7377 14.3773 14.7617 14.4213C14.5225 15.2063 14.1702 16.1312 13.7508 17.0892C13.1372 18.4921 12.4156 19.8831 11.795 20.877C11.3716 21.054 10.9803 21.257 10.684 21.491C10.4818 21.65 10.2106 21.908 10.0804 22.2859C9.9213 22.7499 10.0344 23.2139 10.3167 23.5619ZM11.8861 23.0939L11.8921 23.0869C11.8903 23.0894 11.8883 23.0917 11.8861 23.0939ZM17.0118 19.5801C16.1971 19.7001 15.3583 19.8561 14.5626 20.038C14.9169 19.3511 15.2662 18.6191 15.5855 17.8902C15.7657 17.4772 15.9408 17.0572 16.103 16.6422C16.3502 17.0162 16.6084 17.3952 16.8707 17.7672C17.2679 18.3329 17.675 18.8916 18.0918 19.4431C17.7345 19.4811 17.3711 19.5281 17.0118 19.5801ZM16.0749 12.3834V12.3814V12.3834Z" fill="#EF412C"/>
</svg>
