<svg width="18" height="18" viewBox="0 0 18 18" fill="none" xmlns="http://www.w3.org/2000/svg">
<g clip-path="url(#clip0_2169_50143)">
<path d="M9.02463 14.2582C9.36937 14.2588 9.71083 14.1913 10.0294 14.0595C10.3479 13.9277 10.6373 13.7342 10.8809 13.4902L13.8201 10.551L12.2294 8.96025L10.1429 11.0467L10.1249 0H7.87488L7.89288 11.0317L5.81988 8.96025L4.22913 10.551L7.16838 13.4902C7.41189 13.7343 7.70125 13.9278 8.01982 14.0596C8.33839 14.1914 8.67987 14.2589 9.02463 14.2582V14.2582Z" fill="#374957"/>
<path d="M15.75 11.9999V15.7499H2.25V11.9999H0V15.7499C0 16.3466 0.237053 16.9189 0.65901 17.3409C1.08097 17.7628 1.65326 17.9999 2.25 17.9999H15.75C16.3467 17.9999 16.919 17.7628 17.341 17.3409C17.7629 16.9189 18 16.3466 18 15.7499V11.9999H15.75Z" fill="#374957"/>
</g>
<defs>
<clipPath id="clip0_2169_50143">
<rect width="18" height="18" fill="white"/>
</clipPath>
</defs>
</svg>
