<svg width="11" height="8" viewBox="0 0 11 8" fill="none" xmlns="http://www.w3.org/2000/svg">
<g clip-path="url(#clip0_1936_45920)">
<path d="M5.8418 0.293457L6.59121 0.657129L5.96699 1.20869" stroke="#B38F00" stroke-width="0.584375" stroke-linecap="round" stroke-linejoin="round"/>
<path d="M3.54834 2.53329C3.80886 2.04245 4.18153 1.62001 4.63606 1.30032C5.09059 0.980624 5.61414 0.772701 6.16416 0.693451" stroke="#B38F00" stroke-width="0.584375" stroke-linecap="round" stroke-linejoin="round"/>
<path d="M7.47051 0.747948C7.77045 0.817632 8.06005 0.926028 8.33203 1.07041C10.0564 1.98838 10.7111 4.12881 9.79414 5.85322C9.52912 6.35281 9.148 6.78144 8.68284 7.10307C8.21768 7.4247 7.68208 7.62992 7.12109 7.70146" stroke="#B38F00" stroke-width="0.584375" stroke-linecap="round" stroke-linejoin="round" stroke-dasharray="0.39 1.17"/>
<path d="M7.06982 3.58603L7.82842 2.77666" stroke="#B38F00" stroke-width="0.584375" stroke-linecap="round" stroke-linejoin="round"/>
<path d="M6.6708 4.59639C6.99354 4.59639 7.25518 4.33475 7.25518 4.01201C7.25518 3.68927 6.99354 3.42764 6.6708 3.42764C6.34806 3.42764 6.08643 3.68927 6.08643 4.01201C6.08643 4.33475 6.34806 4.59639 6.6708 4.59639Z" stroke="#B38F00" stroke-width="0.584375" stroke-linecap="round" stroke-linejoin="round"/>
<path d="M3.36392 5.09638H0.792236" stroke="#B38F00" stroke-width="0.584375" stroke-linecap="round" stroke-linejoin="round"/>
<path d="M7.12241 7.70654H3.49976" stroke="#B38F00" stroke-width="0.584375" stroke-linecap="round" stroke-linejoin="round"/>
<path d="M4.13945 6.40146H1.96094" stroke="#B38F00" stroke-width="0.584375" stroke-linecap="round" stroke-linejoin="round"/>
<path d="M3.49341 2.52509H2.58423" stroke="#B38F00" stroke-width="0.584375" stroke-linecap="round" stroke-linejoin="round"/>
<path d="M3.09453 3.79131H1.96094" stroke="#B38F00" stroke-width="0.584375" stroke-linecap="round" stroke-linejoin="round"/>
</g>
<defs>
<clipPath id="clip0_1936_45920">
<rect width="10" height="7.99746" fill="white" transform="translate(0.5 0.00126648)"/>
</clipPath>
</defs>
</svg>
