<svg width="96" height="96" viewBox="0 0 96 96" fill="none" xmlns="http://www.w3.org/2000/svg">
<path d="M96 48C96 74.5097 74.5097 96 48 96C21.4903 96 0 74.5097 0 48C0 21.4903 21.4903 0 48 0C74.5097 0 96 21.4903 96 48ZM11.2225 48C11.2225 68.3117 27.6883 84.7775 48 84.7775C68.3117 84.7775 84.7775 68.3117 84.7775 48C84.7775 27.6883 68.3117 11.2225 48 11.2225C27.6883 11.2225 11.2225 27.6883 11.2225 48Z" fill="#DFDFDF"/>
<path d="M92.0468 28.9245C88.2098 20.0645 81.79 12.5676 73.626 7.41294C65.4619 2.25829 55.9331 -0.314473 46.2841 0.0306799C36.6351 0.375833 27.3145 3.62286 19.5396 9.34765C11.7647 15.0725 5.89695 23.0089 2.70278 32.1204C-0.491394 41.2319 -0.863522 51.0949 1.635 60.4212C4.13351 69.7475 9.38653 78.1035 16.7079 84.3979C24.0294 90.6923 33.0788 94.6324 42.6744 95.7036C52.2699 96.7749 61.9655 94.9275 70.4948 90.4026L65.2355 80.4889C58.7004 83.9558 51.2716 85.3713 43.9195 84.5505C36.5674 83.7297 29.6337 80.7108 24.0241 75.888C18.4144 71.0653 14.3895 64.6629 12.4752 57.5171C10.5608 50.3713 10.8459 42.8143 13.2933 35.8331C15.7407 28.8518 20.2365 22.7709 26.1936 18.3846C32.1508 13.9983 39.2922 11.5104 46.6853 11.246C54.0783 10.9815 61.3793 12.9527 67.6346 16.9022C73.8899 20.8517 78.8087 26.5958 81.7486 33.3844L92.0468 28.9245Z" fill="#5CB85C"/>
<path d="M39.1318 44.2705L36.7412 44.5342C36.6826 44.042 36.5303 43.6787 36.2842 43.4443C36.0381 43.21 35.7188 43.0928 35.3262 43.0928C34.8047 43.0928 34.3623 43.3271 33.999 43.7959C33.6416 44.2646 33.416 45.2402 33.3223 46.7227C33.9375 45.9961 34.7021 45.6328 35.6162 45.6328C36.6475 45.6328 37.5293 46.0254 38.2617 46.8105C39 47.5957 39.3691 48.6094 39.3691 49.8516C39.3691 51.1699 38.9824 52.2275 38.209 53.0244C37.4355 53.8213 36.4424 54.2197 35.2295 54.2197C33.9287 54.2197 32.8594 53.7158 32.0215 52.708C31.1836 51.6943 30.7646 50.0361 30.7646 47.7334C30.7646 45.3721 31.2012 43.6699 32.0742 42.627C32.9473 41.584 34.0811 41.0625 35.4756 41.0625C36.4541 41.0625 37.2627 41.3379 37.9014 41.8887C38.5459 42.4336 38.9561 43.2275 39.1318 44.2705ZM33.5332 49.6582C33.5332 50.4609 33.7178 51.082 34.0869 51.5215C34.4561 51.9551 34.8779 52.1719 35.3525 52.1719C35.8096 52.1719 36.1904 51.9932 36.4951 51.6357C36.7998 51.2783 36.9521 50.6924 36.9521 49.8779C36.9521 49.04 36.7881 48.4277 36.46 48.041C36.1318 47.6484 35.7217 47.4521 35.2295 47.4521C34.7549 47.4521 34.3535 47.6396 34.0254 48.0146C33.6973 48.3838 33.5332 48.9316 33.5332 49.6582ZM45.717 54V51.4072H40.4435V49.2451L46.0334 41.0625H48.1076V49.2363H49.7072V51.4072H48.1076V54H45.717ZM45.717 49.2363V44.833L42.755 49.2363H45.717ZM51.5111 54V51.5303H53.9808V54H51.5111ZM56.1186 50.6865L58.5796 50.4316C58.6499 50.9883 58.8579 51.4307 59.2036 51.7588C59.5493 52.0811 59.9477 52.2422 60.3989 52.2422C60.9145 52.2422 61.3511 52.0342 61.7085 51.6182C62.0659 51.1963 62.2446 50.5635 62.2446 49.7197C62.2446 48.9287 62.0659 48.3369 61.7085 47.9443C61.3569 47.5459 60.897 47.3467 60.3286 47.3467C59.6196 47.3467 58.9839 47.6602 58.4214 48.2871L56.4175 47.9971L57.6831 41.291H64.2134V43.6025H59.5552L59.1684 45.791C59.7192 45.5156 60.2817 45.3779 60.8559 45.3779C61.9516 45.3779 62.8804 45.7764 63.6421 46.5732C64.4038 47.3701 64.7846 48.4043 64.7846 49.6758C64.7846 50.7363 64.477 51.6826 63.8618 52.5146C63.0239 53.6514 61.8608 54.2197 60.3725 54.2197C59.1831 54.2197 58.2134 53.9004 57.4634 53.2617C56.7134 52.623 56.2651 51.7646 56.1186 50.6865Z" fill="black"/>
</svg>
