<svg width="25" height="24" viewBox="0 0 25 24" fill="none" xmlns="http://www.w3.org/2000/svg">
<path d="M18.7858 6.28582H19.9287M5.64296 0.571533H19.3572C21.882 0.571533 23.9287 2.61823 23.9287 5.14296V18.8572C23.9287 21.382 21.882 23.4287 19.3572 23.4287H5.64296C3.11823 23.4287 1.07153 21.382 1.07153 18.8572V5.14296C1.07153 2.61823 3.11823 0.571533 5.64296 0.571533ZM12.5001 16.5715C9.97537 16.5715 7.92868 14.5248 7.92868 12.0001C7.92868 9.47537 9.97537 7.42868 12.5001 7.42868C15.0248 7.42868 17.0715 9.47537 17.0715 12.0001C17.0715 14.5248 15.0248 16.5715 12.5001 16.5715Z" stroke="#2097D4"/>
</svg>
