<svg width="23" height="23" viewBox="0 0 23 23" fill="none" xmlns="http://www.w3.org/2000/svg">
<path d="M22.5 11.2711C22.4998 13.9991 21.5341 16.6346 19.782 18.6887C18.0299 20.7427 15.6102 22.0761 12.9717 22.4415C12.4839 22.5087 11.9922 22.5423 11.5 22.5421C10.8346 22.5423 10.1705 22.4811 9.51576 22.3592C6.98475 21.8829 4.69672 20.5127 3.04954 18.4869C1.40236 16.4611 0.500216 13.9078 0.5 11.2711C0.5 9.79092 0.784524 8.32528 1.33733 6.95781C1.89013 5.59034 2.70038 4.34783 3.72183 3.30122C5.78473 1.18748 8.58262 0 11.5 0C12.9445 0 14.3749 0.291535 15.7095 0.857958C17.0441 1.42438 18.2567 2.2546 19.2782 3.30122C20.2996 4.34783 21.1099 5.59034 21.6627 6.95781C22.2155 8.32528 22.5 9.79092 22.5 11.2711Z" fill="#2097D4"/>
<path d="M13.1767 9.15123V11.3393H16.1048L15.617 14.4647H13.175V22.4029L13.1169 22.4143C13.0682 22.4239 13.0195 22.4335 12.9708 22.4414C12.483 22.5086 11.9913 22.5422 11.4991 22.5421C10.8336 22.5423 10.1695 22.481 9.51483 22.3591V14.4629H6.77124V11.3393H9.51483V8.83703C9.51483 6.02408 11.2847 4.46094 13.7857 4.46094C14.5801 4.46094 15.4334 4.58522 16.2269 4.71037V7.58547H14.8235C13.4816 7.58547 13.1767 8.27601 13.1767 9.15123Z" fill="white"/>
</svg>
