<svg width="16" height="16" viewBox="0 0 16 16" fill="none" xmlns="http://www.w3.org/2000/svg">
<path d="M5.97274 12.2405L10.1225 8.10009L10.1199 10.3996C10.1195 10.6648 10.2245 10.9194 10.4118 11.1072C10.5991 11.295 10.8534 11.4007 11.1186 11.401C11.3838 11.4014 11.6384 11.2964 11.8262 11.1091C12.014 10.9218 12.1197 10.6676 12.1201 10.4023L12.1239 7.02142C12.1237 6.40281 11.8783 5.8095 11.4414 5.37158C11.0044 4.93367 10.4117 4.68688 9.79307 4.68533L6.41216 4.6815C6.14692 4.68126 5.89245 4.7864 5.70473 4.97378C5.51701 5.16117 5.41142 5.41545 5.41118 5.68069C5.41094 5.94593 5.51608 6.2004 5.70346 6.38812C5.89085 6.57584 6.14513 6.68143 6.41037 6.68167L8.70988 6.68427L4.56013 10.8246C4.37238 11.012 4.26674 11.2662 4.26644 11.5314C4.26614 11.7966 4.3712 12.0511 4.55853 12.2389C4.74585 12.4266 5.00009 12.5322 5.2653 12.5325C5.53052 12.5328 5.78499 12.4278 5.97274 12.2405Z" fill="#FCC30B"/>
</svg>
