<svg width="16" height="16" viewBox="0 0 16 16" fill="none" xmlns="http://www.w3.org/2000/svg">
<path d="M7.00004 3.33339L7.00004 9.19539L5.37404 7.56939C5.18654 7.3818 4.93219 7.27637 4.66695 7.27631C4.40171 7.27625 4.14731 7.38155 3.95971 7.56906C3.77211 7.75657 3.66669 8.01092 3.66663 8.27616C3.66656 8.5414 3.77187 8.7958 3.95938 8.98339L6.35004 11.3741C6.78807 11.8109 7.38143 12.0562 8.00004 12.0562C8.61865 12.0562 9.21202 11.8109 9.65004 11.3741L12.0407 8.98339C12.2282 8.7958 12.3335 8.5414 12.3335 8.27616C12.3334 8.01092 12.228 7.75657 12.0404 7.56906C11.8528 7.38155 11.5984 7.27625 11.3331 7.27631C11.0679 7.27637 10.8136 7.3818 10.626 7.56939L9.00004 9.19539L9.00004 3.33339C9.00004 3.06818 8.89469 2.81382 8.70715 2.62629C8.51961 2.43875 8.26526 2.33339 8.00004 2.33339C7.73483 2.33339 7.48047 2.43875 7.29294 2.62629C7.1054 2.81382 7.00004 3.06818 7.00004 3.33339Z" fill="#D32F2F"/>
</svg>
