<svg width="16" height="16" viewBox="0 0 16 16" fill="none" xmlns="http://www.w3.org/2000/svg">
<path d="M9.00002 12.6666L9.00002 6.80464L10.626 8.43064C10.8135 8.61824 11.0679 8.72366 11.3331 8.72372C11.5984 8.72379 11.8528 8.61848 12.0404 8.43097C12.2279 8.24346 12.3334 7.98911 12.3334 7.72387C12.3335 7.45864 12.2282 7.20423 12.0407 7.01664L9.65002 4.62597C9.21199 4.18915 8.61863 3.94385 8.00002 3.94385C7.38141 3.94385 6.78804 4.18915 6.35002 4.62597L3.95935 7.01664C3.77184 7.20423 3.66654 7.45863 3.6666 7.72387C3.66666 7.98911 3.77209 8.24346 3.95968 8.43097C4.14728 8.61848 4.40168 8.72379 4.66692 8.72372C4.93216 8.72366 5.18651 8.61823 5.37402 8.43064L7.00002 6.80464L7.00002 12.6666C7.00002 12.9319 7.10537 13.1862 7.29291 13.3737C7.48045 13.5613 7.7348 13.6666 8.00002 13.6666C8.26523 13.6666 8.51959 13.5613 8.70712 13.3737C8.89466 13.1862 9.00002 12.9319 9.00002 12.6666Z" fill="#43A047"/>
</svg>
