<svg width="16" height="16" viewBox="0 0 16 16" fill="none" xmlns="http://www.w3.org/2000/svg">
<path d="M3.33336 8.99999L9.19536 8.99999L7.56936 10.626C7.38177 10.8135 7.27634 11.0678 7.27628 11.3331C7.27621 11.5983 7.38152 11.8527 7.56903 12.0403C7.75654 12.2279 8.01089 12.3333 8.27613 12.3334C8.54136 12.3335 8.79577 12.2282 8.98336 12.0407L11.374 9.64999C11.8108 9.21196 12.0562 8.6186 12.0562 7.99999C12.0562 7.38138 11.8108 6.78801 11.374 6.34999L8.98336 3.95932C8.79577 3.77181 8.54137 3.66651 8.27613 3.66657C8.01089 3.66663 7.75654 3.77206 7.56903 3.95965C7.38152 4.14725 7.27622 4.40165 7.27628 4.66689C7.27634 4.93213 7.38177 5.18648 7.56936 5.37399L9.19536 6.99999L3.33336 6.99999C3.06815 6.99999 2.81379 7.10534 2.62626 7.29288C2.43872 7.48042 2.33336 7.73477 2.33336 7.99999C2.33336 8.2652 2.43872 8.51956 2.62626 8.70709C2.81379 8.89463 3.06814 8.99999 3.33336 8.99999Z" fill="#F57C00"/>
</svg>
