<svg width="135" height="136" viewBox="0 0 135 136" fill="none" xmlns="http://www.w3.org/2000/svg">
<path d="M68.5601 102.015C68.1475 101.66 67.6214 101.465 67.077 101.465C66.5327 101.465 66.006 101.66 65.5933 102.015L50.4001 115.24C50.1576 115.453 49.9634 115.715 49.83 116.008C49.6966 116.302 49.6272 116.621 49.6265 116.944V133.739C49.6265 134.339 49.8648 134.914 50.2888 135.338C50.7127 135.762 51.2876 136 51.8872 136H82.2669C82.5635 136 82.8569 135.941 83.1308 135.828C83.4046 135.714 83.6533 135.547 83.8627 135.337C84.072 135.127 84.2384 134.878 84.3513 134.604C84.4641 134.33 84.5219 134.036 84.521 133.739V116.923C84.522 116.6 84.453 116.281 84.3195 115.987C84.1859 115.693 83.9905 115.431 83.7466 115.219L68.5601 102.015ZM80.0128 131.506H54.1413V117.969L67.0737 106.713L80.0128 117.969V131.506Z" fill="#F9A02A"/>
<path d="M111.485 87.4943C111.074 87.1366 110.547 86.9397 110.002 86.9397C109.456 86.9397 108.93 87.1366 108.519 87.4943L96.7197 97.759C96.4772 97.9718 96.283 98.2339 96.1496 98.5277C96.0161 98.8215 95.9468 99.1403 95.946 99.463V112.525C95.946 113.123 96.1832 113.697 96.6057 114.121C97.0282 114.544 97.6011 114.783 98.1995 114.785H121.804C122.403 114.783 122.976 114.544 123.398 114.121C123.821 113.697 124.058 113.123 124.058 112.525V99.463C124.057 99.1403 123.988 98.8215 123.854 98.5277C123.721 98.2339 123.527 97.9718 123.284 97.759L111.485 87.4943ZM119.544 110.277H100.46V100.474L110.006 92.165L119.51 100.474L119.544 110.277Z" fill="#F9A02A"/>
<path d="M133.55 68.2957L124.046 60.0065C123.634 59.6488 123.107 59.4519 122.562 59.4519C122.017 59.4519 121.49 59.6488 121.079 60.0065L111.575 68.2957C111.331 68.5074 111.135 68.7692 111.002 69.0632C110.868 69.3573 110.8 69.6767 110.801 69.9997V80.5425C110.801 81.1403 111.038 81.7136 111.461 82.1363C111.883 82.5589 112.457 82.7964 113.054 82.7964H132.097C132.696 82.7964 133.269 82.5592 133.693 82.1368C134.117 81.7143 134.356 81.1409 134.358 80.5425V69.9997C134.353 69.6744 134.278 69.3539 134.139 69.0599C133.999 68.766 133.799 68.5054 133.55 68.2957ZM129.81 78.2887H115.309V71.0248L122.579 64.7044L129.843 71.0248L129.81 78.2887Z" fill="#F9A02A"/>
<path d="M23.5161 80.5426V69.9998C23.5171 69.6768 23.4487 69.3574 23.3152 69.0633C23.1816 68.7693 22.9862 68.5075 22.7424 68.2958L13.2381 60.0065C12.8278 59.6493 12.3017 59.4526 11.7577 59.4526C11.2137 59.4526 10.6883 59.6493 10.278 60.0065L0.773681 68.2958C0.531182 68.5086 0.336966 68.7707 0.20353 69.0645C0.0700952 69.3583 0.000734496 69.6771 0 69.9998V80.5426C0.00179697 81.1409 0.24053 81.7143 0.664291 82.1368C1.08805 82.5593 1.66232 82.7965 2.26071 82.7965H21.2693C21.8658 82.7947 22.4372 82.5565 22.8584 82.134C23.2796 81.7115 23.5161 81.1392 23.5161 80.5426ZM19.0085 78.2888H4.47369V71.0249L11.7378 64.7045L19.0085 71.0249V78.2888Z" fill="#F9A02A"/>
<path d="M25.153 87.4943C24.7416 87.1366 24.2144 86.9397 23.6692 86.9397C23.1241 86.9397 22.5976 87.1366 22.1862 87.4943L10.3874 97.759C10.1435 97.9707 9.94814 98.2325 9.81459 98.5265C9.68104 98.8206 9.61202 99.14 9.61305 99.463V112.525C9.61305 113.123 9.85087 113.697 10.2734 114.121C10.6959 114.544 11.2687 114.783 11.8671 114.785H35.472C36.0704 114.783 36.6433 114.544 37.0658 114.121C37.4883 113.697 37.7254 113.123 37.7254 112.525V99.463C37.7247 99.1403 37.6553 98.8215 37.5219 98.5277C37.3885 98.2339 37.1943 97.9718 36.9518 97.759L25.153 87.4943ZM33.2113 110.277H14.155V100.474L23.6997 92.165L33.2451 100.474L33.2113 110.277Z" fill="#F9A02A"/>
<path d="M42.9881 58.8113H34.2038V53.3465L39.8861 48.4042L41.5488 49.762C41.7766 49.951 42.0398 50.0932 42.3225 50.1806C42.6053 50.2681 42.9023 50.299 43.197 50.2716C43.4917 50.2442 43.7785 50.159 44.0403 50.0209C44.302 49.8827 44.5341 49.6944 44.7231 49.4666C44.9121 49.2388 45.054 48.976 45.1415 48.6933C45.2289 48.4105 45.2597 48.1134 45.2323 47.8187C45.2049 47.5239 45.1198 47.2375 44.9817 46.9757C44.8436 46.7139 44.6552 46.4818 44.4274 46.2928L41.2909 43.6861C40.8818 43.3405 40.364 43.1509 39.8284 43.1509C39.2929 43.1509 38.7744 43.3405 38.3653 43.6861L30.4495 50.6174C30.2056 50.8291 30.0102 51.0909 29.8767 51.3849C29.7431 51.679 29.6748 51.9984 29.6758 52.3213V61.0992C29.6758 61.6976 29.913 62.2715 30.3354 62.6953C30.7579 63.119 31.3308 63.3581 31.9292 63.3599H42.9683C43.2751 63.3767 43.582 63.3308 43.8705 63.225C44.159 63.1191 44.423 62.9556 44.6462 62.7443C44.8694 62.5331 45.0472 62.2784 45.1686 61.9962C45.2901 61.7139 45.3523 61.4098 45.3523 61.1025C45.3523 60.7952 45.2901 60.4913 45.1686 60.209C45.0472 59.9267 44.8694 59.6721 44.6462 59.4608C44.423 59.2496 44.159 59.086 43.8705 58.9802C43.582 58.8743 43.2751 58.8284 42.9683 58.8453L42.9881 58.8113Z" fill="#F9A02A"/>
<path d="M104.365 61.099V52.3552C104.365 52.0325 104.295 51.7135 104.162 51.4197C104.028 51.126 103.834 50.8641 103.592 50.6512L95.6892 43.7741C95.2811 43.4291 94.7644 43.2397 94.23 43.2397C93.6956 43.2397 93.1782 43.4291 92.7702 43.7741L89.627 46.381C89.3993 46.57 89.2109 46.8019 89.0728 47.0637C88.9347 47.3255 88.8496 47.612 88.8222 47.9067C88.7948 48.2014 88.8256 48.4987 88.913 48.7815C89.0005 49.0642 89.143 49.327 89.332 49.5548C89.521 49.7826 89.7531 49.9708 90.0149 50.1089C90.2767 50.247 90.5628 50.3322 90.8575 50.3597C91.1522 50.3871 91.4492 50.3563 91.732 50.2688C92.0147 50.1814 92.2779 50.039 92.5056 49.85L94.1757 48.4923L99.8513 53.4345V58.8995H91.0663C90.4891 58.9312 89.9456 59.1827 89.5482 59.6026C89.1507 60.0224 88.9296 60.5786 88.9296 61.1567C88.9296 61.7348 89.1507 62.291 89.5482 62.7109C89.9456 63.1307 90.4891 63.3823 91.0663 63.414H102.105C102.406 63.414 102.705 63.3539 102.982 63.2369C103.26 63.1199 103.512 62.9485 103.723 62.7328C103.934 62.517 104.099 62.2614 104.209 61.9808C104.319 61.7002 104.373 61.4005 104.365 61.099Z" fill="#F9A02A"/>
<path d="M84.0798 8.14652H83.0276V2.25392C83.0258 1.65553 82.7864 1.08214 82.3627 0.659651C81.9389 0.237162 81.3653 -2.69813e-06 80.7669 0H53.3944C52.7966 0 52.2233 0.237465 51.8006 0.660148C51.3779 1.08283 51.141 1.65615 51.141 2.25392V8.14652H50.1359C49.5364 8.14652 48.9615 8.3847 48.5375 8.80866C48.1136 9.23261 47.8752 9.80767 47.8752 10.4072V86.5432C47.8584 86.85 47.9046 87.1572 48.0104 87.4456C48.1163 87.7342 48.2798 87.998 48.4911 88.2212C48.7024 88.4443 48.9567 88.6221 49.2389 88.7436C49.5212 88.8651 49.8253 88.9277 50.1326 88.9277C50.4399 88.9277 50.744 88.8651 51.0263 88.7436C51.3086 88.6221 51.5628 88.4443 51.7741 88.2212C51.9854 87.998 52.1489 87.7342 52.2548 87.4456C52.3606 87.1572 52.4068 86.85 52.39 86.5432V12.6542H81.833V21.6561H75.5122C75.2163 21.6561 74.9232 21.7145 74.6497 21.8278C74.3763 21.9411 74.1278 22.107 73.9185 22.3162C73.7092 22.5255 73.5431 22.774 73.4299 23.0475C73.3166 23.321 73.2582 23.614 73.2582 23.91C73.2582 24.206 73.3166 24.4991 73.4299 24.7725C73.5431 25.046 73.7092 25.2945 73.9185 25.5038C74.1278 25.7131 74.3763 25.8791 74.6497 25.9924C74.9232 26.1057 75.2163 26.1639 75.5122 26.1639H81.833V34.8874H75.5122C74.935 34.9191 74.3922 35.1708 73.9947 35.5906C73.5973 36.0105 73.3755 36.5667 73.3755 37.1448C73.3755 37.7229 73.5973 38.2789 73.9947 38.6988C74.3922 39.1186 74.935 39.3704 75.5122 39.402H81.833V47.8268H75.5122C74.9145 47.8268 74.3412 48.0643 73.9185 48.487C73.4958 48.9097 73.2582 49.483 73.2582 50.0807C73.2582 50.6785 73.4958 51.2518 73.9185 51.6745C74.3412 52.0972 74.9145 52.3347 75.5122 52.3347H81.833V60.7595H75.5122C74.935 60.7911 74.3922 61.0427 73.9947 61.4625C73.5973 61.8824 73.3755 62.4386 73.3755 63.0167C73.3755 63.5948 73.5973 64.151 73.9947 64.5709C74.3922 64.9907 74.935 65.2423 75.5122 65.2739H81.833V86.5364C81.833 86.8324 81.8907 87.1255 82.004 87.3989C82.1173 87.6724 82.2833 87.9209 82.4926 88.1302C82.7019 88.3395 82.9504 88.5055 83.2239 88.6188C83.4973 88.732 83.7904 88.7903 84.0864 88.7903C84.3824 88.7903 84.6754 88.732 84.9489 88.6188C85.2224 88.5055 85.4709 88.3395 85.6801 88.1302C85.8894 87.9209 86.0555 87.6724 86.1688 87.3989C86.282 87.1255 86.3405 86.8324 86.3405 86.5364V10.4004C86.3387 9.80205 86.0999 9.22866 85.6762 8.80617C85.2524 8.38368 84.6781 8.14652 84.0798 8.14652ZM55.6551 4.51446H78.5128V8.14652H55.6551V4.51446Z" fill="#6FB46B"/>
<path d="M60.7078 75.1455V86.5371C60.7078 86.8331 60.7656 87.1262 60.8788 87.3996C60.9921 87.6731 61.1582 87.9216 61.3675 88.1309C61.5767 88.3401 61.8253 88.5062 62.0987 88.6195C62.3722 88.7327 62.6652 88.791 62.9612 88.791C63.2572 88.791 63.5503 88.7327 63.8237 88.6195C64.0972 88.5062 64.3457 88.3401 64.555 88.1309C64.7643 87.9216 64.9303 87.6731 65.0436 87.3996C65.1569 87.1262 65.2153 86.8331 65.2153 86.5371V77.3926H68.9359V86.5235C68.919 86.8303 68.9646 87.1375 69.0705 87.426C69.1763 87.7145 69.3398 87.9783 69.5511 88.2015C69.7624 88.4246 70.0167 88.6024 70.2989 88.7239C70.5812 88.8454 70.8853 88.908 71.1926 88.908C71.4999 88.908 71.804 88.8454 72.0863 88.7239C72.3686 88.6024 72.6235 88.4246 72.8348 88.2015C73.046 87.9783 73.2096 87.7145 73.3154 87.426C73.4213 87.1375 73.4668 86.8303 73.45 86.5235V75.1319C73.45 74.5342 73.2124 73.961 72.7897 73.5383C72.367 73.1156 71.7937 72.8782 71.1959 72.8782H62.9612C62.6641 72.8782 62.3704 72.9369 62.0961 73.051C61.8217 73.1652 61.5723 73.3322 61.3628 73.543C61.1533 73.7537 60.988 74.0038 60.8755 74.2789C60.7631 74.5539 60.706 74.8484 60.7078 75.1455Z" fill="#6FB46B"/>
<path d="M66.7543 26.1643H67.9556C68.2516 26.1643 68.5447 26.1061 68.8181 25.9928C69.0916 25.8795 69.3401 25.7135 69.5494 25.5042C69.7587 25.2949 69.9247 25.0464 70.038 24.7729C70.1513 24.4995 70.2097 24.2064 70.2097 23.9104C70.2097 23.6144 70.1513 23.3213 70.038 23.0479C69.9247 22.7744 69.7587 22.5259 69.5494 22.3166C69.3401 22.1074 69.0916 21.9415 68.8181 21.8282C68.5447 21.7149 68.2516 21.6565 67.9556 21.6565H66.7543C66.4583 21.6565 66.1653 21.7149 65.8918 21.8282C65.6184 21.9415 65.3698 22.1074 65.1606 22.3166C64.9513 22.5259 64.7852 22.7744 64.672 23.0479C64.5587 23.3213 64.5002 23.6144 64.5002 23.9104C64.5002 24.2064 64.5587 24.4995 64.672 24.7729C64.7852 25.0464 64.9513 25.2949 65.1606 25.5042C65.3698 25.7135 65.6184 25.8795 65.8918 25.9928C66.1653 26.1061 66.4583 26.1643 66.7543 26.1643Z" fill="#EF412C"/>
<path d="M57.4274 26.1643H58.6353C59.2331 26.1643 59.8064 25.9269 60.2291 25.5042C60.6518 25.0815 60.8894 24.5082 60.8894 23.9104C60.8894 23.3126 60.6518 22.7393 60.2291 22.3166C59.8064 21.894 59.2331 21.6565 58.6353 21.6565H57.4274C57.1314 21.6565 56.8384 21.7149 56.5649 21.8282C56.2915 21.9415 56.0429 22.1074 55.8337 22.3166C55.6244 22.5259 55.4583 22.7744 55.345 23.0479C55.2318 23.3213 55.1733 23.6144 55.1733 23.9104C55.1733 24.2064 55.2318 24.4995 55.345 24.7729C55.4583 25.0464 55.6244 25.2949 55.8337 25.5042C56.0429 25.7135 56.2915 25.8795 56.5649 25.9928C56.8384 26.1061 57.1314 26.1643 57.4274 26.1643Z" fill="#EF412C"/>
<path d="M66.7558 39.375H67.9571C68.2639 39.3919 68.5709 39.346 68.8594 39.2401C69.1479 39.1343 69.4119 38.9707 69.6351 38.7595C69.8582 38.5482 70.036 38.2938 70.1575 38.0115C70.279 37.7292 70.3418 37.4251 70.3418 37.1178C70.3418 36.8105 70.279 36.5064 70.1575 36.2241C70.036 35.9419 69.8582 35.6872 69.6351 35.476C69.4119 35.2647 69.1479 35.1013 68.8594 34.9955C68.5709 34.8897 68.2639 34.8437 67.9571 34.8606H66.7558C66.1786 34.8922 65.6351 35.1438 65.2376 35.5636C64.8402 35.9835 64.6184 36.5397 64.6184 37.1178C64.6184 37.6959 64.8402 38.2521 65.2376 38.672C65.6351 39.0918 66.1786 39.3434 66.7558 39.375Z" fill="#EF412C"/>
<path d="M57.4285 39.3755H58.6364C59.2137 39.3439 59.7572 39.0923 60.1546 38.6725C60.552 38.2526 60.7738 37.6964 60.7738 37.1183C60.7738 36.5402 60.552 35.984 60.1546 35.5642C59.7572 35.1443 59.2137 34.8928 58.6364 34.8611H57.4285C56.8512 34.8928 56.3077 35.1443 55.9103 35.5642C55.5129 35.984 55.2917 36.5402 55.2917 37.1183C55.2917 37.6964 55.5129 38.2526 55.9103 38.6725C56.3077 39.0923 56.8512 39.3439 57.4285 39.3755Z" fill="#EF412C"/>
<path d="M66.7543 52.3347H67.9556C68.5534 52.3347 69.1267 52.0973 69.5494 51.6746C69.9721 51.2519 70.2097 50.6786 70.2097 50.0808C70.2097 49.4831 69.9721 48.9097 69.5494 48.4871C69.1267 48.0644 68.5534 47.8269 67.9556 47.8269H66.7543C66.1566 47.8269 65.5832 48.0644 65.1606 48.4871C64.7379 48.9097 64.5002 49.4831 64.5002 50.0808C64.5002 50.6786 64.7379 51.2519 65.1606 51.6746C65.5832 52.0973 66.1566 52.3347 66.7543 52.3347Z" fill="#EF412C"/>
<path d="M57.4274 52.3347H58.6353C59.2331 52.3347 59.8064 52.0973 60.2291 51.6746C60.6518 51.2519 60.8894 50.6786 60.8894 50.0808C60.8894 49.4831 60.6518 48.9097 60.2291 48.4871C59.8064 48.0644 59.2331 47.8269 58.6353 47.8269H57.4274C56.8297 47.8269 56.2563 48.0644 55.8337 48.4871C55.411 48.9097 55.1733 49.4831 55.1733 50.0808C55.1733 50.6786 55.411 51.2519 55.8337 51.6746C56.2563 52.0973 56.8297 52.3347 57.4274 52.3347Z" fill="#EF412C"/>
<path d="M66.7558 65.274H67.9571C68.2639 65.2908 68.5709 65.2449 68.8594 65.139C69.1479 65.0332 69.4119 64.8698 69.6351 64.6586C69.8582 64.4473 70.036 64.1927 70.1575 63.9104C70.279 63.6281 70.3418 63.324 70.3418 63.0167C70.3418 62.7094 70.279 62.4053 70.1575 62.1231C70.036 61.8408 69.8582 61.5863 69.6351 61.3751C69.4119 61.1638 69.1479 61.0002 68.8594 60.8944C68.5709 60.7886 68.2639 60.7427 67.9571 60.7595H66.7558C66.1786 60.7912 65.6351 61.0427 65.2376 61.4626C64.8402 61.8824 64.6184 62.4386 64.6184 63.0167C64.6184 63.5949 64.8402 64.151 65.2376 64.5709C65.6351 64.9907 66.1786 65.2423 66.7558 65.274Z" fill="#EF412C"/>
<path d="M57.4285 65.2745H58.6364C59.2137 65.2428 59.7572 64.9912 60.1546 64.5714C60.552 64.1516 60.7738 63.5954 60.7738 63.0172C60.7738 62.4391 60.552 61.8829 60.1546 61.4631C59.7572 61.0432 59.2137 60.7917 58.6364 60.76H57.4285C56.8512 60.7917 56.3077 61.0432 55.9103 61.4631C55.5129 61.8829 55.2917 62.4391 55.2917 63.0172C55.2917 63.5954 55.5129 64.1516 55.9103 64.5714C56.3077 64.9912 56.8512 65.2428 57.4285 65.2745Z" fill="#EF412C"/>
</svg>
