<svg width="127" height="136" viewBox="0 0 127 136" fill="none" xmlns="http://www.w3.org/2000/svg">
<path d="M125.537 132.243L102.352 109.065C105.769 105.14 108.168 100.435 109.339 95.3644C110.51 90.2941 110.418 85.0136 109.069 79.9875C109.006 79.6951 108.885 79.4185 108.712 79.1745C108.538 78.9306 108.317 78.7244 108.062 78.5686C107.806 78.4128 107.522 78.3105 107.226 78.2681C106.93 78.2257 106.628 78.244 106.339 78.3219C106.051 78.3999 105.781 78.5357 105.546 78.7213C105.311 78.9069 105.117 79.1383 104.975 79.4014C104.832 79.6645 104.745 79.9538 104.718 80.2518C104.691 80.5497 104.725 80.85 104.818 81.1344C106.306 86.6487 106.029 92.4908 104.026 97.8397C102.023 103.189 98.3942 107.775 93.6497 110.955C88.9051 114.135 83.2833 115.749 77.5744 115.569C71.8656 115.389 66.3566 113.425 61.8218 109.952C57.2869 106.48 53.9545 101.673 52.2923 96.209C50.63 90.7445 50.7216 84.8965 52.5545 79.4869C54.3874 74.0773 57.8696 69.3781 62.5112 66.0496C67.1528 62.721 72.7205 60.9306 78.4322 60.9298C82.6873 60.9234 86.8847 61.9139 90.688 63.8221C94.4913 65.7303 97.7944 68.5031 100.333 71.9181L95.5946 74.9191C94.8579 74.4808 94.0179 74.2456 93.1607 74.2376C92.3035 74.2295 91.4596 74.449 90.7148 74.8734C89.97 75.2978 89.3508 75.9121 88.9208 76.6537C88.4907 77.3952 88.2653 78.2375 88.2669 79.0947C88.2664 79.4721 88.3127 79.8482 88.4044 80.2142L74.0366 92.3905C73.4055 92.1004 72.7193 91.9503 72.0246 91.9509C70.9084 91.9515 69.8266 92.3372 68.9617 93.0429L58.571 88.6613C58.302 88.533 58.0098 88.4607 57.7119 88.4485C57.4141 88.4364 57.1167 88.4847 56.838 88.5907C56.5594 88.6967 56.3054 88.858 56.0909 89.065C55.8765 89.2721 55.7063 89.5205 55.5906 89.7952C55.4749 90.0699 55.4159 90.3651 55.4176 90.6632C55.4192 90.9613 55.4812 91.256 55.6 91.5294C55.7188 91.8028 55.8916 92.0494 56.1084 92.2541C56.3251 92.4587 56.5811 92.6173 56.8608 92.7202L67.1623 97.0673C67.1969 98.355 67.7416 99.5763 68.6767 100.462C69.6117 101.348 70.8603 101.827 72.148 101.792C73.4358 101.758 74.6575 101.213 75.5436 100.278C76.4297 99.3429 76.9082 98.0941 76.8736 96.8064C76.8744 96.4808 76.8396 96.1562 76.7703 95.8381L91.2332 83.5793C91.9721 83.8881 92.7761 84.0096 93.5732 83.9331C94.3703 83.8565 95.1359 83.5842 95.8025 83.1405C96.4691 82.6968 97.0158 82.0954 97.394 81.3896C97.7722 80.6838 97.9705 79.8955 97.9708 79.0947C97.9708 78.9436 97.9708 78.7857 97.9708 78.6346L116.829 66.6644C117.751 67.2098 118.828 67.4351 119.891 67.305C120.954 67.175 121.944 66.6969 122.708 65.9454C123.471 65.1939 123.965 64.2112 124.111 63.1501C124.258 62.089 124.049 61.0091 123.519 60.0788C122.988 59.1484 122.164 58.4197 121.176 58.0062C120.188 57.5928 119.091 57.5178 118.055 57.7928C117.02 58.0678 116.104 58.6775 115.452 59.5268C114.799 60.3762 114.446 61.4176 114.446 62.4888C114.446 62.6468 114.446 62.7978 114.446 62.9489L104.042 69.5556C100.201 64.2845 94.8282 60.3256 88.6559 58.2185C82.4835 56.1114 75.8116 55.9585 69.5492 57.7807C63.2868 59.6029 57.7387 63.3115 53.6604 68.4013C49.5821 73.491 47.1718 79.7144 46.7586 86.2234L31.1763 95.3779C30.2678 94.7967 29.1914 94.5346 28.1174 94.6327C27.0434 94.7309 26.0329 95.1838 25.2449 95.9201C24.4569 96.6564 23.9362 97.6341 23.7654 98.699C23.5946 99.7639 23.7831 100.855 24.3013 101.801C24.8195 102.747 25.6378 103.493 26.6272 103.922C27.6166 104.352 28.7205 104.439 29.7652 104.171C30.8099 103.903 31.7361 103.295 32.3969 102.443C33.0577 101.591 33.4158 100.543 33.415 99.4641C33.415 99.3679 33.415 99.2718 33.415 99.1757L46.8478 91.2848C47.3995 97.0881 49.5415 102.627 53.0374 107.292C56.5333 111.957 61.2476 115.567 66.6627 117.726C72.0777 119.885 77.9833 120.508 83.7298 119.528C89.4763 118.548 94.8413 116.001 99.2343 112.169L122.419 135.354C122.834 135.766 123.394 135.998 123.979 136C124.414 135.999 124.839 135.868 125.201 135.626C125.562 135.383 125.844 135.038 126.01 134.636C126.176 134.233 126.219 133.791 126.133 133.364C126.048 132.937 125.838 132.544 125.531 132.237L125.537 132.243Z" fill="#F9A02A"/>
<path d="M102.534 125.479C101.951 125.479 101.392 125.71 100.98 126.122C100.568 126.534 100.336 127.093 100.336 127.676V131.433H15.1363V13.6184H100.357V57.4821C100.34 57.7815 100.384 58.0811 100.487 58.3627C100.591 58.6443 100.75 58.902 100.956 59.1199C101.162 59.3377 101.411 59.5111 101.686 59.6297C101.961 59.7483 102.258 59.8096 102.558 59.8096C102.858 59.8096 103.154 59.7483 103.43 59.6297C103.705 59.5111 103.953 59.3377 104.159 59.1199C104.365 58.902 104.525 58.6443 104.628 58.3627C104.731 58.0811 104.776 57.7815 104.759 57.4821V11.4139C104.757 10.8304 104.524 10.2716 104.111 9.85965C103.698 9.44771 103.138 9.21631 102.554 9.21631H90.6803V2.19761C90.6803 1.61476 90.4486 1.05581 90.0365 0.643673C89.6243 0.231535 89.0654 0 88.4825 0H2.20448C1.621 -2.8313e-06 1.06109 0.231228 0.647865 0.64317C0.234636 1.05511 0.00181771 1.61413 0 2.19761V125.76C0.00181771 126.344 0.234636 126.903 0.647865 127.315C1.06109 127.726 1.621 127.958 2.20448 127.958H10.7132V133.658C10.7132 134.241 10.9451 134.801 11.3571 135.214C11.769 135.628 12.3275 135.861 12.911 135.862H102.534C103.118 135.862 103.68 135.63 104.093 135.217C104.506 134.803 104.738 134.243 104.738 133.658V127.704C104.741 127.412 104.686 127.124 104.577 126.854C104.467 126.584 104.305 126.338 104.1 126.131C103.895 125.925 103.651 125.76 103.382 125.648C103.113 125.536 102.825 125.479 102.534 125.479ZM4.40226 123.528V4.3746H86.2847V9.18194H12.911C12.3282 9.18194 11.7692 9.41348 11.3571 9.82562C10.9449 10.2378 10.7132 10.7969 10.7132 11.3797V123.494L4.40226 123.528Z" fill="#6FB46B"/>
<path d="M89.3658 28.5831C89.3658 28.0003 89.1341 27.4413 88.7219 27.0292C88.3098 26.617 87.7509 26.3855 87.168 26.3855H30.2424C29.6799 26.4169 29.1507 26.6626 28.7636 27.0719C28.3765 27.4813 28.1606 28.0232 28.1606 28.5866C28.1606 29.15 28.3765 29.692 28.7636 30.1013C29.1507 30.5107 29.6799 30.7562 30.2424 30.7876H87.1821C87.7632 30.7822 88.3183 30.5475 88.7273 30.1347C89.1363 29.7219 89.3658 29.1642 89.3658 28.5831Z" fill="#EF412C"/>
<path d="M60.0207 39.1527C60.0207 38.5681 59.7883 38.0074 59.3749 37.5939C58.9614 37.1805 58.4009 36.9482 57.8162 36.9482H30.2424C29.6799 36.9797 29.1507 37.2252 28.7636 37.6345C28.3765 38.0438 28.1606 38.5858 28.1606 39.1492C28.1606 39.7126 28.3765 40.2546 28.7636 40.6639C29.1507 41.0732 29.6799 41.3189 30.2424 41.3503H57.8296C58.4107 41.3467 58.9673 41.1139 59.3775 40.7023C59.7878 40.2908 60.0189 39.7338 60.0207 39.1527Z" fill="#EF412C"/>
<path d="M30.2424 48.1016C29.6799 48.133 29.1507 48.3785 28.7636 48.7878C28.3765 49.1972 28.1606 49.7391 28.1606 50.3025C28.1606 50.8659 28.3765 51.4079 28.7636 51.8172C29.1507 52.2266 29.6799 52.4722 30.2424 52.5037H45.2137C45.7762 52.4722 46.3054 52.2266 46.6925 51.8172C47.0796 51.4079 47.2955 50.8659 47.2955 50.3025C47.2955 49.7391 47.0796 49.1972 46.6925 48.7878C46.3054 48.3785 45.7762 48.133 45.2137 48.1016H30.2424Z" fill="#EF412C"/>
</svg>
