<svg width="153" height="137" viewBox="0 0 153 137" fill="none" xmlns="http://www.w3.org/2000/svg">
<path d="M82.9646 109.063H10.6989V14.6172H135.427V83.1092C135.427 83.7657 135.688 84.3952 136.152 84.8594C136.616 85.3236 137.246 85.5844 137.902 85.5844C138.559 85.5844 139.189 85.3236 139.653 84.8594C140.117 84.3952 140.377 83.7657 140.377 83.1092V14.6172H143.65C143.976 14.6172 144.297 14.5532 144.597 14.4288C144.898 14.3044 145.171 14.122 145.4 13.8921C145.63 13.6623 145.813 13.3894 145.937 13.089C146.062 12.7887 146.126 12.4668 146.126 12.1417V2.47543C146.126 1.81891 145.865 1.18927 145.4 0.725037C144.936 0.260805 144.307 0 143.65 0H2.47525C2.15017 0 1.8279 0.0641338 1.52757 0.188536C1.22723 0.312937 0.954346 0.495173 0.724481 0.725037C0.494616 0.954902 0.312752 1.22779 0.18835 1.52812C0.0639484 1.82845 0 2.15036 0 2.47543V12.1417C0 12.4668 0.0639484 12.7887 0.18835 13.089C0.312752 13.3894 0.494616 13.6623 0.724481 13.8921C0.954346 14.122 1.22723 14.3044 1.52757 14.4288C1.8279 14.5532 2.15017 14.6172 2.47525 14.6172H5.74765V111.539C5.74665 111.864 5.80982 112.187 5.93377 112.488C6.05773 112.789 6.23994 113.063 6.46991 113.294C6.69987 113.524 6.97364 113.707 7.27447 113.832C7.5753 113.957 7.89792 114.022 8.22364 114.022H82.9646C83.5984 113.987 84.1945 113.71 84.6308 113.249C85.0671 112.788 85.3101 112.177 85.3101 111.542C85.3101 110.908 85.0671 110.297 84.6308 109.836C84.1945 109.375 83.5984 109.098 82.9646 109.063ZM4.9505 4.95087H141.167V9.6587H4.9505V4.95087Z" fill="#6FB46B"/>
<path d="M110.072 73.6028C113.031 73.6043 115.924 72.7283 118.385 71.0855C120.846 69.4427 122.764 67.1069 123.898 64.3736C125.031 61.6404 125.328 58.6323 124.752 55.7301C124.176 52.8279 122.752 50.1619 120.66 48.0691C118.568 45.9763 115.903 44.5509 113.001 43.973C110.099 43.3952 107.091 43.6911 104.357 44.823C101.623 45.955 99.2869 47.8723 97.6428 50.3325C95.9988 52.7926 95.1208 55.6849 95.1208 58.6438C95.1269 62.608 96.7039 66.4082 99.5063 69.212C102.309 72.0158 106.108 73.5948 110.072 73.6028ZM110.072 48.6434C112.052 48.6419 113.988 49.2278 115.635 50.3269C117.282 51.426 118.566 52.989 119.325 54.818C120.083 56.647 120.281 58.6599 119.896 60.602C119.51 62.5441 118.556 64.3281 117.156 65.7282C115.756 67.1283 113.972 68.0816 112.03 68.4675C110.088 68.8534 108.075 68.6545 106.246 67.8961C104.417 67.1377 102.854 65.8538 101.755 64.2068C100.656 62.5598 100.071 60.6238 100.072 58.6438C100.076 55.9927 101.131 53.4515 103.006 51.5769C104.88 49.7024 107.421 48.6474 110.072 48.6434Z" fill="#F9A02A"/>
<path d="M149.352 100.301L124.089 79.8526C123.579 79.4434 123.026 79.0895 122.441 78.797C121.692 78.3544 120.907 77.9759 120.094 77.6656C113.635 75.2567 106.52 75.2838 100.079 77.7417L98.2257 78.4478L77.5494 84.5224L59.0369 78.539C56.751 77.8201 54.2732 78.0305 52.1414 79.1248C50.0095 80.2192 48.3952 82.1093 47.6469 84.3858C46.9161 86.6757 47.1198 89.1617 48.2135 91.3021C49.3072 93.4426 51.2019 95.0643 53.4858 95.8138L74.6641 102.648C75.5672 102.938 76.5096 103.086 77.4582 103.088C78.2897 103.087 79.116 102.961 79.9104 102.716L90.6397 99.5345V134.274C90.6397 134.931 90.9007 135.56 91.365 136.024C91.8292 136.489 92.4592 136.749 93.1157 136.749C93.7722 136.749 94.4015 136.489 94.8658 136.024C95.33 135.56 95.591 134.931 95.591 134.274V96.2617C95.5904 95.8766 95.5001 95.4968 95.327 95.1527C95.1539 94.8087 94.9025 94.5098 94.5936 94.2798C94.2847 94.0497 93.9265 93.895 93.5473 93.8278C93.168 93.7606 92.7782 93.7828 92.409 93.8927L78.506 98.0158C78.1674 98.1252 77.814 98.1816 77.4582 98.1828C77.0272 98.1834 76.599 98.1141 76.1902 97.9778L55.0119 91.1438C54.4963 90.9773 54.0192 90.711 53.6067 90.3598C53.1941 90.0087 52.8546 89.5796 52.6078 89.0974C52.361 88.6151 52.2115 88.0889 52.1681 87.5488C52.1246 87.0088 52.1877 86.4656 52.3542 85.9501C52.5207 85.4346 52.7876 84.9567 53.1387 84.5441C53.4899 84.1316 53.9185 83.7923 54.4008 83.5455C54.8831 83.2987 55.4091 83.1494 55.9492 83.1059C56.4892 83.0625 57.0331 83.1259 57.5487 83.2924L76.7901 89.5113C77.2647 89.6596 77.7733 89.6596 78.2479 89.5113L99.7517 83.186L99.9416 83.1252L101.886 82.3659C107.2 80.3378 113.072 80.3163 118.401 82.3053C118.963 82.5075 119.504 82.7617 120.019 83.0646L120.216 83.1708C120.488 83.3071 120.743 83.4755 120.975 83.6721L146.239 104.121C147.038 104.765 147.566 105.685 147.721 106.7C147.876 107.714 147.644 108.75 147.074 109.603L134.537 128.587C134.156 129.158 133.64 129.626 133.035 129.949C132.429 130.272 131.753 130.441 131.067 130.439C130.26 130.442 129.469 130.213 128.789 129.779C127.89 129.115 127.278 128.134 127.078 127.035C126.878 125.936 127.104 124.802 127.711 123.864L133.231 115.336L136.709 110.074C137.048 109.561 137.183 108.94 137.089 108.332C136.995 107.724 136.678 107.173 136.2 106.786L128.606 100.651C128.243 100.357 127.804 100.172 127.341 100.117C126.877 100.062 126.407 100.14 125.985 100.341C125.563 100.542 125.208 100.858 124.958 101.253C124.708 101.647 124.575 102.105 124.575 102.572V119.588L123.55 121.175C122.413 122.926 121.896 125.007 122.082 127.086C122.267 129.164 123.145 131.121 124.575 132.641V134.274C124.572 134.846 124.768 135.4 125.128 135.844C125.488 136.288 125.99 136.594 126.55 136.709C127.11 136.825 127.693 136.743 128.199 136.477C128.706 136.212 129.104 135.78 129.328 135.254C129.894 135.363 130.469 135.418 131.045 135.421C132.548 135.42 134.029 135.048 135.354 134.336C136.679 133.625 137.807 132.596 138.638 131.343L151.174 112.36C152.433 110.486 152.944 108.208 152.606 105.976C152.269 103.744 151.108 101.72 149.352 100.301ZM129.548 107.766L131.355 109.231L129.548 111.957V107.766Z" fill="#F9A02A"/>
<path d="M109.914 83.2532C109.589 83.2522 109.267 83.3154 108.966 83.4395C108.665 83.5635 108.392 83.7459 108.161 83.976C107.931 84.2061 107.749 84.4792 107.625 84.78C107.501 85.0808 107.437 85.4033 107.438 85.7286V87.3839C107.438 88.0404 107.699 88.6701 108.164 89.1343C108.628 89.5985 109.258 89.8593 109.914 89.8593C110.571 89.8593 111.2 89.5985 111.665 89.1343C112.129 88.6701 112.39 88.0404 112.39 87.3839V85.7286C112.39 85.4035 112.326 85.0816 112.201 84.7813C112.077 84.481 111.894 84.2081 111.665 83.9782C111.435 83.7484 111.162 83.5659 110.861 83.4415C110.561 83.3171 110.24 83.2532 109.914 83.2532Z" fill="#F9A02A"/>
<path d="M109.914 91.1731C109.589 91.1731 109.266 91.2373 108.965 91.3622C108.664 91.4871 108.391 91.6702 108.161 91.9009C107.931 92.1316 107.749 92.4052 107.625 92.7064C107.501 93.0076 107.437 93.3304 107.438 93.6561V120.058C107.438 120.715 107.699 121.344 108.164 121.809C108.628 122.273 109.258 122.534 109.914 122.534C110.571 122.534 111.2 122.273 111.665 121.809C112.129 121.344 112.39 120.715 112.39 120.058V93.6561C112.391 93.3304 112.328 93.0076 112.204 92.7064C112.08 92.4052 111.897 92.1316 111.667 91.9009C111.438 91.6702 111.164 91.4871 110.863 91.3622C110.562 91.2373 110.24 91.1731 109.914 91.1731Z" fill="#F9A02A"/>
<path d="M100.373 23.3111C99.8582 22.902 99.2023 22.7137 98.5489 22.7878C97.8955 22.8618 97.2981 23.1919 96.8878 23.7058L73.1586 53.4338L61.6166 37.427C61.37 37.0878 61.042 36.8167 60.6623 36.6387C60.2825 36.4608 59.8639 36.382 59.4454 36.4096C59.0249 36.4355 58.6179 36.5692 58.2641 36.798C57.9104 37.0267 57.6216 37.3428 57.4255 37.7156L42.33 66.016L34.03 51.2924C33.8267 50.9338 33.5377 50.6316 33.1884 50.4128C32.839 50.194 32.4407 50.0656 32.0293 50.0392C31.618 50.0129 31.2062 50.0893 30.8317 50.2617C30.4573 50.4341 30.1315 50.6971 29.8841 51.0268L20.081 64.1783C19.6882 64.7049 19.5213 65.3659 19.616 66.016C19.7107 66.6661 20.0593 67.2519 20.5859 67.6446C21.1126 68.0373 21.7741 68.2048 22.4242 68.1101C23.0743 68.0154 23.6599 67.6664 24.0526 67.1398L31.5852 57.033L40.2337 72.3715C40.4491 72.754 40.7624 73.0723 41.1413 73.2938C41.5203 73.5153 41.9519 73.6319 42.3908 73.632C42.8345 73.6282 43.2682 73.5049 43.6477 73.2751C44.0272 73.0452 44.3384 72.7174 44.5472 72.3259L59.8933 43.5473L71.0171 58.977C71.2399 59.2864 71.5318 59.5399 71.8691 59.7178C72.2064 59.8956 72.5802 59.9929 72.9614 60.002C73.3427 60.0086 73.7204 59.9288 74.0663 59.7684C74.4122 59.6079 74.7172 59.371 74.9584 59.0756L100.73 26.7887C101.141 26.2791 101.334 25.6277 101.267 24.9764C101.2 24.3251 100.879 23.7266 100.373 23.3111Z" fill="#EF412C"/>
</svg>
