<?xml version="1.0" encoding="utf-8"?>
<svg version="1.1" xmlns:xlink="http://www.w3.org/1999/xlink" width="17px" height="16px" xmlns="http://www.w3.org/2000/svg">
  <g transform="matrix(1 0 0 1 -294 28 )">
    <path d="M 16.2946083788707 12.1704918032787  C 15.6155373406193 11.4832786885246  14.9206739526412 10.7960655737705  14.225810564663 10.1088524590164  C 13.9415482695811 9.8255737704918  13.6204371584699 9.68918032786885  13.2993260473588 9.68918032786885  C 12.9782149362477 9.68918032786885  12.6571038251366 9.83081967213115  12.3781056466302 10.1088524590164  C 11.9464480874317 10.5390163934426  11.5147905282331 10.9639344262295  11.0883970856102 11.3993442622951  C 11.0146994535519 11.4727868852459  10.9515300546448 11.5095081967213  10.8830965391621 11.5095081967213  C 10.8357194899818 11.5095081967213  10.7883424408015 11.4937704918033  10.7357012750455 11.4622950819672  C 10.4567030965392 11.3101639344262  10.1566484517304 11.1895081967213  9.88817850637523 11.0216393442623  C 8.63531876138434 10.2347540983607  7.58249544626594 9.22229508196721  6.65074681238615 8.08918032786885  C 6.18750455373406 7.52262295081967  5.77690346083789 6.91934426229508  5.49264116575592 6.23737704918033  C 5.43473588342441 6.10098360655738  5.44526411657559 6.01180327868853  5.55581056466302 5.89639344262295  C 5.98746812386156 5.48196721311476  6.40859744990892 5.05180327868853  6.83499089253187 4.62688524590164  C 7.42983606557377 4.03409836065574  7.42983606557377 3.33639344262295  6.82972677595628 2.73836065573771  C 6.49282331511839 2.39737704918033  6.15591985428051 2.06688524590164  5.81375227686703 1.72590163934426  C 5.46632058287796 1.3744262295082  5.11888888888889 1.02295081967213  4.76619307832423 0.67672131147541  C 4.48193078324226 0.398688524590164  4.16081967213115 0.262295081967213  3.83970856102004 0.262295081967213  C 3.51859744990893 0.262295081967213  3.19748633879781 0.403934426229508  2.91322404371585 0.681967213114754  C 2.4815664845173 1.10688524590164  2.06043715846995 1.54754098360656  1.61825136612022 1.9672131147541  C 1.20765027322404 2.35540983606557  1.00234972677596 2.82754098360656  0.954972677595628 3.38360655737705  C 0.886539162112933 4.28590163934426  1.1076320582878 5.13573770491803  1.41821493624772 5.96459016393443  C 2.06043715846995 7.68  3.03429872495446 9.20655737704918  4.21346083788707 10.6072131147541  C 5.80848816029144 12.495737704918  7.71409836065574 13.9960655737705  9.94081967213114 15.0714754098361  C 10.9462659380692 15.5593442622951  11.9832969034608 15.9318032786885  13.1150819672131 15.9895081967213  C 13.1835154826958 15.9947540983607  13.2519489981785 15.9947540983607  13.3203825136612 15.9947540983607  C 14.0152459016393 15.9947540983607  14.6206193078324 15.7849180327869  15.1101821493625 15.2340983606557  C 15.4786703096539 14.8196721311475  15.8997996357013 14.4419672131148  16.2893442622951 14.0485245901639  C 16.8683970856102 13.4609836065574  16.8736612021858 12.7527868852459  16.2946083788707 12.1704918032787  Z M 15.568160291439 12.9101639344262  C 15.7208196721311 13.0780327868852  15.7366120218579 13.1252459016393  15.5523679417122 13.3140983606557  C 15.4207650273224 13.4452459016393  15.2891621129326 13.5711475409836  15.1575591985428 13.7022950819672  C 14.883825136612 13.9645901639344  14.6048269581056 14.2373770491803  14.3310928961749 14.5416393442623  C 14.0731511839709 14.8301639344262  13.7730965391621 14.9560655737705  13.3256466302368 14.9560655737705  C 13.2782695810565 14.9560655737705  13.2308925318761 14.9560655737705  13.1782513661202 14.9508196721311  C 12.3359927140255 14.903606557377  11.477941712204 14.6518032786885  10.4093260473588 14.1324590163934  C 8.34579234972677 13.1304918032787  6.52967213114754 11.7193442622951  5.02413479052823 9.93573770491803  C 3.81865209471767 8.50885245901639  2.96586520947176 7.09245901639344  2.40786885245902 5.60262295081967  C 2.08149362477231 4.74229508196721  1.9604189435337 4.08131147540983  2.00779599271402 3.4727868852459  C 2.03411657559198 3.15803278688524  2.13413479052823 2.93245901639344  2.34469945355191 2.73311475409836  C 2.61843351548269 2.47606557377049  2.88163934426229 2.20852459016393  3.15010928961748 1.94098360655738  C 3.31329690346084 1.76786885245902  3.48174863387978 1.59475409836066  3.65546448087432 1.42688524590164  C 3.75021857923497 1.33770491803279  3.81865209471767 1.31147540983607  3.83970856102004 1.31147540983607  C 3.866029143898 1.31147540983607  3.93446265938069 1.33770491803279  4.02921675774135 1.42688524590164  C 4.26083788706739 1.65245901639344  4.49245901639344 1.88327868852459  4.7188160291439 2.11409836065574  L 5.06624772313297 2.46032786885246  C 5.2399635701275 2.63344262295082  5.40841530054645 2.80655737704918  5.58213114754098 2.9744262295082  C 5.75058287795993 3.14229508196721  5.91377049180328 3.30491803278688  6.08222222222222 3.4727868852459  C 6.27699453551913 3.66688524590164  6.26646630236794 3.70360655737705  6.08748633879781 3.88196721311475  L 5.90850637522769 4.06032786885246  C 5.54528233151184 4.42754098360656  5.18732240437159 4.78426229508197  4.80830601092896 5.15147540983607  C 4.39770491803279 5.56065573770492  4.29242258652095 6.10622950819672  4.5187795992714 6.64131147540984  C 4.81357012750455 7.34426229508197  5.23469945355191 8.01573770491803  5.8348087431694 8.75016393442623  C 6.92974499089253 10.0931147540984  8.07205828779599 11.1265573770492  9.33018214936248 11.9134426229508  C 9.53548269581056 12.0393442622951  9.74604735883424 12.144262295082  9.93029143897996 12.2334426229508  C 10.0303096539162 12.2806557377049  10.1303278688525 12.3331147540984  10.2145537340619 12.3750819672131  C 10.4303825136612 12.495737704918  10.6514754098361 12.5586885245902  10.8830965391621 12.5586885245902  C 11.1305100182149 12.5586885245902  11.4989981785064 12.4852459016393  11.8464298724954 12.1285245901639  C 12.2622950819672 11.7036065573771  12.6834244080146 11.2839344262295  13.1256102003643 10.8485245901639  C 13.220364298725 10.7540983606557  13.2835336976321 10.7331147540984  13.30985428051 10.7331147540984  C 13.3309107468124 10.7331147540984  13.3993442622951 10.7593442622951  13.4940983606557 10.8485245901639  C 14.1889617486339 11.535737704918  14.8785610200364 12.2229508196721  15.568160291439 12.9101639344262  Z " fill-rule="nonzero" fill="#333333" stroke="none" transform="matrix(1 0 0 1 294 -28 )" />
  </g>
</svg>