<?xml version="1.0" encoding="utf-8"?>
<svg version="1.1" xmlns:xlink="http://www.w3.org/1999/xlink" width="6px" height="9px" xmlns="http://www.w3.org/2000/svg">
  <g transform="matrix(1 0 0 1 -201 -2933 )">
    <path d="M 5.76949083085749 5.63958610798074  C 5.76949083085749 7.08615920499949  4.59256223747566 8.26226821022436  3.14680872861387 8.26226821022436  C 1.70023563159512 8.26226821022436  0.524126626370247 7.08615920499948  0.524126626370247 5.63958610798074  C 0.524126626370247 4.89130212068435  1.2797869070792 0.39176313902264  3.14680872861387 0.39176313902264  C 5.01383055014855 0.39176313902264  5.76949083085749 4.89130212068435  5.76949083085749 5.63958610798074  Z M 4.45814977973568 5.63958610798074  C 4.45814977973568 4.5585493289622  3.66478844380698 2.03503739370966  3.14680872861387 1.71703718881262  C 2.62882901342076 2.03503739370966  1.83546767749206 4.55772974080524  1.83546767749206 5.63958610798074  C 1.83546767749206 6.36246286241164  2.42393197418297 6.95092715910255  3.14680872861387 6.95092715910255  C 3.86968548304477 6.95092715910255  4.45814977973568 6.36246286241164  4.45814977973568 5.63958610798074  Z " fill-rule="nonzero" fill="#8251de" stroke="none" transform="matrix(1 0 0 1 201 2933 )" />
  </g>
</svg>