<?xml version="1.0" encoding="utf-8"?>
<svg version="1.1" xmlns:xlink="http://www.w3.org/1999/xlink" width="36px" height="30px" xmlns="http://www.w3.org/2000/svg">
  <g transform="matrix(1 0 0 1 -208 -1277 )">
    <path d="M 35.2855325275388 23.4883316034419  C 35.5565339672548 23.2135132420397  36.0998091539157 22.3992366156628  35.5565339672548 21.3139585495698  C 34.4712559011618 18.8711286704389  29.8565975826163 15.3430207252151  25.7852144507316 12.0859142197074  C 23.6133860113168 10.1863595272374  21.4428298791308 8.55780627448355  19.8142766263769 7.20025446144574  C 19.5432751866609 7.47125590116182  19 7.47125590116182  19 7.7435296481066  C 18.1857233736231 8.01453108782268  17.914721933907 8.28680483476747  16.8281715605853 8.28680483476747  C 14.6563431211705 11.0006361536144  11.9425118023236 12.0871865269361  8.95640673653195 11.0006361536144  C 7.59885492349416 10.7296347138983  6.78457829711722 9.64308434057655  6.51357685740114 8.55780627448354  C 5.97157397796899 5.84270264840794  8.41440385709981 2.04232095623933  10.3139585495698 0.142766263769378  L 4.88502360464727 0.142766263769378  C 3.79974553855426 5.57170120869187  1.89891853885559 12.6279170991395  0.542639033046507 16.4282987913081  C 1.62791709913952 17.5135768574011  2.71446747246124 18.8711286704389  3.52874409883818 19.4144038570998  C 8.68540529681588 23.7567884287006  14.6576154283992 28.1004453075301  15.7428934944923 28.914721933907  C 16.5571701208692 29.4579971205678  18.1857233736231 30  19 30  C 19.2710014397161 30  19.5432751866609 30  19.8142766263769 30  L 15.4718920547762 25.6576154283992  C 14.9286168681153 25.1143402417384  14.9286168681153 24.3000636153614  15.4718920547762 23.7580607359293  C 16.015167241437 23.2160578564971  16.829443867814 23.2147855492684  17.3714467472461 23.7580607359293  L 22.8003816921686 29.1869956808518  C 23.3436568788295 29.7302708675126  23.8856597582616 29.4579971205678  24.4289349449225 29.4579971205678  C 25.2432115712994 29.1869956808518  25.5142130110155 28.6437204941909  25.7864867579603 27.829443867814  L 19.5432751866609 21.5862322965145  C 19 21.0429571098537  19 20.2286804834767  19.5432751866609 19.6866776040446  C 20.0865503733217 19.1446747246124  20.9008269996987 19.1434024173837  21.4428298791308 19.6866776040446  L 28.2280443298624 26.4718920547762  C 28.4990457695785 26.7428934944922  29.5855961429002 26.7428934944922  30.3998727692771 26.4718920547762  C 30.6708742089932 26.2008906150601  31.2141493956541 25.9286168681153  31.4851508353701 25.3866139886832  L 23.8856597582616 17.7871229115746  C 23.3423845716008 17.2438477249138  23.3423845716008 16.4295710985368  23.8856597582616 15.8875682191047  C 24.4289349449225 15.3455653396725  25.2432115712994 15.3442930324438  25.7852144507316 15.8875682191047  L 33.6569792747849 23.759333043158  C 34.2002544614457 24.0303344828741  34.7422573408779 23.759333043158  35.2855325275388 23.4883316034419  Z " fill-rule="nonzero" fill="#d31708" stroke="none" transform="matrix(1 0 0 1 208 1277 )" />
  </g>
</svg>